  0
SECTION
  2
HEADER
  9
$ACADVER
  1
AC1032
  9
$ACADMAINTVER
 90
        4
  9
$DWGCODEPAGE
  3
ANSI_1252
  9
$LASTSAVEDBY
  1
Aluno
  9
$REQUIREDVERSIONS
160
                 0
  9
$INSBASE
 10
0.0
 20
0.0
 30
0.0
  9
$EXTMIN
 10
702.8171645391221
 20
309.6515416248258
 30
0.0
  9
$EXTMAX
 10
1139.037703967332
 20
893.361830835763
 30
0.0
  9
$LIMMIN
 10
0.0
 20
0.0
  9
$LIMMAX
 10
12.0
 20
9.0
  9
$ORTHOMODE
 70
     0
  9
$REGENMODE
 70
     1
  9
$FILLMODE
 70
     1
  9
$QTEXTMODE
 70
     0
  9
$MIRRTEXT
 70
     0
  9
$LTSCALE
 40
1.0
  9
$ATTMODE
 70
     1
  9
$TEXTSIZE
 40
0.2
  9
$TRACEWID
 40
0.05
  9
$TEXTSTYLE
  7
STANDARD
  9
$CLAYER
  8
0
  9
$CELTYPE
  6
Continuous
  9
$CECOLOR
 62
   256
  9
$CELTSCALE
 40
1.0
  9
$DISPSILH
 70
     0
  9
$DIMSCALE
 40
1.0
  9
$DIMASZ
 40
0.18
  9
$DIMEXO
 40
0.0625
  9
$DIMDLI
 40
0.38
  9
$DIMRND
 40
0.0
  9
$DIMDLE
 40
0.0
  9
$DIMEXE
 40
0.18
  9
$DIMTP
 40
0.0
  9
$DIMTM
 40
0.0
  9
$DIMTXT
 40
0.18
  9
$DIMCEN
 40
0.09
  9
$DIMTSZ
 40
0.0
  9
$DIMTOL
 70
     0
  9
$DIMLIM
 70
     0
  9
$DIMTIH
 70
     1
  9
$DIMTOH
 70
     1
  9
$DIMSE1
 70
     0
  9
$DIMSE2
 70
     0
  9
$DIMTAD
 70
     0
  9
$DIMZIN
 70
     0
  9
$DIMBLK
  1

  9
$DIMASO
 70
     1
  9
$DIMSHO
 70
     1
  9
$DIMPOST
  1

  9
$DIMAPOST
  1

  9
$DIMALT
 70
     0
  9
$DIMALTD
 70
     2
  9
$DIMALTF
 40
25.4
  9
$DIMLFAC
 40
1.0
  9
$DIMTOFL
 70
     0
  9
$DIMTVP
 40
0.0
  9
$DIMTIX
 70
     0
  9
$DIMSOXD
 70
     0
  9
$DIMSAH
 70
     0
  9
$DIMBLK1
  1

  9
$DIMBLK2
  1

  9
$DIMSTYLE
  2
Standard
  9
$DIMCLRD
 70
     0
  9
$DIMCLRE
 70
     0
  9
$DIMCLRT
 70
     0
  9
$DIMTFAC
 40
1.0
  9
$DIMGAP
 40
0.09
  9
$DIMJUST
 70
     0
  9
$DIMSD1
 70
     0
  9
$DIMSD2
 70
     0
  9
$DIMTOLJ
 70
     1
  9
$DIMTZIN
 70
     0
  9
$DIMALTZ
 70
     0
  9
$DIMALTTZ
 70
     0
  9
$DIMUPT
 70
     0
  9
$DIMDEC
 70
     4
  9
$DIMTDEC
 70
     4
  9
$DIMALTU
 70
     2
  9
$DIMALTTD
 70
     2
  9
$DIMTXSTY
  7
STANDARD
  9
$DIMAUNIT
 70
     0
  9
$DIMADEC
 70
     0
  9
$DIMALTRND
 40
0.0
  9
$DIMAZIN
 70
     0
  9
$DIMDSEP
 70
    46
  9
$DIMATFIT
 70
     3
  9
$DIMFRAC
 70
     0
  9
$DIMLDRBLK
  1

  9
$DIMLUNIT
 70
     2
  9
$DIMLWD
 70
    -2
  9
$DIMLWE
 70
    -2
  9
$DIMTMOVE
 70
     0
  9
$DIMFXL
 40
1.0
  9
$DIMFXLON
 70
     0
  9
$DIMJOGANG
 40
0.7853981633974483
  9
$DIMTFILL
 70
     0
  9
$DIMTFILLCLR
 70
     0
  9
$DIMARCSYM
 70
     0
  9
$DIMLTYPE
  6

  9
$DIMLTEX1
  6

  9
$DIMLTEX2
  6

  9
$DIMTXTDIRECTION
 70
     0
  9
$LUNITS
 70
     2
  9
$LUPREC
 70
     4
  9
$SKETCHINC
 40
0.1
  9
$FILLETRAD
 40
0.0
  9
$AUNITS
 70
     0
  9
$AUPREC
 70
     0
  9
$MENU
  1
.
  9
$ELEVATION
 40
0.0
  9
$PELEVATION
 40
0.0
  9
$THICKNESS
 40
0.0
  9
$LIMCHECK
 70
     0
  9
$CHAMFERA
 40
0.0
  9
$CHAMFERB
 40
0.0
  9
$CHAMFERC
 40
0.0
  9
$CHAMFERD
 40
0.0
  9
$SKPOLY
 70
     0
  9
$TDCREATE
 40
2458571.702592593
  9
$TDUCREATE
 40
2458571.827592593
  9
$TDUPDATE
 40
2458571.705509259
  9
$TDUUPDATE
 40
2458571.830509260
  9
$TDINDWG
 40
0.0029166667
  9
$TDUSRTIMER
 40
0.0029166667
  9
$USRTIMER
 70
     1
  9
$ANGBASE
 50
0.0
  9
$ANGDIR
 70
     0
  9
$PDMODE
 70
     0
  9
$PDSIZE
 40
0.0
  9
$PLINEWID
 40
0.0
  9
$SPLFRAME
 70
     0
  9
$SPLINETYPE
 70
     6
  9
$SPLINESEGS
 70
     8
  9
$HANDSEED
  5
1006C
  9
$SURFTAB1
 70
     6
  9
$SURFTAB2
 70
     6
  9
$SURFTYPE
 70
     6
  9
$SURFU
 70
     6
  9
$SURFV
 70
     6
  9
$UCSBASE
  2

  9
$UCSNAME
  2

  9
$UCSORG
 10
0.0
 20
0.0
 30
0.0
  9
$UCSXDIR
 10
1.0
 20
0.0
 30
0.0
  9
$UCSYDIR
 10
0.0
 20
1.0
 30
0.0
  9
$UCSORTHOREF
  2

  9
$UCSORTHOVIEW
 70
     0
  9
$UCSORGTOP
 10
0.0
 20
0.0
 30
0.0
  9
$UCSORGBOTTOM
 10
0.0
 20
0.0
 30
0.0
  9
$UCSORGLEFT
 10
0.0
 20
0.0
 30
0.0
  9
$UCSORGRIGHT
 10
0.0
 20
0.0
 30
0.0
  9
$UCSORGFRONT
 10
0.0
 20
0.0
 30
0.0
  9
$UCSORGBACK
 10
0.0
 20
0.0
 30
0.0
  9
$PUCSBASE
  2

  9
$PUCSNAME
  2

  9
$PUCSORG
 10
0.0
 20
0.0
 30
0.0
  9
$PUCSXDIR
 10
1.0
 20
0.0
 30
0.0
  9
$PUCSYDIR
 10
0.0
 20
1.0
 30
0.0
  9
$PUCSORTHOREF
  2

  9
$PUCSORTHOVIEW
 70
     0
  9
$PUCSORGTOP
 10
0.0
 20
0.0
 30
0.0
  9
$PUCSORGBOTTOM
 10
0.0
 20
0.0
 30
0.0
  9
$PUCSORGLEFT
 10
0.0
 20
0.0
 30
0.0
  9
$PUCSORGRIGHT
 10
0.0
 20
0.0
 30
0.0
  9
$PUCSORGFRONT
 10
0.0
 20
0.0
 30
0.0
  9
$PUCSORGBACK
 10
0.0
 20
0.0
 30
0.0
  9
$USERI1
 70
     0
  9
$USERI2
 70
     0
  9
$USERI3
 70
     0
  9
$USERI4
 70
     0
  9
$USERI5
 70
     0
  9
$USERR1
 40
0.0
  9
$USERR2
 40
0.0
  9
$USERR3
 40
0.0
  9
$USERR4
 40
0.0
  9
$USERR5
 40
0.0
  9
$WORLDVIEW
 70
     1
  9
$SHADEDGE
 70
     3
  9
$SHADEDIF
 70
    70
  9
$TILEMODE
 70
     1
  9
$MAXACTVP
 70
    64
  9
$PINSBASE
 10
0.0
 20
0.0
 30
0.0
  9
$PLIMCHECK
 70
     0
  9
$PEXTMIN
 10
1.000000000000000E+20
 20
1.000000000000000E+20
 30
1.000000000000000E+20
  9
$PEXTMAX
 10
-1.000000000000000E+20
 20
-1.000000000000000E+20
 30
-1.000000000000000E+20
  9
$PLIMMIN
 10
0.0
 20
0.0
  9
$PLIMMAX
 10
12.0
 20
9.0
  9
$UNITMODE
 70
     0
  9
$VISRETAIN
 70
     1
  9
$PLINEGEN
 70
     0
  9
$PSLTSCALE
 70
     1
  9
$TREEDEPTH
 70
  3020
  9
$CMLSTYLE
  2
Standard
  9
$CMLJUST
 70
     0
  9
$CMLSCALE
 40
1.0
  9
$PROXYGRAPHICS
 70
     1
  9
$MEASUREMENT
 70
     0
  9
$CELWEIGHT
370
    -1
  9
$ENDCAPS
280
     0
  9
$JOINSTYLE
280
     0
  9
$LWDISPLAY
290
     0
  9
$INSUNITS
 70
     4
  9
$HYPERLINKBASE
  1

  9
$STYLESHEET
  1

  9
$XEDIT
290
     1
  9
$CEPSNTYPE
380
     0
  9
$PSTYLEMODE
290
     1
  9
$FINGERPRINTGUID
  2
{346BF323-AA08-024A-B5A2-39ADEAC35771}
  9
$VERSIONGUID
  2
{B7FBBBC8-5C0C-8148-BDBD-D4A55635DF24}
  9
$EXTNAMES
290
     1
  9
$PSVPSCALE
 40
0.0
  9
$OLESTARTUP
290
     0
  9
$SORTENTS
280
   127
  9
$INDEXCTL
280
     0
  9
$HIDETEXT
280
     0
  9
$XCLIPFRAME
280
     2
  9
$HALOGAP
280
     0
  9
$OBSCOLOR
 70
   257
  9
$OBSLTYPE
280
     0
  9
$INTERSECTIONDISPLAY
280
     0
  9
$INTERSECTIONCOLOR
 70
   257
  9
$DIMASSOC
280
     1
  9
$PROJECTNAME
  1

  9
$CAMERADISPLAY
290
     0
  9
$LENSLENGTH
 40
50.0
  9
$CAMERAHEIGHT
 40
0.0
  9
$STEPSPERSEC
 40
2.0
  9
$STEPSIZE
 40
6.0
  9
$3DDWFPREC
 40
2.0
  9
$PSOLWIDTH
 40
0.25
  9
$PSOLHEIGHT
 40
4.0
  9
$LOFTANG1
 40
1.570796326794896
  9
$LOFTANG2
 40
1.570796326794896
  9
$LOFTMAG1
 40
0.0
  9
$LOFTMAG2
 40
0.0
  9
$LOFTPARAM
 70
     7
  9
$LOFTNORMALS
280
     1
  9
$LATITUDE
 40
37.795
  9
$LONGITUDE
 40
-122.394
  9
$NORTHDIRECTION
 40
0.0
  9
$TIMEZONE
 70
 -8000
  9
$LIGHTGLYPHDISPLAY
280
     1
  9
$TILEMODELIGHTSYNCH
280
     1
  9
$CMATERIAL
347
10005
  9
$SOLIDHIST
280
     0
  9
$SHOWHIST
280
     1
  9
$DWFFRAME
280
     2
  9
$DGNFRAME
280
     0
  9
$REALWORLDSCALE
290
     1
  9
$INTERFERECOLOR
 62
     1
  9
$INTERFEREOBJVS
345
10027
  9
$INTERFEREVPVS
346
10024
  9
$CSHADOW
280
     0
  9
$SHADOWPLANELOCATION
 40
0.0
  0
ENDSEC
  0
SECTION
  2
CLASSES
  0
CLASS
  1
ACDBDICTIONARYWDFLT
  2
AcDbDictionaryWithDefault
  3
ObjectDBX Classes
 90
        0
 91
        1
280
     0
281
     0
  0
CLASS
  1
MATERIAL
  2
AcDbMaterial
  3
ObjectDBX Classes
 90
     1153
 91
        3
280
     0
281
     0
  0
CLASS
  1
VISUALSTYLE
  2
AcDbVisualStyle
  3
ObjectDBX Classes
 90
     4095
 91
       24
280
     0
281
     0
  0
CLASS
  1
TABLESTYLE
  2
AcDbTableStyle
  3
ObjectDBX Classes
 90
     4095
 91
        1
280
     0
281
     0
  0
CLASS
  1
SCALE
  2
AcDbScale
  3
ObjectDBX Classes
 90
     1153
 91
       17
280
     0
281
     0
  0
CLASS
  1
MLEADERSTYLE
  2
AcDbMLeaderStyle
  3
ACDB_MLEADERSTYLE_CLASS
 90
     4095
 91
        1
280
     0
281
     0
  0
CLASS
  1
ACDBSECTIONVIEWSTYLE
  2
AcDbSectionViewStyle
  3
ObjectDBX Classes
 90
     1025
 91
        1
280
     0
281
     0
  0
CLASS
  1
ACDBDETAILVIEWSTYLE
  2
AcDbDetailViewStyle
  3
ObjectDBX Classes
 90
     1025
 91
        1
280
     0
281
     0
  0
CLASS
  1
EXACXREFPANELOBJECT
  2
ExAcXREFPanelObject
  3
EXAC_ESW
 90
     1025
 91
        1
280
     0
281
     0
  0
CLASS
  1
NPOCOLLECTION
  2
AcDbImpNonPersistentObjectsCollection
  3
ObjectDBX Classes
 90
     1153
 91
        1
280
     0
281
     0
  0
CLASS
  1
DICTIONARYVAR
  2
AcDbDictionaryVar
  3
ObjectDBX Classes
 90
        0
 91
        9
280
     0
281
     0
  0
CLASS
  1
CELLSTYLEMAP
  2
AcDbCellStyleMap
  3
ObjectDBX Classes
 90
     1152
 91
        1
280
     0
281
     0
  0
ENDSEC
  0
SECTION
  2
TABLES
  0
TABLE
  2
VPORT
  5
8
330
0
100
AcDbSymbolTable
 70
     1
  0
VPORT
  5
10059
330
8
100
AcDbSymbolTableRecord
100
AcDbViewportTableRecord
  2
*Active
 70
     0
 10
0.0
 20
0.0
 11
1.0
 21
1.0
 12
189.1339104850881
 22
730.1403579669716
 13
0.0
 23
0.0
 14
1.0
 24
1.0
 15
0.0
 25
0.0
 16
0.0
 26
0.0
 36
1.0
 17
0.0
 27
0.0
 37
0.0
 40
1841.798016913957
 41
2.635862068965517
 42
50.0
 43
0.0
 44
0.0
 50
0.0
 51
0.0
 71
     0
 72
  1000
 73
     1
 74
     3
 75
     0
 76
     0
 77
     0
 78
     0
281
     0
 65
     1
110
0.0
120
0.0
130
0.0
111
1.0
121
0.0
131
0.0
112
0.0
122
1.0
132
0.0
 79
     0
146
0.0
348
10023
 60
     3
 61
     5
292
     1
282
     1
141
0.0
142
0.0
 63
   250
421
  3355443
1001
ACAD_NAV_VCDISPLAY
1070
     1
  0
ENDTAB
  0
TABLE
  2
LTYPE
  5
5
330
0
100
AcDbSymbolTable
 70
     1
  0
LTYPE
  5
14
330
5
100
AcDbSymbolTableRecord
100
AcDbLinetypeTableRecord
  2
BYBLOCK
 70
     0
  3

 72
    65
 73
     0
 40
0.0
  0
LTYPE
  5
15
330
5
100
AcDbSymbolTableRecord
100
AcDbLinetypeTableRecord
  2
BYLAYER
 70
     0
  3

 72
    65
 73
     0
 40
0.0
  0
LTYPE
  5
10001
330
5
100
AcDbSymbolTableRecord
100
AcDbLinetypeTableRecord
  2
Continuous
 70
     0
  3
Solid line
 72
    65
 73
     0
 40
0.0
  0
ENDTAB
  0
TABLE
  2
LAYER
  5
2
330
0
100
AcDbSymbolTable
 70
     1
  0
LAYER
  5
50
102
{ACAD_XDICTIONARY
360
1005D
102
}
330
2
100
AcDbSymbolTableRecord
100
AcDbLayerTableRecord
  2
0
 70
     0
 62
     7
  6
Continuous
370
    -3
390
10003
347
10015
348
0
  0
ENDTAB
  0
TABLE
  2
STYLE
  5
3
330
0
100
AcDbSymbolTable
 70
     1
  0
STYLE
  5
11
330
3
100
AcDbSymbolTableRecord
100
AcDbTextStyleTableRecord
  2
STANDARD
 70
     0
 40
0.0
 41
1.0
 50
0.0
 71
     0
 42
0.2
  3

  4

  0
ENDTAB
  0
TABLE
  2
VIEW
  5
6
330
0
100
AcDbSymbolTable
 70
     0
  0
ENDTAB
  0
TABLE
  2
UCS
  5
7
330
0
100
AcDbSymbolTable
 70
     0
  0
ENDTAB
  0
TABLE
  2
APPID
  5
9
330
0
100
AcDbSymbolTable
 70
     2
  0
APPID
  5
12
330
9
100
AcDbSymbolTableRecord
100
AcDbRegAppTableRecord
  2
ACAD
 70
     0
  0
APPID
  5
10058
330
9
100
AcDbSymbolTableRecord
100
AcDbRegAppTableRecord
  2
ACAD_NAV_VCDISPLAY
 70
     0
  0
ENDTAB
  0
TABLE
  2
DIMSTYLE
  5
A
330
0
100
AcDbSymbolTable
 70
     1
100
AcDbDimStyleTable
 71
     0
  0
DIMSTYLE
105
10053
330
A
100
AcDbSymbolTableRecord
100
AcDbDimStyleTableRecord
  2
Standard
 70
     0
340
11
  0
ENDTAB
  0
TABLE
  2
BLOCK_RECORD
  5
1
330
0
100
AcDbSymbolTable
 70
     0
  0
BLOCK_RECORD
  5
1F
330
1
100
AcDbSymbolTableRecord
100
AcDbBlockTableRecord
  2
*MODEL_SPACE
340
10055
 70
     0
280
     1
281
     0
  0
BLOCK_RECORD
  5
1B
330
1
100
AcDbSymbolTableRecord
100
AcDbBlockTableRecord
  2
*PAPER_SPACE
340
10056
 70
     0
280
     1
281
     0
  0
ENDTAB
  0
ENDSEC
  0
SECTION
  2
BLOCKS
  0
BLOCK
  5
20
330
1F
100
AcDbEntity
  8
0
100
AcDbBlockBegin
  2
*MODEL_SPACE
 70
     0
 10
0.0
 20
0.0
 30
0.0
  3
*MODEL_SPACE
  1

  0
ENDBLK
  5
21
330
1F
100
AcDbEntity
  8
0
100
AcDbBlockEnd
  0
BLOCK
  5
1C
330
1B
100
AcDbEntity
 67
     1
  8
0
100
AcDbBlockBegin
  2
*PAPER_SPACE
 70
     0
 10
0.0
 20
0.0
 30
0.0
  3
*PAPER_SPACE
  1

  0
ENDBLK
  5
1D
330
1B
100
AcDbEntity
 67
     1
  8
0
100
AcDbBlockEnd
  0
ENDSEC
  0
SECTION
  2
ENTITIES
  0
LWPOLYLINE
  5
100
330
1F
100
AcDbEntity
  8
0
100
AcDbPolyline
 90
       24
 70
     1
 43
0.0
 10
880.4607688108861
 20
535.4321646248255
 10
880.732097810886
 20
535.3197846248256
 10
881.0232688108865
 20
535.2814216248256
 10
881.3144408108863
 20
535.3197846248256
 10
881.5857688108861
 20
535.4321646248255
 10
881.8187648108862
 20
535.6109196248256
 10
881.9975478108862
 20
535.8439216248256
 10
882.1099348108861
 20
536.1152416248256
 10
882.148268810886
 20
536.4064216248256
 10
882.1099348108861
 20
536.6976016248255
 10
881.9975478108862
 20
536.9689216248255
 10
881.8187648108862
 20
537.2019246248255
 10
881.5857688108861
 20
537.3807246248255
 10
881.3144408108859
 20
537.4931046248255
 10
881.0232688108861
 20
537.5314216248256
 10
880.7320978108862
 20
537.4931046248255
 10
880.4607688108861
 20
537.3807246248255
 10
880.2277738108863
 20
537.2019246248256
 10
880.0489908108863
 20
536.9689216248255
 10
879.936603810886
 20
536.6976016248258
 10
879.8982688108861
 20
536.4064216248257
 10
879.936603810886
 20
536.1152416248256
 10
880.0489908108863
 20
535.8439216248256
 10
880.2277738108863
 20
535.6109196248256
  0
LWPOLYLINE
  5
101
330
1F
100
AcDbEntity
  8
0
100
AcDbPolyline
 90
        4
 70
     1
 43
0.0
 10
890.0232688108864
 20
533.5314216248256
 10
897.523268810886
 20
533.5168984915489
 10
897.523268810886
 20
537.5314216248256
 10
890.0232688108861
 20
537.5314216248256
  0
LWPOLYLINE
  5
102
330
1F
100
AcDbEntity
  8
0
100
AcDbPolyline
 90
        4
 70
     1
 43
0.0
 10
872.0232688108861
 20
537.5314216248256
 10
864.5232688108864
 20
537.5314216248256
 10
864.5232688108864
 20
533.5314216248256
 10
872.0232688108861
 20
533.5314216248256
  0
LWPOLYLINE
  5
103
330
1F
100
AcDbEntity
  8
0
100
AcDbPolyline
 90
        4
 70
     1
 43
0.0
 10
893.0508319083378
 20
347.4039589716984
 10
871.6784231926325
 20
326.0317651884044
 10
874.5068360951812
 20
323.2033238415319
 10
895.8792448108862
 20
344.5755176248258
  0
LWPOLYLINE
  5
104
330
1F
100
AcDbEntity
  8
0
100
AcDbPolyline
 90
       15
 70
     1
 43
0.0
 10
860.7732688108864
 20
309.6515416248258
 10
860.7732688108864
 20
499.2814216248256
 10
858.5232688108863
 20
499.2814216248256
 10
858.5232688108863
 20
506.7814216248256
 10
860.7732688108866
 20
506.7814216248256
 10
860.7732688108866
 20
538.9939296248257
 10
870.1866238108864
 20
541.4689216248255
 10
881.0232688108861
 20
538.9939296248257
 10
891.148268810886
 20
541.4689216248255
 10
901.273268810886
 20
538.9939296248256
 10
901.273268810886
 20
506.7814216248256
 10
903.5232688108861
 20
506.7814216248256
 10
903.5232688108861
 20
499.2814216248256
 10
901.273268810886
 20
499.2814216248256
 10
901.273268810886
 20
309.6515416248258
  0
LWPOLYLINE
  5
105
330
1F
100
AcDbEntity
  8
0
100
AcDbPolyline
 90
        4
 70
     1
 43
0.0
 10
757.3632827098918
 20
476.1781188267053
 10
757.3632827098918
 20
472.1781188267052
 10
764.8632827098918
 20
472.1781188267052
 10
764.8632827098918
 20
476.1781188267053
  0
LWPOLYLINE
  5
106
330
1F
100
AcDbEntity
  8
0
100
AcDbPolyline
 90
        4
 70
     1
 43
0.0
 10
756.0945547098917
 20
485.6781188267052
 10
752.094554709892
 20
485.6781188267052
 10
752.094554709892
 20
478.1781188267053
 10
756.0945547098917
 20
478.1781188267053
  0
LINE
  5
107
330
1F
100
AcDbEntity
  8
0
100
AcDbLine
 10
764.8927127098919
 20
485.6781188267052
 30
0.0
 11
767.1427127098919
 21
485.6781188267052
 31
0.0
  0
LWPOLYLINE
  5
108
330
1F
100
AcDbEntity
  8
0
100
AcDbPolyline
 90
        5
 70
     1
 43
0.0
 10
767.1427127098919
 20
478.1781188267053
 10
767.1427127098919
 20
485.6781188267052
 10
763.1427127098918
 20
485.6781188267052
 10
763.1427127098918
 20
478.1781188267053
 10
764.8927127098919
 20
478.1781188267053
  0
LWPOLYLINE
  5
109
330
1F
100
AcDbEntity
  8
0
100
AcDbPolyline
 90
        4
 70
     1
 43
0.0
 10
877.273268810886
 20
311.9015416248258
 10
884.7732688108861
 20
311.9015416248258
 10
884.7732688108861
 20
315.9015416248258
 10
877.273268810886
 20
315.9015416248258
  0
LWPOLYLINE
  5
110
330
1F
100
AcDbEntity
  8
0
100
AcDbPolyline
 90
        4
 70
     1
 43
0.0
 10
759.0620614889949
 20
423.0340472328131
 10
759.0620614889901
 20
419.0340472328133
 10
784.5620614889948
 20
418.9485823847375
 10
784.5620614889948
 20
423.0340472328131
  0
LWPOLYLINE
  5
111
330
1F
100
AcDbEntity
  8
0
100
AcDbPolyline
 90
       24
 70
     1
 43
0.0
 10
771.3922204889947
 20
414.0935982328134
 10
771.6989944889949
 20
413.9890482328134
 10
772.0223784889947
 20
413.9674472328131
 10
772.3403404889948
 20
414.030297232813
 10
772.6312074889947
 20
414.1732482328132
 10
772.8751574889948
 20
414.3866222328133
 10
773.0555684889948
 20
414.6558722328133
 10
773.1601414889945
 20
414.962622232813
 10
773.1817534889949
 20
415.2860222328134
 10
773.1189334889948
 20
415.6039472328131
 10
772.9759574889949
 20
415.8948722328131
 10
772.7625704889949
 20
416.1388472328134
 10
772.4933164889944
 20
416.3191482328134
 10
772.1865444889947
 20
416.423848232813
 10
771.8631574889946
 20
416.4454482328133
 10
771.5451964889946
 20
416.3825972328133
 10
771.2543314889944
 20
416.2396472328131
 10
771.0103804889945
 20
416.0261972328133
 10
770.8299694889947
 20
415.7569472328133
 10
770.7253964889944
 20
415.4501972328133
 10
770.7037814889948
 20
415.126797232813
 10
770.7666034889946
 20
414.8088732328134
 10
770.9095804889946
 20
414.5179472328134
 10
771.1229674889948
 20
414.2740472328133
  0
LWPOLYLINE
  5
112
330
1F
100
AcDbEntity
  8
0
100
AcDbPolyline
 90
       15
 70
     1
 43
0.0
 10
749.3120614889948
 20
410.265222232813
 10
749.3120614889948
 20
417.7652222328131
 10
751.5620614889948
 20
417.7652222328131
 10
751.5620614889948
 20
425.2840472328133
 10
792.0620614889949
 20
425.2840472328133
 10
792.0620614889949
 20
417.7652222328131
 10
794.3120614889949
 20
417.7652222328131
 10
794.3120614889949
 20
410.265222232813
 10
792.0620614889949
 20
410.265222232813
 10
792.0620614889949
 20
402.7464732328134
 10
782.6487064889946
 20
405.2215472328131
 10
771.8120614889949
 20
402.7464732328134
 10
761.6870614889949
 20
405.2215472328131
 10
751.5620614889948
 20
402.7464732328134
 10
751.5620614889948
 20
410.265222232813
  0
LWPOLYLINE
  5
113
330
1F
100
AcDbEntity
  8
0
100
AcDbPolyline
 90
        4
 70
     1
 43
0.0
 10
762.8120614889949
 20
411.9590482328134
 10
755.3120614889949
 20
411.9590482328134
 10
755.3120614889929
 20
407.9590482328134
 10
762.8120614889949
 20
407.9322812457909
  0
LWPOLYLINE
  5
114
330
1F
100
AcDbEntity
  8
0
100
AcDbPolyline
 90
        4
 70
     1
 43
0.0
 10
780.8120614889949
 20
411.9590482328134
 10
788.3120614889949
 20
411.9590482328134
 10
788.3120614889949
 20
407.9590482328134
 10
780.8120614889949
 20
407.9590482328134
  0
LWPOLYLINE
  5
115
330
1F
100
AcDbEntity
  8
0
100
AcDbPolyline
 90
        8
 70
     1
 43
0.0
 10
894.5232688108861
 20
525.5314216248256
 10
894.5232688108861
 20
518.0314216248255
 10
896.773268810886
 20
518.0314216248255
 10
896.773268810886
 20
524.0314216248256
 10
899.0232688108864
 20
524.0314216248256
 10
899.0232688108864
 20
531.5314216248256
 10
896.773268810886
 20
531.5314216248256
 10
896.773268810886
 20
525.5314216248256
  0
LWPOLYLINE
  5
116
330
1F
100
AcDbEntity
  8
0
100
AcDbPolyline
 90
        6
 70
     1
 43
0.0
 10
772.3820477098919
 20
474.4281188267052
 10
772.3820477098919
 20
469.9281188267053
 10
749.8445547098917
 20
469.9281188267053
 10
749.8445547098917
 20
535.1781188267055
 10
772.3820477098919
 20
535.1781188267055
 10
772.3820477098919
 20
530.6781188267053
  0
LWPOLYLINE
  5
117
330
1F
100
AcDbEntity
  8
0
100
AcDbPolyline
 90
       24
 70
     1
 43
0.0
 10
754.3061997098924
 20
502.2619478267055
 10
754.344554709892
 20
502.5531188267053
 10
754.3061997098924
 20
502.8442908267051
 10
754.1938117098919
 20
503.1156188267052
 10
754.0150577098918
 20
503.3486148267052
 10
753.7820547098919
 20
503.5273978267054
 10
753.5106977098921
 20
503.6397848267054
 10
753.219554709892
 20
503.6781188267053
 10
752.9283747098918
 20
503.6397848267054
 10
752.6570547098921
 20
503.5273978267054
 10
752.424051709892
 20
503.3486148267052
 10
752.2452527098921
 20
503.1156188267052
 10
752.1328727098921
 20
502.8442908267051
 10
752.094554709892
 20
502.5531188267053
 10
752.1328727098921
 20
502.2619478267055
 10
752.2452527098921
 20
501.9906188267054
 10
752.424051709892
 20
501.7576238267055
 10
752.6570547098921
 20
501.5788408267054
 10
752.9283747098918
 20
501.4664538267052
 10
753.219554709892
 20
501.4281188267054
 10
753.5106977098921
 20
501.4664538267052
 10
753.7820547098919
 20
501.5788408267054
 10
754.0150577098918
 20
501.7576238267055
 10
754.1938117098919
 20
501.9906188267054
  0
LWPOLYLINE
  5
118
330
1F
100
AcDbEntity
  8
0
100
AcDbPolyline
 90
       16
 70
     1
 43
0.0
 10
752.3541196972604
 20
590.7670406582167
 10
752.3541196972604
 20
607.2670406582167
 10
776.7291196972604
 20
607.2670406582167
 10
776.7291196972604
 20
609.5170406582167
 10
780.4791196972604
 20
609.5170406582167
 10
780.4791196972604
 20
597.8920406582167
 10
772.9791196972604
 20
597.8920406582167
 10
772.9791196972604
 20
591.8920406582167
 10
780.4791196972604
 20
591.8920406582167
 10
780.4791196972604
 20
564.5170406582167
 10
776.7291196972604
 20
564.5170406582167
 10
776.7291196972604
 20
566.7670406582167
 10
752.3541196972604
 20
566.7670406582167
 10
752.3541196972604
 20
583.2670406582167
 10
750.1041196972606
 20
583.2670406582167
 10
750.1041196972606
 20
590.7670406582167
  0
LWPOLYLINE
  5
119
330
1F
100
AcDbEntity
  8
0
100
AcDbPolyline
 90
       24
 70
     1
 43
0.0
 10
886.920254495077
 20
688.7548558357632
 10
886.741468495077
 20
688.5218838357632
 10
886.6290814950771
 20
688.2505418357632
 10
886.5907464950771
 20
687.9593838357631
 10
886.6290814950771
 20
687.6681958357631
 10
886.741468495077
 20
687.396883835763
 10
886.920254495077
 20
687.1638808357634
 10
887.1532464950771
 20
686.9850968357631
 10
887.4245784950771
 20
686.872715835763
 10
887.7157464950769
 20
686.8343838357632
 10
888.006919495077
 20
686.872715835763
 10
888.278246495077
 20
686.9850968357631
 10
888.5112434950771
 20
687.1638808357634
 10
888.6900254950766
 20
687.396883835763
 10
888.802415495077
 20
687.6681958357631
 10
888.8407464950766
 20
687.9593838357631
 10
888.802415495077
 20
688.2505418357632
 10
888.6900254950766
 20
688.5218838357632
 10
888.5112434950771
 20
688.7548558357632
 10
888.278246495077
 20
688.9336638357632
 10
888.006919495077
 20
689.0460438357632
 10
887.7157464950769
 20
689.0843838357631
 10
887.4245784950771
 20
689.0460438357632
 10
887.1532464950771
 20
688.9336638357632
  0
LWPOLYLINE
  5
120
330
1F
100
AcDbEntity
  8
0
100
AcDbPolyline
 90
       24
 70
     1
 43
0.0
 10
920.369938495077
 20
857.0163368357633
 10
920.6029344950767
 20
856.837551835763
 10
920.8742624950771
 20
856.7251648357634
 10
921.1654344950767
 20
856.6868298357631
 10
921.4566054950767
 20
856.7251648357634
 10
921.7279344950767
 20
856.837551835763
 10
921.9609294950767
 20
857.0163368357633
 10
922.1397094950772
 20
857.2493298357631
 10
922.2520964950767
 20
857.5206608357632
 10
922.2904344950768
 20
857.8118298357631
 10
922.2520964950767
 20
858.103001835763
 10
922.1397094950772
 20
858.3743298357632
 10
921.9609294950767
 20
858.6073258357629
 10
921.7279344950767
 20
858.7861078357631
 10
921.4566054950767
 20
858.8984978357633
 10
921.1654344950767
 20
858.9368298357634
 10
920.8742624950771
 20
858.8984978357633
 10
920.6029344950767
 20
858.7861078357631
 10
920.369938495077
 20
858.6073258357629
 10
920.1911524950768
 20
858.3743298357632
 10
920.078765495077
 20
858.103001835763
 10
920.0404344950767
 20
857.8118298357631
 10
920.078765495077
 20
857.5206608357632
 10
920.1911524950768
 20
857.2493298357631
  0
LWPOLYLINE
  5
121
330
1F
100
AcDbEntity
  8
0
100
AcDbPolyline
 90
       16
 70
     1
 43
0.0
 10
925.6418874950767
 20
855.6368318357634
 10
923.3918874950767
 20
855.6368318357634
 10
923.3918874950767
 20
848.1368288357634
 10
901.2668874950767
 20
848.1368288357634
 10
901.2668874950767
 20
851.8868288357634
 10
889.2668874950768
 20
851.8868288357634
 10
889.2668874950768
 20
848.1368288357634
 10
867.1418874950767
 20
848.1368288357634
 10
867.1418874950767
 20
855.6368318357634
 10
864.8918874950767
 20
855.6368318357634
 10
864.8918874950767
 20
885.8618308357632
 10
867.1418874950767
 20
885.8618308357632
 10
867.1418874950767
 20
893.361830835763
 10
923.3918874950767
 20
893.361830835763
 10
923.3918874950767
 20
885.8618308357632
 10
925.6418874950767
 20
885.8618308357632
  0
LWPOLYLINE
  5
122
330
1F
100
AcDbEntity
  8
0
100
AcDbPolyline
 90
        4
 70
     1
 43
0.0
 10
921.8918874950768
 20
839.1743248357629
 10
914.3918874950767
 20
839.1743248357629
 10
914.3918874950767
 20
835.174324835763
 10
921.8918874950768
 20
835.174324835763
  0
LWPOLYLINE
  5
123
330
1F
100
AcDbEntity
  8
0
100
AcDbPolyline
 90
        6
 70
     1
 43
0.0
 10
925.6418874950767
 20
840.6368288357633
 10
930.1418874950767
 20
840.6368288357633
 10
930.1418874950767
 20
611.2944288357632
 10
864.8918874950767
 20
611.2944288357632
 10
864.8918874950767
 20
840.6368288357633
 10
869.3918874950767
 20
840.6368288357633
  0
LWPOLYLINE
  5
124
330
1F
100
AcDbEntity
  8
0
100
AcDbPolyline
 90
       24
 70
     1
 43
0.0
 10
921.1654344950767
 20
889.9868308357635
 10
921.4566054950767
 20
890.0251648357629
 10
921.7279344950767
 20
890.1375528357629
 10
921.9609294950767
 20
890.3163368357635
 10
922.1397094950772
 20
890.5493308357632
 10
922.2520964950767
 20
890.8206608357632
 10
922.2904344950768
 20
891.1118308357634
 10
922.2520964950767
 20
891.4030018357628
 10
922.1397094950772
 20
891.6743308357633
 10
921.9609294950767
 20
891.9073258357633
 10
921.7279344950767
 20
892.0861098357629
 10
921.4566054950767
 20
892.1984978357635
 10
921.1654344950767
 20
892.2368308357635
 10
920.8742624950771
 20
892.1984978357635
 10
920.6029344950767
 20
892.0861098357629
 10
920.369938495077
 20
891.9073258357633
 10
920.1911524950768
 20
891.6743308357633
 10
920.078765495077
 20
891.4030018357628
 10
920.0404344950767
 20
891.1118308357634
 10
920.078765495077
 20
890.8206608357632
 10
920.1911524950768
 20
890.5493308357632
 10
920.369938495077
 20
890.3163368357635
 10
920.6029344950767
 20
890.1375528357629
 10
920.8742624950771
 20
890.0251648357629
  0
LINE
  5
125
330
1F
100
AcDbEntity
  8
0
100
AcDbLine
 10
914.3918874950767
 20
836.9243248357634
 30
0.0
 11
914.3918874950767
 21
839.1743248357629
 31
0.0
  0
LINE
  5
126
330
1F
100
AcDbEntity
  8
0
100
AcDbLine
 10
921.8918874950768
 20
839.1743248357629
 30
0.0
 11
921.8918874950768
 21
836.9243248357634
 31
0.0
  0
LWPOLYLINE
  5
127
330
1F
100
AcDbEntity
  8
0
100
AcDbPolyline
 90
        5
 70
     1
 43
0.0
 10
767.1427127098919
 20
519.4281188267053
 10
767.1427127098919
 20
526.9281188267053
 10
764.8927127098919
 20
526.9281188267053
 10
763.1427127098918
 20
526.9281188267053
 10
763.1427127098918
 20
519.4281188267053
  0
LWPOLYLINE
  5
128
330
1F
100
AcDbEntity
  8
0
100
AcDbPolyline
 90
        5
 70
     1
 43
0.0
 10
764.8632827098918
 20
532.9281188267055
 10
757.3632827098918
 20
532.9281188267055
 10
757.3632827098918
 20
528.9281188267055
 10
764.8632827098918
 20
528.9281188267055
 10
764.8632827098918
 20
530.6781188267053
  0
LWPOLYLINE
  5
129
330
1F
100
AcDbEntity
  8
0
100
AcDbPolyline
 90
       19
 70
     1
 43
0.0
 10
780.4962503011384
 20
682.0889236148721
 10
780.4962503011384
 20
683.4692986148722
 10
784.2462503011383
 20
684.8495976148719
 10
784.5374213011382
 20
684.8879236148722
 10
784.8087503011384
 20
685.000347614872
 10
785.0417453011382
 20
685.1791476148719
 10
785.2205293011384
 20
685.4120976148721
 10
785.3329173011382
 20
685.6833726148722
 10
785.3712503011384
 20
685.9745976148722
 10
785.3329173011382
 20
686.265747614872
 10
785.2205293011384
 20
686.5370976148722
 10
785.0417453011382
 20
686.7701226148722
 10
784.8087503011384
 20
686.948847614872
 10
784.5374213011382
 20
687.0612726148723
 10
784.2462503011383
 20
687.0995976148722
 10
780.4962503011384
 20
687.0995976148722
 10
780.4962503011384
 20
704.588923614872
 10
787.9962503011384
 20
704.588923614872
 10
787.9962503011384
 20
682.0889236148721
  0
LWPOLYLINE
  5
130
330
1F
100
AcDbEntity
  8
0
100
AcDbPolyline
 90
        6
 70
     1
 43
0.0
 10
729.5518614093062
 20
463.8149604199886
 10
734.0518614093062
 20
463.8149604199886
 10
790.3018614093062
 20
463.8149604199886
 10
794.8018614093061
 20
463.8149604199886
 10
794.8018614093061
 20
432.9207344199886
 10
729.5518614093062
 20
432.9207344199886
  0
LWPOLYLINE
  5
131
330
1F
100
AcDbEntity
  8
0
100
AcDbPolyline
 90
        4
 70
     1
 43
0.0
 10
745.3018614093061
 20
458.3403356224681
 10
745.3018614093061
 20
462.3523854199884
 10
737.8018614093061
 20
462.3523854199884
 10
737.8018614093061
 20
458.3523854199884
  0
LWPOLYLINE
  5
132
330
1F
100
AcDbEntity
  8
0
100
AcDbPolyline
 90
       16
 70
     1
 43
0.0
 10
940.1994362084778
 20
376.0822122946322
 10
915.8244362084779
 20
376.0822122946322
 10
915.8244362084779
 20
373.8322122946322
 10
912.0744362084778
 20
373.8322122946322
 10
912.0744362084778
 20
401.2072122946321
 10
919.5744362084779
 20
401.2072122946321
 10
919.5744362084779
 20
407.2072122946321
 10
912.0744362084778
 20
407.2072122946321
 10
912.0744362084778
 20
418.8322122946321
 10
915.8244362084779
 20
418.8322122946321
 10
915.8244362084779
 20
416.5822122946321
 10
940.1994362084778
 20
416.5822122946321
 10
940.1994362084778
 20
400.0822122946321
 10
942.4494362084779
 20
400.0822122946321
 10
942.4494362084779
 20
392.5822122946322
 10
940.1994362084778
 20
392.5822122946322
  0
LINE
  5
133
330
1F
100
AcDbEntity
  8
0
100
AcDbLine
 10
757.3632827098918
 20
530.6781188267053
 30
0.0
 11
757.3632827098918
 21
532.9281188267055
 31
0.0
  0
LWPOLYLINE
  5
134
330
1F
100
AcDbEntity
  8
0
100
AcDbPolyline
 90
       16
 70
     1
 43
0.0
 10
914.3244362084779
 20
360.3322122946321
 10
914.3244362084779
 20
364.0822122946322
 10
921.8244362084778
 20
364.0822122946322
 10
921.8244362084778
 20
366.3322122946321
 10
929.3244362084779
 20
366.3322122946321
 10
929.3244362084779
 20
364.0822122946322
 10
970.5744362084779
 20
364.0822122946322
 10
970.5744362084779
 20
360.3322122946321
 10
972.8244362084778
 20
360.3322122946321
 10
972.8244362084778
 20
352.8322122946321
 10
970.5744362084779
 20
352.8322122946321
 10
970.5744362084779
 20
343.0822122946322
 10
914.3244362084779
 20
343.0822122946322
 10
914.3244362084779
 20
352.8322122946321
 10
912.0744362084778
 20
352.8322122946321
 10
912.0744362084778
 20
360.3322122946321
  0
LWPOLYLINE
  5
135
330
1F
100
AcDbEntity
  8
0
100
AcDbPolyline
 90
        4
 70
     1
 43
0.0
 10
756.1188394495267
 20
526.9281188267053
 10
752.094554709892
 20
526.9281188267053
 10
752.094554709892
 20
519.4281188267053
 10
756.0945547098917
 20
519.428118826708
  0
LINE
  5
136
330
1F
100
AcDbEntity
  8
0
100
AcDbLine
 10
767.1427127098919
 20
519.4281188267053
 30
0.0
 11
764.8927127098919
 21
519.4281188267053
 31
0.0
  0
LWPOLYLINE
  5
137
330
1F
100
AcDbEntity
  8
0
100
AcDbPolyline
 90
        4
 70
     1
 43
0.0
 10
786.5518614093062
 20
458.3523854199884
 10
786.5518614093062
 20
462.3523854199884
 10
779.0518614093062
 20
462.3523854199884
 10
779.0518614093062
 20
458.3523854199884
  0
LWPOLYLINE
  5
138
330
1F
100
AcDbEntity
  8
0
100
AcDbPolyline
 90
       16
 70
     1
 43
0.0
 10
912.0744362084778
 20
520.0822122946318
 10
914.3244362084779
 20
520.0822122946318
 10
914.3244362084779
 20
529.8322122946322
 10
955.5744362084778
 20
529.8322122946322
 10
955.5744362084778
 20
532.0822122946322
 10
963.0744362084779
 20
532.0822122946322
 10
963.0744362084779
 20
529.8322122946322
 10
970.5744362084779
 20
529.8322122946322
 10
970.5744362084779
 20
520.0822122946318
 10
972.8244362084778
 20
520.0822122946318
 10
972.8244362084778
 20
512.5822122946318
 10
970.5744362084779
 20
512.5822122946318
 10
970.5744362084779
 20
508.8322122946318
 10
914.3244362084779
 20
508.8322122946318
 10
914.3244362084779
 20
512.5822122946318
 10
912.0744362084778
 20
512.5822122946318
  0
LWPOLYLINE
  5
139
330
1F
100
AcDbEntity
  8
0
100
AcDbPolyline
 90
        5
 70
     1
 43
0.0
 10
939.8244362084779
 20
491.5072882946319
 10
939.8244362084779
 20
466.0822122946321
 10
940.5744362084778
 20
466.0822122946321
 10
940.5744362084778
 20
491.5072882946319
 10
940.1994362084778
 20
491.5072882946319
  0
LWPOLYLINE
  5
140
330
1F
100
AcDbEntity
  8
0
100
AcDbPolyline
 90
        4
 70
     1
 43
0.0
 10
765.9268614093061
 20
438.6023854199883
 10
758.4268614093062
 20
438.6023854199883
 10
758.4268614093062
 20
434.6023854199883
 10
765.9268614093061
 20
434.6023854199883
  0
LWPOLYLINE
  5
141
330
1F
100
AcDbEntity
  8
0
100
AcDbPolyline
 90
       12
 70
     1
 43
0.0
 10
943.9494362084779
 20
499.0822122946319
 10
968.3244362084778
 20
499.0822122946319
 10
968.3244362084778
 20
458.582212294632
 10
943.9494362084779
 20
458.582212294632
 10
943.9494362084779
 20
456.332212294632
 10
936.4494362084778
 20
456.332212294632
 10
936.4494362084778
 20
458.582212294632
 10
912.0744362084778
 20
458.582212294632
 10
912.0744362084778
 20
499.0822122946319
 10
936.4494362084778
 20
499.0822122946319
 10
936.4494362084778
 20
501.3322122946319
 10
943.9494362084779
 20
501.3322122946319
  0
LWPOLYLINE
  5
142
330
1F
100
AcDbEntity
  8
0
100
AcDbPolyline
 90
        4
 70
     1
 43
0.0
 10
947.0244352084778
 20
513.182287294632
 10
947.0244352084778
 20
522.3322122946322
 10
937.8744382084775
 20
522.3322122946322
 10
937.8744382084775
 20
513.182287294632
  0
LWPOLYLINE
  5
143
330
1F
100
AcDbEntity
  8
0
100
AcDbPolyline
 90
       52
 70
     1
 43
0.0
 10
812.9611491835222
 20
884.6173405514898
 10
828.711149183522
 20
884.6173405514898
 10
828.711149183522
 20
883.1173405514899
 10
827.7361501835216
 20
883.1173405514899
 10
827.7361501835216
 20
881.1173405514898
 10
828.711149183522
 20
881.1173405514898
 10
828.711149183522
 20
879.2174145514898
 10
830.9611491835221
 20
879.2174145514898
 10
830.9611491835221
 20
881.1122131053375
 10
831.9361491835648
 20
881.1173405514898
 10
831.9361491835218
 20
883.1173405514899
 10
830.9611491835221
 20
883.1173405514899
 10
830.9611491835221
 20
884.6173405514898
 10
846.7111491835222
 20
884.6173405514898
 10
846.7111491835222
 20
886.8673405514899
 10
854.2111491835221
 20
886.8673405514899
 10
854.2111491835221
 20
884.6173405514898
 10
857.9611491835221
 20
884.6173405514898
 10
857.9611491835221
 20
877.1173405514899
 10
860.2111491835222
 20
877.1173405514899
 10
860.2111491835222
 20
851.6173405514898
 10
857.9611491835221
 20
851.6173405514898
 10
857.9611491835221
 20
844.1173405514899
 10
854.2111491835221
 20
844.1173405514899
 10
854.2111491835221
 20
841.8673405514898
 10
846.7111491835222
 20
841.8673405514898
 10
846.7111491835222
 20
844.1173405514899
 10
830.9611491835221
 20
844.1173405514899
 10
830.9611491835221
 20
845.6173405514899
 10
831.9361491835218
 20
845.6173405514899
 10
831.9361491834875
 20
847.6173405514899
 10
830.9611491835221
 20
847.6225225700996
 10
830.9611491835221
 20
849.5174155514899
 10
828.711149183522
 20
849.5174155514899
 10
828.711149183522
 20
847.6123208801624
 10
827.7361501835159
 20
847.6173405514899
 10
827.7361501835216
 20
845.6173405514899
 10
828.711149183522
 20
845.6173405514899
 10
828.711149183522
 20
844.1173405514899
 10
812.9611491835222
 20
844.1173405514899
 10
812.9611491835222
 20
841.8673405514898
 10
805.461149183522
 20
841.8673405514898
 10
805.461149183522
 20
844.1173405514899
 10
801.7111491835221
 20
844.1173405514899
 10
801.7111491835221
 20
851.6173405514898
 10
799.4611491835221
 20
851.6173405514898
 10
799.4611491835221
 20
877.1173405514899
 10
801.7111491835221
 20
877.1173405514899
 10
801.7111491835221
 20
884.6173405514898
 10
805.461149183522
 20
884.6173405514898
 10
805.461149183522
 20
886.8673405514899
 10
812.9611491835222
 20
886.8673405514899
  0
LWPOLYLINE
  5
144
330
1F
100
AcDbEntity
  8
0
100
AcDbPolyline
 90
       24
 70
     1
 43
0.0
 10
893.8200688119071
 20
583.0328552879323
 10
893.3347828119071
 20
582.9689482879325
 10
892.882568811907
 20
582.7816352879323
 10
892.4942428119072
 20
582.4836752879323
 10
892.1962728119071
 20
582.0953552879323
 10
892.0089588119074
 20
581.6431282879323
 10
891.945068811907
 20
581.1578552879323
 10
892.0089588119074
 20
580.6725532879323
 10
892.1962728119071
 20
580.2203552879323
 10
892.4942428119072
 20
579.8320132879323
 10
892.882568811907
 20
579.5340532879325
 10
893.3347828119071
 20
579.3467332879324
 10
893.8200688119071
 20
579.2828552879322
 10
894.3053558119073
 20
579.3467332879324
 10
894.7575688119071
 20
579.5340532879325
 10
895.145895811907
 20
579.8320132879323
 10
895.4438658119071
 20
580.2203552879323
 10
895.6311798119072
 20
580.6725532879323
 10
895.695068811907
 20
581.1578552879323
 10
895.6311798119072
 20
581.6431282879323
 10
895.4438658119071
 20
582.0953552879323
 10
895.145895811907
 20
582.4836752879323
 10
894.7575688119071
 20
582.7816352879323
 10
894.3053558119073
 20
582.9689482879325
  0
LWPOLYLINE
  5
145
330
1F
100
AcDbEntity
  8
0
100
AcDbPolyline
 90
       24
 70
     1
 43
0.0
 10
868.4411534950767
 20
891.6743308357633
 10
868.3287654950767
 20
891.4030018357628
 10
868.2904324950767
 20
891.1118308357634
 10
868.3287654950767
 20
890.8206608357632
 10
868.4411534950767
 20
890.5493308357632
 10
868.6199374950769
 20
890.3163368357635
 10
868.8529324950771
 20
890.1375528357629
 10
869.1242604950769
 20
890.0251648357629
 10
869.4154324950767
 20
889.9868308357635
 10
869.7066034950767
 20
890.0251648357629
 10
869.9779324950768
 20
890.1375528357629
 10
870.210926495077
 20
890.3163368357635
 10
870.3897114950768
 20
890.5493308357632
 10
870.5020994950769
 20
890.8206608357632
 10
870.5404324950768
 20
891.1118308357634
 10
870.5020994950769
 20
891.4030018357628
 10
870.3897114950768
 20
891.6743308357633
 10
870.210926495077
 20
891.9073258357633
 10
869.9779324950768
 20
892.0861098357629
 10
869.7066034950767
 20
892.1984978357635
 10
869.4154324950767
 20
892.2368308357635
 10
869.1242604950769
 20
892.1984978357635
 10
868.8529324950771
 20
892.0861098357629
 10
868.6199374950769
 20
891.9073258357633
  0
LWPOLYLINE
  5
146
330
1F
100
AcDbEntity
  8
0
100
AcDbPolyline
 90
       36
 70
     1
 43
0.0
 10
865.6950688119071
 20
564.6578552879323
 10
863.4450688119072
 20
564.6578552879323
 10
863.4450688119072
 20
572.1578552879322
 10
865.6950688119071
 20
572.1578552879322
 10
865.6950688119071
 20
590.1578552879323
 10
863.4450688119072
 20
590.1578552879323
 10
863.4450688119072
 20
597.6578552879323
 10
865.6950688119071
 20
597.6578552879323
 10
865.6950688119071
 20
601.4078552879323
 10
869.445068811907
 20
601.4078552879323
 10
869.445068811907
 20
603.6578552879323
 10
876.945068811907
 20
603.6578552879323
 10
876.945068811907
 20
601.4078552879323
 10
910.6950688119072
 20
601.4078552879323
 10
910.6950688119072
 20
603.6578552879323
 10
918.1950688119071
 20
603.6578552879323
 10
918.1950688119071
 20
601.4078552879323
 10
921.9450688119071
 20
601.4078552879323
 10
921.9450688119071
 20
597.6578552879323
 10
924.1950688119072
 20
597.6578552879323
 10
924.1950688119072
 20
590.1578552879323
 10
921.9450688119071
 20
590.1578552879323
 10
921.9450688119071
 20
572.1578552879322
 10
924.1950688119072
 20
572.1578552879322
 10
924.1950688119072
 20
564.6578552879323
 10
921.9450688119071
 20
564.6578552879323
 10
921.9450688119071
 20
560.9078552879325
 10
918.1950688119071
 20
560.9078552879325
 10
918.1950688119071
 20
558.6578552879323
 10
910.6950688119072
 20
558.6578552879323
 10
910.6950688119072
 20
560.9078552879325
 10
876.945068811907
 20
560.9078552879325
 10
876.945068811907
 20
558.6578552879323
 10
869.445068811907
 20
558.6578552879323
 10
869.445068811907
 20
560.9078552879325
 10
865.6950688119071
 20
560.9078552879325
  0
LWPOLYLINE
  5
147
330
1F
100
AcDbEntity
  8
0
100
AcDbPolyline
 90
        4
 70
     1
 43
0.0
 10
923.9082900005195
 20
800.9243308357635
 10
927.891887495077
 20
800.9243308357635
 10
927.891887495077
 20
808.4243238357634
 10
923.8918874950767
 20
808.4243238357629
  0
LINE
  5
149
330
1F
100
AcDbEntity
  8
0
100
AcDbLine
 10
893.7668874950768
 20
613.5444288357632
 30
0.0
 11
893.7668874950768
 21
615.7944288357632
 31
0.0
  0
LINE
  5
150
330
1F
100
AcDbEntity
  8
0
100
AcDbLine
 10
901.2668874950767
 20
615.7944288357632
 30
0.0
 11
901.2668874950767
 21
613.5444288357632
 31
0.0
  0
LINE
  5
151
330
1F
100
AcDbEntity
  8
0
100
AcDbLine
 10
901.2668874950767
 20
613.5444288357632
 30
0.0
 11
893.7668874950768
 21
613.5444288357632
 31
0.0
  0
LWPOLYLINE
  5
152
330
1F
100
AcDbEntity
  8
0
100
AcDbPolyline
 90
        4
 70
     1
 43
0.0
 10
784.6041196972605
 20
617.0170406582167
 10
750.1041196972606
 20
617.0170406582167
 10
750.1041196972606
 20
632.0170626582168
 10
784.6041196972605
 20
632.0170626582168
  0
LWPOLYLINE
  5
153
330
1F
100
AcDbEntity
  8
0
100
AcDbPolyline
 90
       24
 70
     1
 43
0.0
 10
785.0698452765932
 20
525.6908761852221
 10
785.3610162765935
 20
525.6524761852221
 10
785.6521872765934
 20
525.6908761852221
 10
785.9235162765935
 20
525.8033011852222
 10
786.1565112765931
 20
525.9821021852221
 10
786.3352952765936
 20
526.2149761852224
 10
786.4476832765933
 20
526.4863261852219
 10
786.4860162765936
 20
526.7774761852222
 10
786.4476832765933
 20
527.068702185222
 10
786.3352952765936
 20
527.3399761852222
 10
786.1565112765934
 20
527.5730011852222
 10
785.9235162765935
 20
527.7518011852221
 10
785.6521872765934
 20
527.8642271852223
 10
785.3610162765935
 20
527.9024761852221
 10
785.0698452765932
 20
527.8642271852223
 10
784.7985162765935
 20
527.7518011852221
 10
784.5655212765932
 20
527.5730011852222
 10
784.3867382765933
 20
527.3399761852222
 10
784.2743502765934
 20
527.068702185222
 10
784.2360162765936
 20
526.7774761852221
 10
784.2743502765934
 20
526.4863261852221
 10
784.3867382765933
 20
526.2149761852224
 10
784.5655212765932
 20
525.9821021852221
 10
784.7985162765935
 20
525.8033011852222
  0
LWPOLYLINE
  5
154
330
1F
100
AcDbEntity
  8
0
100
AcDbPolyline
 90
       24
 70
     1
 43
0.0
 10
812.684295183522
 20
855.5405895514898
 10
812.207539183522
 20
854.9192895514895
 10
811.9078381835217
 20
854.1957645514898
 10
811.8056151835221
 20
853.4192895514898
 10
811.9078381835217
 20
852.6428155514899
 10
812.207539183522
 20
851.9192895514896
 10
812.684295183522
 20
851.2979155514894
 10
813.3056151835221
 20
850.8212155514897
 10
814.0291581835219
 20
850.5214395514894
 10
814.8056151835222
 20
850.4192895514895
 10
815.5820721835219
 20
850.5214395514894
 10
816.305614183522
 20
850.8212155514897
 10
816.9269361835219
 20
851.2979155514894
 10
817.4036911835221
 20
851.9192895514896
 10
817.7033921835217
 20
852.6428155514899
 10
817.8056141835218
 20
853.4192895514898
 10
817.7033921835217
 20
854.1957645514898
 10
817.4036911835221
 20
854.9192895514895
 10
816.9269361835219
 20
855.5405895514898
 10
816.305614183522
 20
856.0173645514899
 10
815.5820721835219
 20
856.3170655514895
 10
814.8056151835222
 20
856.4192895514899
 10
814.0291581835219
 20
856.3170655514895
 10
813.3056151835221
 20
856.0173645514899
  0
LWPOLYLINE
  5
155
330
1F
100
AcDbEntity
  8
0
100
AcDbPolyline
 90
       60
 70
     1
 43
0.0
 10
734.9821511823129
 20
342.7242389737514
 10
736.8821521823124
 20
342.7242389737514
 10
736.8821521823124
 20
344.9742389737514
 10
734.9839708412669
 20
344.9742389737514
 10
734.9821511823129
 20
345.9493129737514
 10
732.9821511823129
 20
345.9493129737514
 10
732.9821511823129
 20
344.9742389737514
 10
731.4821511823129
 20
344.9742389737514
 10
731.4821511823129
 20
352.8492389737516
 10
729.2321511823129
 20
352.8492389737516
 10
729.2321511823129
 20
360.3492389737517
 10
731.4821511823129
 20
360.3492389737517
 10
731.4821511823129
 20
364.0992389737517
 10
735.2321511823129
 20
364.0992389737517
 10
735.2321511823129
 20
366.3492389737513
 10
742.7321511823129
 20
366.3492389737513
 10
742.7321511823129
 20
364.0992389737517
 10
776.4821511823129
 20
364.0992389737517
 10
776.4821511823129
 20
366.3492389737513
 10
783.9821511823129
 20
366.3492389737513
 10
783.9821511823129
 20
364.0992389737517
 10
787.7321511823129
 20
364.0992389737517
 10
787.7321511823129
 20
360.3492389737517
 10
789.9821511823128
 20
360.3492389737517
 10
789.9821511823128
 20
352.8492389737516
 10
787.7321511823129
 20
352.8492389737516
 10
787.7321511823129
 20
344.9742389737514
 10
786.2321511823129
 20
344.9742389737514
 10
786.2321511823129
 20
345.9493129737514
 10
784.2321511823129
 20
345.9493129737516
 10
784.2303326983016
 20
344.9742389737514
 10
782.3321541823129
 20
344.9742389737514
 10
782.3321541823129
 20
342.7242389737514
 10
784.2339480236205
 20
342.7242389737514
 10
784.2321511823129
 20
341.7493139737513
 10
786.2321511823129
 20
341.7493139737517
 10
786.2321511823129
 20
342.7242389737514
 10
787.7321511823129
 20
342.7242389737514
 10
787.7321511823129
 20
334.8492389737514
 10
789.9821511823128
 20
334.8492389737514
 10
789.9821511823128
 20
327.3492389737514
 10
787.7321511823129
 20
327.3492389737514
 10
787.7321511823129
 20
323.5992389737514
 10
783.9821511823129
 20
323.5992389737514
 10
783.9821511823129
 20
321.3492389737514
 10
776.4821511823129
 20
321.3492389737514
 10
776.4821511823129
 20
323.5992389737514
 10
742.7321511823129
 20
323.5992389737514
 10
742.7321511823129
 20
321.3492389737514
 10
735.2321511823129
 20
321.3492389737514
 10
735.2321511823129
 20
323.5992389737514
 10
731.4821511823129
 20
323.5992389737514
 10
731.4821511823129
 20
327.3492389737514
 10
729.2321511823129
 20
327.3492389737514
 10
729.2321511823129
 20
334.8492389737514
 10
731.4821511823129
 20
334.8492389737514
 10
731.4821511823129
 20
342.7242389737514
 10
732.9821511823129
 20
342.7242389737514
 10
732.9821511823129
 20
341.7493139737517
 10
734.9821511823129
 20
341.7493139737517
  0
LWPOLYLINE
  5
156
330
1F
100
AcDbEntity
  8
0
100
AcDbPolyline
 90
       19
 70
     1
 43
0.0
 10
781.6110162765935
 20
530.3918761852221
 10
789.1110162765935
 20
530.3918761852221
 10
789.1110162765935
 20
512.9024761852222
 10
785.3610162765935
 20
512.9024761852222
 10
785.0698452765932
 20
512.8642271852221
 10
784.7985162765935
 20
512.7518011852221
 10
784.5655212765932
 20
512.5730011852224
 10
784.3867382765933
 20
512.3399761852224
 10
784.2743502765934
 20
512.0687021852222
 10
784.2360162765936
 20
511.7774761852223
 10
784.2743502765934
 20
511.4863261852222
 10
784.3867382765933
 20
511.2149761852221
 10
784.5655212765932
 20
510.9821021852224
 10
784.7985162765935
 20
510.8033011852223
 10
785.0698452765932
 20
510.6908761852221
 10
785.3610162765935
 20
510.6524761852224
 10
789.1110162765935
 20
509.2722511852223
 10
789.1110162765935
 20
507.8918761852223
 10
781.6110162765935
 20
507.8918761852223
  0
LINE
  5
157
330
1F
100
AcDbEntity
  8
0
100
AcDbLine
 10
780.8120614889949
 20
407.9590482328134
 30
0.0
 11
780.8120614889949
 21
410.2090482328134
 31
0.0
  0
LWPOLYLINE
  5
158
330
1F
100
AcDbEntity
  8
0
100
AcDbPolyline
 90
       24
 70
     1
 43
0.0
 10
761.2309481823124
 20
342.9117389737514
 10
761.4182621823124
 20
343.3639879737514
 10
761.4821511823129
 20
343.8492389737514
 10
761.4182621823124
 20
344.3345639737515
 10
761.2309481823124
 20
344.7867389737514
 10
760.9329781823126
 20
345.1750879737516
 10
760.5446511823129
 20
345.4731379737514
 10
760.0924381823124
 20
345.6604129737514
 10
759.6071511823129
 20
345.7242389737516
 10
759.1218651823126
 20
345.6604129737514
 10
758.6696511823129
 20
345.4731379737514
 10
758.2813251823129
 20
345.1750879737516
 10
757.9833551823126
 20
344.7867389737514
 10
757.7960411823128
 20
344.3345639737515
 10
757.7321511823129
 20
343.8492389737514
 10
757.7960411823128
 20
343.3639879737514
 10
757.9833551823126
 20
342.9117389737514
 10
758.2813251823129
 20
342.5234629737515
 10
758.6696511823129
 20
342.2254879737517
 10
759.1218651823126
 20
342.0381389737515
 10
759.6071511823129
 20
341.9742389737514
 10
760.0924381823124
 20
342.0381389737515
 10
760.5446511823129
 20
342.2254879737517
 10
760.9329781823126
 20
342.5234629737515
  0
LWPOLYLINE
  5
159
330
1F
100
AcDbEntity
  8
0
100
AcDbPolyline
 90
       24
 70
     1
 43
0.0
 10
783.1595843011382
 20
700.6833726148722
 10
783.2719723011382
 20
700.4120976148722
 10
783.4507553011381
 20
700.179147614872
 10
783.6837503011383
 20
700.0003476148719
 10
783.9550793011381
 20
699.8879236148722
 10
784.2462503011383
 20
699.849597614872
 10
784.5374213011382
 20
699.8879236148722
 10
784.8087503011384
 20
700.0003476148719
 10
785.0417453011382
 20
700.179147614872
 10
785.2205293011384
 20
700.4120976148722
 10
785.3329173011382
 20
700.6833726148722
 10
785.3712503011384
 20
700.9745976148723
 10
785.3329173011382
 20
701.265747614872
 10
785.2205293011384
 20
701.5370976148722
 10
785.0417453011382
 20
701.7701226148722
 10
784.8087503011384
 20
701.9488476148719
 10
784.5374213011382
 20
702.0612726148723
 10
784.2462503011383
 20
702.0995976148721
 10
783.9550793011381
 20
702.0612726148723
 10
783.6837503011383
 20
701.9488476148719
 10
783.4507553011381
 20
701.7701226148722
 10
783.2719723011382
 20
701.5370976148722
 10
783.1595843011382
 20
701.265747614872
 10
783.1212503011384
 20
700.9745976148723
  0
LWPOLYLINE
  5
160
330
1F
100
AcDbEntity
  8
0
100
AcDbPolyline
 90
        4
 70
     1
 43
0.0
 10
746.4821511823129
 20
357.8492389737517
 10
746.4821511823129
 20
361.8492389737517
 10
738.9821511823129
 20
361.8492389737517
 10
738.9821511823129
 20
357.8492389737517
  0
LINE
  5
161
330
1F
100
AcDbEntity
  8
0
100
AcDbLine
 10
746.4821511823129
 20
361.8492389737517
 30
0.0
 11
746.4821511823129
 21
359.5992389737517
 31
0.0
  0
LINE
  5
162
330
1F
100
AcDbEntity
  8
0
100
AcDbLine
 10
738.9821511823129
 20
359.5992389737517
 30
0.0
 11
738.9821511823129
 21
361.8492389737517
 31
0.0
  0
LINE
  5
163
330
1F
100
AcDbEntity
  8
0
100
AcDbLine
 10
788.3120614889949
 20
410.2090482328134
 30
0.0
 11
788.3120614889949
 21
407.9590482328134
 31
0.0
  0
LWPOLYLINE
  5
164
330
1F
100
AcDbEntity
  8
0
100
AcDbPolyline
 90
        4
 70
     1
 43
0.0
 10
780.2321511823129
 20
355.5992389737517
 10
772.7321511823129
 20
355.5992389737517
 10
772.7321511823129
 20
359.5992389737517
 10
780.2321511823129
 20
359.5992389737517
  0
LINE
  5
165
330
1F
100
AcDbEntity
  8
0
100
AcDbLine
 10
780.2321511823129
 20
359.5992389737517
 30
0.0
 11
780.2321511823129
 21
357.3492389737517
 31
0.0
  0
LINE
  5
166
330
1F
100
AcDbEntity
  8
0
100
AcDbLine
 10
772.7321511823129
 20
357.3492389737517
 30
0.0
 11
772.7321511823129
 21
359.5992389737517
 31
0.0
  0
LWPOLYLINE
  5
167
330
1F
100
AcDbEntity
  8
0
100
AcDbPolyline
 90
       24
 70
     1
 43
0.0
 10
756.6662096972605
 20
624.5170406582165
 10
756.7045426972605
 20
624.2258976582164
 10
756.8169316972604
 20
623.9545406582167
 10
756.9957136972606
 20
623.7215376582168
 10
757.2287096972604
 20
623.5427836582164
 10
757.5000376972606
 20
623.4303956582166
 10
757.7912096972608
 20
623.3920406582167
 10
758.0823796972605
 20
623.4303956582166
 10
758.3537096972608
 20
623.5427836582164
 10
758.5867036972604
 20
623.7215376582168
 10
758.7654886972606
 20
623.9545406582167
 10
758.8778756972605
 20
624.2258976582164
 10
758.9162096972607
 20
624.5170406582165
 10
758.8778756972605
 20
624.8082206582168
 10
758.7654886972606
 20
625.0795406582167
 10
758.5867036972604
 20
625.3125436582164
 10
758.3537096972608
 20
625.4913426582167
 10
758.0823796972605
 20
625.6037226582166
 10
757.7912096972608
 20
625.6420406582167
 10
757.5000376972606
 20
625.6037226582166
 10
757.2287096972604
 20
625.4913426582167
 10
756.9957136972606
 20
625.3125436582164
 10
756.8169316972604
 20
625.0795406582167
 10
756.7045426972605
 20
624.8082206582168
  0
LINE
  5
168
330
1F
100
AcDbEntity
  8
0
100
AcDbLine
 10
873.092629643907
 20
324.617544514968
 30
0.0
 11
894.4650383596119
 21
345.9897382982621
 31
0.0
  0
LWPOLYLINE
  5
169
330
1F
100
AcDbEntity
  8
0
100
AcDbPolyline
 90
       24
 70
     1
 43
0.0
 10
907.6330594950768
 20
686.8875288357631
 10
907.904386495077
 20
686.9999308357632
 10
908.1373824950768
 20
687.1787088357632
 10
908.3161674950771
 20
687.4116888357632
 10
908.4285544950766
 20
687.6830308357631
 10
908.4668864950767
 20
687.9741888357631
 10
908.4285544950766
 20
688.265375835763
 10
908.3161674950771
 20
688.5366888357633
 10
908.1373824950768
 20
688.7696908357632
 10
907.904386495077
 20
688.9484688357633
 10
907.6330594950768
 20
689.0608718357633
 10
907.341886495077
 20
689.0991888357632
 10
907.050714495077
 20
689.0608718357633
 10
906.779386495077
 20
688.9484688357633
 10
906.5463904950767
 20
688.7696908357632
 10
906.3676104950767
 20
688.5366888357633
 10
906.2552184950767
 20
688.265375835763
 10
906.216886495077
 20
687.9741888357631
 10
906.2552184950767
 20
687.6830308357631
 10
906.3676104950767
 20
687.4116888357632
 10
906.5463904950767
 20
687.1787088357632
 10
906.779386495077
 20
686.9999308357632
 10
907.050714495077
 20
686.8875288357631
 10
907.341886495077
 20
686.8491888357632
  0
LWPOLYLINE
  5
170
330
1F
100
AcDbEntity
  8
0
100
AcDbPolyline
 90
        4
 70
     1
 43
0.0
 10
871.1255247124176
 20
800.9243308357635
 10
871.1418874950767
 20
808.4243238357634
 10
867.1418874950767
 20
808.4243238357634
 10
867.1418874950767
 20
800.9243308357635
  0
LWPOLYLINE
  5
171
330
1F
100
AcDbEntity
  8
0
100
AcDbPolyline
 90
       24
 70
     1
 43
0.0
 10
868.8529324950771
 20
856.837551835763
 10
869.1242604950769
 20
856.7251648357634
 10
869.4154324950767
 20
856.6868298357631
 10
869.7066034950767
 20
856.7251648357634
 10
869.9779324950768
 20
856.837551835763
 10
870.210926495077
 20
857.0163368357633
 10
870.3897114950768
 20
857.2493298357631
 10
870.5020994950769
 20
857.5206608357632
 10
870.5404324950768
 20
857.8118298357631
 10
870.5020994950769
 20
858.103001835763
 10
870.3897114950768
 20
858.3743298357632
 10
870.210926495077
 20
858.6073258357629
 10
869.9779324950768
 20
858.7861078357631
 10
869.7066034950767
 20
858.8984978357633
 10
869.4154324950767
 20
858.9368298357634
 10
869.1242604950769
 20
858.8984978357633
 10
868.8529324950771
 20
858.7861078357631
 10
868.6199374950769
 20
858.6073258357629
 10
868.4411534950767
 20
858.3743298357632
 10
868.3287654950767
 20
858.103001835763
 10
868.2904324950767
 20
857.8118298357631
 10
868.3287654950767
 20
857.5206608357632
 10
868.4411534950767
 20
857.2493298357631
 10
868.6199374950769
 20
857.0163368357633
  0
LWPOLYLINE
  5
172
330
1F
100
AcDbEntity
  8
0
100
AcDbPolyline
 90
       24
 70
     1
 43
0.0
 10
775.9862236972606
 20
623.9545406582167
 10
776.1650066972605
 20
623.7215376582168
 10
776.3980026972606
 20
623.5427836582164
 10
776.6693296972605
 20
623.4303956582166
 10
776.9605026972606
 20
623.3920406582167
 10
777.2516746972605
 20
623.4303956582166
 10
777.5230026972606
 20
623.5427836582164
 10
777.7559986972607
 20
623.7215376582168
 10
777.9347806972606
 20
623.9545406582167
 10
778.0471676972604
 20
624.2258976582164
 10
778.0855026972606
 20
624.5170406582165
 10
778.0471676972604
 20
624.8082206582168
 10
777.9347806972606
 20
625.0795406582167
 10
777.7559986972607
 20
625.3125436582164
 10
777.5230026972606
 20
625.4913426582167
 10
777.2516746972605
 20
625.6037226582166
 10
776.9605026972606
 20
625.6420406582167
 10
776.6693296972605
 20
625.6037226582166
 10
776.3980026972606
 20
625.4913426582167
 10
776.1650066972605
 20
625.3125436582164
 10
775.9862236972606
 20
625.0795406582167
 10
775.8738346972607
 20
624.8082206582168
 10
775.8355026972606
 20
624.5170406582165
 10
775.8738346972607
 20
624.2258976582164
  0
LINE
  5
173
330
1F
100
AcDbEntity
  8
0
100
AcDbLine
 10
873.1418874950767
 20
836.9243248357634
 30
0.0
 11
873.1418874950767
 21
839.1743248357629
 31
0.0
  0
LWPOLYLINE
  5
174
330
1F
100
AcDbEntity
  8
0
100
AcDbPolyline
 90
        4
 70
     1
 43
0.0
 10
901.2668874950767
 20
810.5493238357635
 10
901.2668874950767
 20
814.5493238357634
 10
893.7668874950768
 20
814.5493238357634
 10
893.7668874950768
 20
810.5493238357635
  0
LINE
  5
175
330
1F
100
AcDbEntity
  8
0
100
AcDbLine
 10
880.6418874950766
 20
839.1743248357629
 30
0.0
 11
880.6418874950766
 21
836.9243248357634
 31
0.0
  0
LWPOLYLINE
  5
176
330
1F
100
AcDbEntity
  8
0
100
AcDbPolyline
 90
        4
 70
     1
 43
0.0
 10
880.6418874950766
 20
839.1743248357629
 10
873.1418874950767
 20
839.1743248357629
 10
873.1418874950767
 20
835.174324835763
 10
880.6418874950766
 20
835.174324835763
  0
LWPOLYLINE
  5
177
330
1F
100
AcDbEntity
  8
0
100
AcDbPolyline
 90
       24
 70
     1
 43
0.0
 10
771.3147739473758
 20
389.2429006362686
 10
771.4577509473761
 20
388.9519746362686
 10
771.671137947376
 20
388.7080746362685
 10
771.940390947376
 20
388.5276256362686
 10
772.2471649473761
 20
388.4230756362685
 10
772.5705489473762
 20
388.4014746362685
 10
772.888510947376
 20
388.4643246362685
 10
773.1793779473762
 20
388.6072756362687
 10
773.423327947376
 20
388.8206496362685
 10
773.6037389473761
 20
389.0898996362686
 10
773.7083119473759
 20
389.3966496362685
 10
773.7299239473761
 20
389.7200496362685
 10
773.667103947376
 20
390.0379746362686
 10
773.5241279473762
 20
390.3288996362687
 10
773.3107409473761
 20
390.5728746362687
 10
773.0414869473761
 20
390.7531756362686
 10
772.7347149473762
 20
390.8578756362686
 10
772.4113279473761
 20
390.8794756362686
 10
772.0933669473759
 20
390.8166246362686
 10
771.8025019473757
 20
390.6736746362687
 10
771.558550947376
 20
390.4602246362687
 10
771.3781399473762
 20
390.1909746362687
 10
771.2735669473761
 20
389.8842246362685
 10
771.251951947376
 20
389.5608246362685
  0
LWPOLYLINE
  5
178
330
1F
100
AcDbEntity
  8
0
100
AcDbPolyline
 90
        4
 70
     1
 43
0.0
 10
785.1102319473762
 20
393.3826097881928
 10
785.1102319473762
 20
397.4680746362687
 10
759.6102319473757
 20
397.4680746362687
 10
759.6102319473716
 20
393.4680746362685
  0
LWPOLYLINE
  5
179
330
1F
100
AcDbEntity
  8
0
100
AcDbPolyline
 90
       15
 70
     1
 43
0.0
 10
792.6102319473762
 20
377.1805006362686
 10
783.196876947376
 20
379.6555746362687
 10
772.3602319473757
 20
377.1805006362686
 10
762.2352319473757
 20
379.6555746362687
 10
752.1102319473757
 20
377.1805006362686
 10
752.1102319473757
 20
384.6992496362685
 10
749.8602319473757
 20
384.6992496362685
 10
749.8602319473757
 20
392.1992496362685
 10
752.1102319473757
 20
392.1992496362685
 10
752.1102319473757
 20
399.7180746362685
 10
792.6102319473762
 20
399.7180746362685
 10
792.6102319473762
 20
392.1992496362685
 10
794.8602319473757
 20
392.1992496362685
 10
794.8602319473757
 20
384.6992496362685
 10
792.6102319473762
 20
384.6992496362685
  0
LINE
  5
180
330
1F
100
AcDbEntity
  8
0
100
AcDbLine
 10
741.8171645391225
 20
409.7946552118696
 30
0.0
 11
741.8171645391225
 21
407.5446552118696
 31
0.0
  0
LWPOLYLINE
  5
181
330
1F
100
AcDbEntity
  8
0
100
AcDbPolyline
 90
        4
 70
     1
 43
0.0
 10
788.8602319473761
 20
386.3930756362686
 10
788.8602319473761
 20
382.3930756362686
 10
781.3602319473761
 20
382.3930756362686
 10
781.3602319473761
 20
386.3930756362686
  0
LWPOLYLINE
  5
182
330
1F
100
AcDbEntity
  8
0
100
AcDbPolyline
 90
        4
 70
     1
 43
0.0
 10
763.3602319473757
 20
382.3663086492464
 10
763.3602319473757
 20
386.3930756362686
 10
755.8602319473757
 20
386.3930756362686
 10
755.8602319473743
 20
382.3930756362686
  0
LINE
  5
183
330
1F
100
AcDbEntity
  8
0
100
AcDbLine
 10
781.3602319473761
 20
382.3930756362686
 30
0.0
 11
781.3602319473761
 21
384.6430756362686
 31
0.0
  0
LWPOLYLINE
  5
184
330
1F
100
AcDbEntity
  8
0
100
AcDbPolyline
 90
        8
 70
     1
 43
0.0
 10
899.0232688108864
 20
524.0314216248256
 10
899.0232688108864
 20
531.5314216248256
 10
896.773268810886
 20
531.5314216248256
 10
896.773268810886
 20
525.5314216248256
 10
894.5232688108861
 20
525.5314216248256
 10
894.5232688108861
 20
518.0314216248255
 10
896.773268810886
 20
518.0314216248255
 10
896.773268810886
 20
524.0314216248256
  0
LWPOLYLINE
  5
185
330
1F
100
AcDbEntity
  8
0
100
AcDbPolyline
 90
       15
 70
     1
 43
0.0
 10
858.5232688108863
 20
506.7814216248256
 10
860.7732688108866
 20
506.7814216248256
 10
860.7732688108866
 20
538.9939296248257
 10
870.1866238108864
 20
541.4689216248255
 10
881.0232688108861
 20
538.9939296248257
 10
891.148268810886
 20
541.4689216248255
 10
901.273268810886
 20
538.9939296248256
 10
901.273268810886
 20
506.7814216248256
 10
903.5232688108861
 20
506.7814216248256
 10
903.5232688108861
 20
499.2814216248256
 10
901.273268810886
 20
499.2814216248256
 10
901.273268810886
 20
309.6515416248258
 10
860.7732688108864
 20
309.6515416248258
 10
860.7732688108864
 20
499.2814216248256
 10
858.5232688108863
 20
499.2814216248256
  0
LWPOLYLINE
  5
186
330
1F
100
AcDbEntity
  8
0
100
AcDbPolyline
 90
        4
 70
     1
 43
0.0
 10
874.5068360951812
 20
323.2033238415319
 10
895.8792448108862
 20
344.5755176248258
 10
893.0508319083378
 20
347.4039589716984
 10
871.6784231926325
 20
326.0317651884044
  0
LWPOLYLINE
  5
187
330
1F
100
AcDbEntity
  8
0
100
AcDbPolyline
 90
       24
 70
     1
 43
0.0
 10
880.732097810886
 20
535.3197846248256
 10
881.0232688108865
 20
535.2814216248256
 10
881.3144408108863
 20
535.3197846248256
 10
881.5857688108861
 20
535.4321646248255
 10
881.8187648108862
 20
535.6109196248256
 10
881.9975478108862
 20
535.8439216248256
 10
882.1099348108861
 20
536.1152416248256
 10
882.148268810886
 20
536.4064216248256
 10
882.1099348108861
 20
536.6976016248255
 10
881.9975478108862
 20
536.9689216248255
 10
881.8187648108862
 20
537.2019246248255
 10
881.5857688108861
 20
537.3807246248255
 10
881.3144408108859
 20
537.4931046248255
 10
881.0232688108861
 20
537.5314216248256
 10
880.7320978108862
 20
537.4931046248255
 10
880.4607688108861
 20
537.3807246248255
 10
880.2277738108863
 20
537.2019246248256
 10
880.0489908108863
 20
536.9689216248255
 10
879.936603810886
 20
536.6976016248258
 10
879.8982688108861
 20
536.4064216248257
 10
879.936603810886
 20
536.1152416248256
 10
880.0489908108863
 20
535.8439216248256
 10
880.2277738108863
 20
535.6109196248256
 10
880.4607688108861
 20
535.4321646248255
  0
LWPOLYLINE
  5
188
330
1F
100
AcDbEntity
  8
0
100
AcDbPolyline
 90
        4
 70
     1
 43
0.0
 10
890.0232688108861
 20
537.5314216248256
 10
890.0232688108864
 20
533.5314216248256
 10
897.523268810886
 20
533.5168984915489
 10
897.523268810886
 20
537.5314216248256
  0
LWPOLYLINE
  5
189
330
1F
100
AcDbEntity
  8
0
100
AcDbPolyline
 90
        4
 70
     1
 43
0.0
 10
872.0232688108861
 20
537.5314216248256
 10
864.5232688108864
 20
537.5314216248256
 10
864.5232688108864
 20
533.5314216248256
 10
872.0232688108861
 20
533.5314216248256
  0
LWPOLYLINE
  5
190
330
1F
100
AcDbEntity
  8
0
100
AcDbPolyline
 90
        4
 70
     1
 43
0.0
 10
877.273268810886
 20
315.9015416248258
 10
877.273268810886
 20
311.9015416248258
 10
884.7732688108861
 20
311.9015416248258
 10
884.7732688108861
 20
315.9015416248258
  0
LINE
  5
191
330
1F
100
AcDbEntity
  8
0
100
AcDbLine
 10
873.092629643907
 20
324.617544514968
 30
0.0
 11
894.4650383596119
 21
345.9897382982621
 31
0.0
  0
LWPOLYLINE
  5
192
330
1F
100
AcDbEntity
  8
0
100
AcDbPolyline
 90
        8
 70
     1
 43
0.0
 10
839.4172060114728
 20
525.0485100558583
 10
839.4172060114728
 20
532.5485100558583
 10
837.1672060114729
 20
532.5485100558583
 10
837.1672060114729
 20
526.5485100558582
 10
834.9172060114728
 20
526.5485100558582
 10
834.9172060114728
 20
519.0485100558582
 10
837.1672060114729
 20
519.0485100558582
 10
837.1672060114729
 20
525.0485100558583
  0
LWPOLYLINE
  5
193
330
1F
100
AcDbEntity
  8
0
100
AcDbPolyline
 90
       15
 70
     1
 43
0.0
 10
798.9172060114729
 20
507.7985100558582
 10
801.1672060114731
 20
507.7985100558582
 10
801.1672060114731
 20
540.0110180558583
 10
810.580561011473
 20
542.4860100558582
 10
821.4172060114728
 20
540.0110180558583
 10
831.5422060114729
 20
542.4860100558581
 10
841.6672060114729
 20
540.0110180558582
 10
841.6672060114729
 20
507.7985100558582
 10
843.9172060114728
 20
507.7985100558582
 10
843.9172060114728
 20
500.2985100558584
 10
841.6672060114729
 20
500.2985100558584
 10
841.6672060114729
 20
310.6686300558589
 10
801.1672060114728
 20
310.6686300558589
 10
801.1672060114728
 20
500.2985100558584
 10
798.9172060114729
 20
500.2985100558584
  0
LWPOLYLINE
  5
194
330
1F
100
AcDbEntity
  8
0
100
AcDbPolyline
 90
        4
 70
     1
 43
0.0
 10
814.9007732957681
 20
324.2204122725649
 10
836.273182011473
 20
345.5926060558588
 10
833.4447691089245
 20
348.4210474027314
 10
812.0723603932193
 20
327.0488536194374
  0
LWPOLYLINE
  5
195
330
1F
100
AcDbEntity
  8
0
100
AcDbPolyline
 90
       24
 70
     1
 43
0.0
 10
821.1260350114727
 20
536.3368730558581
 10
821.4172060114728
 20
536.2985100558583
 10
821.708378011473
 20
536.3368730558582
 10
821.9797060114728
 20
536.4492530558582
 10
822.2127020114728
 20
536.6280080558583
 10
822.3914850114727
 20
536.8610100558583
 10
822.5038720114728
 20
537.1323300558582
 10
822.5422060114727
 20
537.4235100558585
 10
822.5038720114728
 20
537.7146900558582
 10
822.3914850114727
 20
537.9860100558582
 10
822.2127020114728
 20
538.2190130558582
 10
821.9797060114728
 20
538.3978130558582
 10
821.7083780114727
 20
538.5101930558582
 10
821.4172060114728
 20
538.5485100558583
 10
821.1260350114729
 20
538.5101930558582
 10
820.8547060114728
 20
538.3978130558582
 10
820.6217110114728
 20
538.2190130558583
 10
820.442928011473
 20
537.9860100558582
 10
820.3305410114728
 20
537.7146900558585
 10
820.2922060114728
 20
537.4235100558585
 10
820.3305410114728
 20
537.1323300558582
 10
820.442928011473
 20
536.8610100558583
 10
820.621711011473
 20
536.6280080558583
 10
820.8547060114728
 20
536.4492530558582
  0
LWPOLYLINE
  5
196
330
1F
100
AcDbEntity
  8
0
100
AcDbPolyline
 90
        4
 70
     1
 43
0.0
 10
830.4172060114728
 20
538.5485100558583
 10
830.4172060114728
 20
534.5485100558583
 10
837.9172060114729
 20
534.5339869225816
 10
837.9172060114729
 20
538.5485100558583
  0
LWPOLYLINE
  5
197
330
1F
100
AcDbEntity
  8
0
100
AcDbPolyline
 90
        4
 70
     1
 43
0.0
 10
812.4172060114727
 20
538.5485100558583
 10
804.9172060114727
 20
538.5485100558583
 10
804.9172060114727
 20
534.5485100558583
 10
812.4172060114727
 20
534.5485100558583
  0
LWPOLYLINE
  5
198
330
1F
100
AcDbEntity
  8
0
100
AcDbPolyline
 90
        4
 70
     1
 43
0.0
 10
817.6672060114729
 20
316.9186300558588
 10
817.6672060114729
 20
312.9186300558589
 10
825.1672060114728
 20
312.9186300558589
 10
825.1672060114728
 20
316.9186300558588
  0
LINE
  5
199
330
1F
100
AcDbEntity
  8
0
100
AcDbLine
 10
813.4865668444936
 20
325.6346329460009
 30
0.0
 11
834.8589755601988
 21
347.006826729295
 31
0.0
  0
LINE
  5
200
330
1F
100
AcDbEntity
  8
0
100
AcDbLine
 10
901.2668874950767
 20
613.5444288357632
 30
0.0
 11
901.2668874950767
 21
617.5444288357632
 31
0.0
  0
LINE
  5
201
330
1F
100
AcDbEntity
  8
0
100
AcDbLine
 10
901.2668874950767
 20
617.5444288357632
 30
0.0
 11
893.7668874950768
 21
617.5444288357632
 31
0.0
  0
LINE
  5
202
330
1F
100
AcDbEntity
  8
0
100
AcDbLine
 10
893.7668874950768
 20
617.5444288357632
 30
0.0
 11
893.7668874950768
 21
615.7944288357632
 31
0.0
  0
LWPOLYLINE
  5
203
330
1F
100
AcDbEntity
  8
0
100
AcDbPolyline
 90
        4
 70
     1
 43
0.0
 10
828.5506170988055
 20
811.0960627109232
 10
828.5506170988055
 20
815.0960627109233
 10
821.0506170988052
 20
815.0960627109233
 10
821.0506170988052
 20
811.0960627109232
  0
LWPOLYLINE
  5
204
330
1F
100
AcDbEntity
  8
0
100
AcDbPolyline
 90
       24
 70
     1
 43
0.0
 10
814.4369760988055
 20
687.5318357109233
 10
814.7083080988055
 20
687.419454710923
 10
814.9994760988056
 20
687.3811227109229
 10
815.2906490988057
 20
687.419454710923
 10
815.5619760988056
 20
687.5318357109233
 10
815.7949730988057
 20
687.7106197109233
 10
815.9737550988051
 20
687.9436227109228
 10
816.0861450988056
 20
688.214934710923
 10
816.1244760988051
 20
688.506122710923
 10
816.0861450988056
 20
688.7972807109231
 10
815.9737550988051
 20
689.0686227109234
 10
815.7949730988057
 20
689.3015947109232
 10
815.5619760988056
 20
689.4804027109231
 10
815.2906490988057
 20
689.5927827109233
 10
814.9994760988056
 20
689.6311227109229
 10
814.7083080988055
 20
689.5927827109233
 10
814.4369760988055
 20
689.4804027109231
 10
814.2039840988056
 20
689.3015947109232
 10
814.0251980988054
 20
689.0686227109234
 10
813.9128110988057
 20
688.7972807109231
 10
813.8744760988055
 20
688.506122710923
 10
813.9128110988057
 20
688.214934710923
 10
814.0251980988054
 20
687.9436227109228
 10
814.2039840988056
 20
687.7106197109233
  0
LWPOLYLINE
  5
205
330
1F
100
AcDbEntity
  8
0
100
AcDbPolyline
 90
        4
 70
     1
 43
0.0
 10
849.1756170988056
 20
835.7210637109229
 10
849.1756170988056
 20
839.7210637109228
 10
841.6756170988055
 20
839.7210637109228
 10
841.6756170988055
 20
835.7210637109229
  0
LWPOLYLINE
  5
206
330
1F
100
AcDbEntity
  8
0
100
AcDbPolyline
 90
        6
 70
     1
 43
0.0
 10
796.6756170988052
 20
841.183567710923
 10
852.9256170988055
 20
841.183567710923
 10
857.4256170988055
 20
841.183567710923
 10
857.4256170988055
 20
611.8411677109232
 10
792.1756170988055
 20
611.8411677109232
 10
792.1756170988055
 20
841.183567710923
  0
LWPOLYLINE
  5
207
330
1F
100
AcDbEntity
  8
0
100
AcDbPolyline
 90
       24
 70
     1
 43
0.0
 10
834.9167890988056
 20
687.434267710923
 10
835.1881160988057
 20
687.5466697109232
 10
835.4211120988056
 20
687.7254477109232
 10
835.5998970988055
 20
687.9584277109232
 10
835.7122840988051
 20
688.2297697109232
 10
835.7506160988055
 20
688.5209277109232
 10
835.7122840988051
 20
688.8121147109229
 10
835.5998970988055
 20
689.0834277109233
 10
835.4211120988056
 20
689.316429710923
 10
835.1881160988057
 20
689.4952077109232
 10
834.9167890988056
 20
689.6076107109232
 10
834.6256160988057
 20
689.6459277109232
 10
834.3344440988055
 20
689.6076107109232
 10
834.0631160988056
 20
689.4952077109232
 10
833.8301200988055
 20
689.316429710923
 10
833.6513400988055
 20
689.0834277109233
 10
833.5389480988055
 20
688.8121147109229
 10
833.5006160988054
 20
688.5209277109232
 10
833.5389480988055
 20
688.2297697109232
 10
833.6513400988055
 20
687.9584277109232
 10
833.8301200988055
 20
687.7254477109232
 10
834.0631160988056
 20
687.5466697109232
 10
834.3344440988055
 20
687.434267710923
 10
834.6256160988057
 20
687.3959277109232
  0
LWPOLYLINE
  5
208
330
1F
100
AcDbEntity
  8
0
100
AcDbPolyline
 90
        4
 70
     1
 43
0.0
 10
798.409254316146
 20
801.4710697109233
 10
798.4256170988055
 20
808.9710627109234
 10
794.4256170988052
 20
808.9710627109234
 10
794.4256170988052
 20
801.4710697109233
  0
LINE
  5
209
330
1F
100
AcDbEntity
  8
0
100
AcDbLine
 10
841.6756170988055
 20
837.4710637109233
 30
0.0
 11
841.6756170988055
 21
839.7210637109228
 31
0.0
  0
LINE
  5
210
330
1F
100
AcDbEntity
  8
0
100
AcDbLine
 10
849.1756170988056
 20
839.7210637109228
 30
0.0
 11
849.1756170988056
 21
837.4710637109233
 31
0.0
  0
LWPOLYLINE
  5
211
330
1F
100
AcDbEntity
  8
0
100
AcDbPolyline
 90
        4
 70
     1
 43
0.0
 10
851.1920196042481
 20
801.4710697109233
 10
855.1756170988054
 20
801.4710697109233
 10
855.1756170988054
 20
808.9710627109234
 10
851.1756170988055
 20
808.9710627109228
  0
LINE
  5
212
330
1F
100
AcDbEntity
  8
0
100
AcDbLine
 10
800.4256170988051
 20
837.4710637109233
 30
0.0
 11
800.4256170988051
 21
839.7210637109228
 31
0.0
  0
LINE
  5
213
330
1F
100
AcDbEntity
  8
0
100
AcDbLine
 10
807.9256170988053
 20
839.7210637109228
 30
0.0
 11
807.9256170988053
 21
837.4710637109233
 31
0.0
  0
LWPOLYLINE
  5
214
330
1F
100
AcDbEntity
  8
0
100
AcDbPolyline
 90
        4
 70
     1
 43
0.0
 10
807.9256170988053
 20
839.7210637109228
 10
800.4256170988051
 20
839.7210637109228
 10
800.4256170988051
 20
835.7210637109229
 10
807.9256170988053
 20
835.7210637109229
  0
LINE
  5
215
330
1F
100
AcDbEntity
  8
0
100
AcDbLine
 10
821.0506170988052
 20
614.0911677109232
 30
0.0
 11
821.0506170988052
 21
616.3411677109232
 31
0.0
  0
LINE
  5
216
330
1F
100
AcDbEntity
  8
0
100
AcDbLine
 10
828.5506170988055
 20
616.3411677109232
 30
0.0
 11
828.5506170988055
 21
614.0911677109232
 31
0.0
  0
LINE
  5
217
330
1F
100
AcDbEntity
  8
0
100
AcDbLine
 10
828.5506170988055
 20
614.0911677109232
 30
0.0
 11
821.0506170988052
 21
614.0911677109232
 31
0.0
  0
LINE
  5
218
330
1F
100
AcDbEntity
  8
0
100
AcDbLine
 10
828.5506170988055
 20
614.0911677109232
 30
0.0
 11
828.5506170988055
 21
618.0911677109232
 31
0.0
  0
LINE
  5
220
330
1F
100
AcDbEntity
  8
0
100
AcDbLine
 10
828.5506170988055
 20
618.0911677109232
 30
0.0
 11
821.0506170988052
 21
618.0911677109232
 31
0.0
  0
LINE
  5
221
330
1F
100
AcDbEntity
  8
0
100
AcDbLine
 10
821.0506170988052
 20
618.0911677109232
 30
0.0
 11
821.0506170988052
 21
616.3411677109232
 31
0.0
  0
LWPOLYLINE
  5
222
330
1F
100
AcDbEntity
  8
0
100
AcDbPolyline
 90
       36
 70
     1
 43
0.0
 10
802.6750430758729
 20
603.8192197598813
 10
836.425043075873
 20
603.8192197598813
 10
836.425043075873
 20
606.0692197598813
 10
843.9250430758729
 20
606.0692197598813
 10
843.9250430758729
 20
603.8192197598813
 10
847.6750430758729
 20
603.8192197598813
 10
847.6750430758729
 20
600.0692197598813
 10
849.9250430758729
 20
600.0692197598813
 10
849.9250430758729
 20
592.5692197598813
 10
847.6750430758729
 20
592.5692197598813
 10
847.6750430758729
 20
574.5692197598812
 10
849.9250430758729
 20
574.5692197598812
 10
849.9250430758729
 20
567.0692197598813
 10
847.6750430758729
 20
567.0692197598813
 10
847.6750430758729
 20
563.3192197598815
 10
843.9250430758729
 20
563.3192197598815
 10
843.9250430758729
 20
561.0692197598813
 10
836.425043075873
 20
561.0692197598813
 10
836.425043075873
 20
563.3192197598815
 10
802.6750430758729
 20
563.3192197598815
 10
802.6750430758729
 20
561.0692197598813
 10
795.1750430758729
 20
561.0692197598813
 10
795.1750430758729
 20
563.3192197598815
 10
791.425043075873
 20
563.3192197598815
 10
791.425043075873
 20
567.0692197598813
 10
789.175043075873
 20
567.0692197598813
 10
789.175043075873
 20
574.5692197598812
 10
791.425043075873
 20
574.5692197598812
 10
791.425043075873
 20
592.5692197598813
 10
789.175043075873
 20
592.5692197598813
 10
789.175043075873
 20
600.0692197598813
 10
791.425043075873
 20
600.0692197598813
 10
791.425043075873
 20
603.8192197598813
 10
795.1750430758729
 20
603.8192197598813
 10
795.1750430758729
 20
606.0692197598813
 10
802.6750430758729
 20
606.0692197598813
  0
LWPOLYLINE
  5
223
330
1F
100
AcDbEntity
  8
0
100
AcDbPolyline
 90
       24
 70
     1
 43
0.0
 10
819.5500430758729
 20
585.4442197598813
 10
819.0647570758731
 20
585.3803127598813
 10
818.612543075873
 20
585.1929997598813
 10
818.224217075873
 20
584.8950397598813
 10
817.9262470758731
 20
584.5067197598813
 10
817.738933075873
 20
584.0544927598813
 10
817.675043075873
 20
583.5692197598813
 10
817.738933075873
 20
583.0839177598813
 10
817.9262470758731
 20
582.6317197598813
 10
818.224217075873
 20
582.2433777598812
 10
818.612543075873
 20
581.9454177598813
 10
819.0647570758731
 20
581.7580977598813
 10
819.5500430758729
 20
581.6942197598812
 10
820.0353300758729
 20
581.7580977598813
 10
820.4875430758729
 20
581.9454177598813
 10
820.875870075873
 20
582.2433777598812
 10
821.1738400758729
 20
582.6317197598813
 10
821.361154075873
 20
583.0839177598813
 10
821.4250430758729
 20
583.5692197598813
 10
821.361154075873
 20
584.0544927598813
 10
821.1738400758729
 20
584.5067197598813
 10
820.875870075873
 20
584.8950397598813
 10
820.4875430758729
 20
585.1929997598813
 10
820.0353300758729
 20
585.3803127598813
  0
LWPOLYLINE
  5
224
330
1F
100
AcDbEntity
  8
0
100
AcDbPolyline
 90
        5
 70
     1
 43
0.0
 10
768.9702326975746
 20
649.4339583093704
 10
771.2202326975744
 20
649.4339583093704
 10
771.2202326975744
 20
656.9339583093705
 10
767.2202326975742
 20
656.9339583093705
 10
767.2202326975742
 20
649.4339583093704
  0
LWPOLYLINE
  5
225
330
1F
100
AcDbEntity
  8
0
100
AcDbPolyline
 90
        4
 70
     1
 43
0.0
 10
761.4408026975743
 20
643.4339583093705
 10
768.9408026975743
 20
643.4339583093705
 10
768.9408026975743
 20
647.4339583093705
 10
761.4408026975743
 20
647.4339583093705
  0
LWPOLYLINE
  5
226
330
1F
100
AcDbEntity
  8
0
100
AcDbPolyline
 90
        4
 70
     1
 43
0.0
 10
756.1720746975743
 20
649.4339583093704
 10
760.1720746975743
 20
649.4339583093704
 10
760.1720746975743
 20
656.9339583093705
 10
756.1720746975743
 20
656.9339583093705
  0
LWPOLYLINE
  5
227
330
1F
100
AcDbEntity
  8
0
100
AcDbPolyline
 90
       24
 70
     1
 43
0.0
 10
756.7345746975744
 20
672.8346803093704
 10
757.0058946975745
 20
672.7222933093704
 10
757.2970746975743
 20
672.6839583093704
 10
757.5882176975747
 20
672.7222933093704
 10
757.8595746975744
 20
672.8346803093704
 10
758.0925776975742
 20
673.0134633093706
 10
758.2713316975742
 20
673.2464583093705
 10
758.3837196975747
 20
673.5177873093707
 10
758.4220746975744
 20
673.8089583093705
 10
758.3837196975747
 20
674.1001303093704
 10
758.2713316975742
 20
674.3714583093705
 10
758.0925776975742
 20
674.6044543093704
 10
757.8595746975744
 20
674.7832373093705
 10
757.5882176975747
 20
674.8956243093707
 10
757.2970746975743
 20
674.9339583093704
 10
757.0058946975745
 20
674.8956243093707
 10
756.7345746975744
 20
674.7832373093705
 10
756.5015716975746
 20
674.6044543093704
 10
756.3227726975748
 20
674.3714583093705
 10
756.2103926975744
 20
674.1001303093704
 10
756.1720746975743
 20
673.8089583093705
 10
756.2103926975744
 20
673.5177873093707
 10
756.3227726975748
 20
673.2464583093705
 10
756.5015716975746
 20
673.0134633093706
  0
LINE
  5
228
330
1F
100
AcDbEntity
  8
0
100
AcDbLine
 10
768.9702326975746
 20
656.9339583093705
 30
0.0
 11
771.2202326975744
 21
656.9339583093705
 31
0.0
  0
LWPOLYLINE
  5
229
330
1F
100
AcDbEntity
  8
0
100
AcDbPolyline
 90
        5
 70
     1
 43
0.0
 10
768.9408026975743
 20
701.9339583093706
 10
768.9408026975743
 20
700.1839583093706
 10
761.4408026975743
 20
700.1839583093706
 10
761.4408026975743
 20
704.1839583093707
 10
768.9408026975743
 20
704.1839583093707
  0
LWPOLYLINE
  5
230
330
1F
100
AcDbEntity
  8
0
100
AcDbPolyline
 90
        5
 70
     1
 43
0.0
 10
768.9702326975746
 20
698.1839583093706
 10
767.2202326975742
 20
698.1839583093706
 10
767.2202326975742
 20
690.6839583093706
 10
771.2202326975744
 20
690.6839583093706
 10
771.2202326975744
 20
698.1839583093706
  0
LWPOLYLINE
  5
231
330
1F
100
AcDbEntity
  8
0
100
AcDbPolyline
 90
        6
 70
     1
 43
0.0
 10
776.4595676975743
 20
701.9339583093706
 10
776.4595676975743
 20
645.6839583093705
 10
776.4595676975743
 20
641.1839583093705
 10
753.9220746975743
 20
641.1839583093705
 10
753.9220746975743
 20
706.4339583093706
 10
776.4595676975743
 20
706.4339583093706
  0
LWPOLYLINE
  5
232
330
1F
100
AcDbEntity
  8
0
100
AcDbPolyline
 90
        4
 70
     1
 43
0.0
 10
760.1720746975743
 20
690.6839583093733
 10
760.1963594372091
 20
698.1839583093706
 10
756.1720746975743
 20
698.1839583093706
 10
756.1720746975743
 20
690.6839583093706
  0
LINE
  5
233
330
1F
100
AcDbEntity
  8
0
100
AcDbLine
 10
761.4408026975743
 20
701.9339583093706
 30
0.0
 11
761.4408026975743
 21
704.1839583093707
 31
0.0
  0
LINE
  5
234
330
1F
100
AcDbEntity
  8
0
100
AcDbLine
 10
771.2202326975744
 20
690.6839583093706
 30
0.0
 11
768.9702326975746
 21
690.6839583093706
 31
0.0
  0
ENDSEC
  0
SECTION
  2
OBJECTS
  0
DICTIONARY
  5
C
330
0
100
AcDbDictionary
281
     1
  3
ACAD_CIP_PREVIOUS_PRODUCT_INFO
350
1005A
  3
ACAD_COLOR
350
10036
  3
ACAD_DETAILVIEWSTYLE
350
10051
  3
ACAD_GROUP
350
D
  3
ACAD_LAYOUT
350
10037
  3
ACAD_MATERIAL
350
10004
  3
ACAD_MLEADERSTYLE
350
1004D
  3
ACAD_MLINESTYLE
350
17
  3
ACAD_PLOTSETTINGS
350
10054
  3
ACAD_PLOTSTYLENAME
350
10002
  3
ACAD_SCALELIST
350
1003B
  3
ACAD_SECTIONVIEWSTYLE
350
1004F
  3
ACAD_TABLESTYLE
350
10038
  3
ACAD_VISUALSTYLE
350
1001D
  3
ACDB_RECOMPOSE_DATA
350
1006B
  3
AcDbVariableDictionary
350
1005F
  0
DICTIONARY
  5
1005D
330
50
100
AcDbDictionary
280
     1
281
     1
  3
ADSK_XREC_LAYER_RECONCILED
360
1005E
  0
XRECORD
  5
1005A
102
{ACAD_REACTORS
330
C
102
}
330
C
100
AcDbXrecord
280
     1
300
ACD
300
2018
300
ACD_F_S
  0
DICTIONARY
  5
10036
102
{ACAD_REACTORS
330
C
102
}
330
C
100
AcDbDictionary
281
     1
  0
DICTIONARY
  5
10051
102
{ACAD_REACTORS
330
C
102
}
330
C
100
AcDbDictionary
281
     1
  3
Imperial24
350
10052
  0
DICTIONARY
  5
D
330
C
100
AcDbDictionary
281
     1
  0
DICTIONARY
  5
10037
102
{ACAD_REACTORS
330
C
102
}
330
C
100
AcDbDictionary
281
     1
  3
Layout1
350
10056
  3
Model
350
10055
  0
DICTIONARY
  5
10004
102
{ACAD_REACTORS
330
C
102
}
330
C
100
AcDbDictionary
281
     1
  3
ByBlock
350
1000D
  3
ByLayer
350
10005
  3
Global
350
10015
  0
DICTIONARY
  5
1004D
102
{ACAD_REACTORS
330
C
102
}
330
C
100
AcDbDictionary
281
     1
  3
Standard
350
1004E
  0
DICTIONARY
  5
17
330
C
100
AcDbDictionary
281
     1
  3
Standard
350
1003A
  0
DICTIONARY
  5
10054
102
{ACAD_REACTORS
330
C
102
}
330
C
100
AcDbDictionary
281
     1
  0
ACDBDICTIONARYWDFLT
  5
10002
102
{ACAD_REACTORS
330
C
102
}
330
C
100
AcDbDictionary
281
     1
  3
Normal
350
10003
100
AcDbDictionaryWithDefault
340
10003
  0
DICTIONARY
  5
1003B
102
{ACAD_REACTORS
330
C
102
}
330
C
100
AcDbDictionary
281
     1
  3
A0
350
1003C
  3
A1
350
1003D
  3
A2
350
1003E
  3
A3
350
1003F
  3
A4
350
10040
  3
A5
350
10041
  3
A6
350
10042
  3
A7
350
10043
  3
A8
350
10044
  3
A9
350
10045
  3
B0
350
10046
  3
B1
350
10047
  3
B2
350
10048
  3
B3
350
10049
  3
B4
350
1004A
  3
B5
350
1004B
  3
B6
350
1004C
  0
DICTIONARY
  5
1004F
102
{ACAD_REACTORS
330
C
102
}
330
C
100
AcDbDictionary
281
     1
  3
Imperial24
350
10050
  0
DICTIONARY
  5
10038
102
{ACAD_REACTORS
330
C
102
}
330
C
100
AcDbDictionary
281
     1
  3
Standard
350
10039
  0
DICTIONARY
  5
1001D
102
{ACAD_REACTORS
330
C
102
}
330
C
100
AcDbDictionary
281
     1
  3
2dWireframe
350
10023
  3
Basic
350
10022
  3
Brighten
350
10029
  3
ColorChange
350
1002D
  3
Conceptual
350
10026
  3
Dim
350
10028
  3
EdgeColorOff
350
10035
  3
Facepattern
350
1002C
  3
Flat
350
1001E
  3
FlatWithEdges
350
1001F
  3
Gouraud
350
10020
  3
GouraudWithEdges
350
10021
  3
Hidden
350
10025
  3
JitterOff
350
10033
  3
Linepattern
350
1002B
  3
OverhangOff
350
10034
  3
Realistic
350
10027
  3
Shaded
350
10032
  3
Shaded with edges
350
10031
  3
Shades of Gray
350
1002E
  3
Sketchy
350
1002F
  3
Thicken
350
1002A
  3
Wireframe
350
10024
  3
X-Ray
350
10030
  0
XRECORD
  5
1006B
102
{ACAD_REACTORS
330
C
102
}
330
C
100
AcDbXrecord
280
     1
 90
        1
330
10039
  0
DICTIONARY
  5
1005F
102
{ACAD_REACTORS
330
C
102
}
330
C
100
AcDbDictionary
281
     1
  3
CANNOSCALE
350
10065
  3
CMLEADERSTYLE
350
10061
  3
CTABLESTYLE
350
10060
  3
CVIEWDETAILSTYLE
350
10062
  3
CVIEWSECTIONSTYLE
350
10063
  3
LAYEREVAL
350
10067
  3
LAYERNOTIFY
350
10068
  3
LIGHTINGUNITS
350
10066
  3
MSLTSCALE
350
10064
  0
XRECORD
  5
1005E
102
{ACAD_REACTORS
330
1005D
102
}
330
1005D
100
AcDbXrecord
280
     1
290
     1
  0
ACDBDETAILVIEWSTYLE
  5
10052
102
{ACAD_REACTORS
330
10051
102
}
330
10051
100
AcDbModelDocViewStyle
 70
     0
  3
Imperial24
290
     0
300
Imperial24
 90
        0
100
AcDbDetailViewStyle
 70
     0
 71
     0
 90
        3
 71
     1
340
11
 62
   256
 40
0.24
340
0
 62
   256
 40
0.24
300

 40
0.36
280
     3
 71
     2
340
0
 90
       25
 62
   256
 71
     3
340
11
 62
   256
 40
0.24
 90
        1
 40
0.75
 90
        1
300
%<\AcVar ViewType \f "%tc1">% %<\AcVar ViewDetailId>%\PSCALE %<\AcVar ViewScale \f "%sn">%
 71
     4
340
0
 90
       25
 62
   256
340
0
 90
       25
 62
   256
280
     0
  0
LAYOUT
  5
10056
102
{ACAD_REACTORS
330
10037
102
}
330
10037
100
AcDbPlotSettings
  1

  2
PDFCreator
  4

  6

 40
0.0
 41
0.0
 42
0.0
 43
0.0
 44
0.0
 45
0.0
 46
0.0
 47
0.0
 48
0.0
 49
0.0
140
0.0
141
0.0
142
1.0
143
1.0
 70
   688
 72
     0
 73
     0
 74
     5
  7

 75
    16
147
1.0
 76
     0
 77
     2
 78
   300
148
0.0
149
0.0
100
AcDbLayout
  1
Layout1
 70
     1
 71
     1
 10
0.0
 20
0.0
 11
12.0
 21
9.0
 12
0.0
 22
0.0
 32
0.0
 14
1.000000000000000E+20
 24
1.000000000000000E+20
 34
1.000000000000000E+20
 15
-1.000000000000000E+20
 25
-1.000000000000000E+20
 35
-1.000000000000000E+20
146
0.0
 13
0.0
 23
0.0
 33
0.0
 16
1.0
 26
0.0
 36
0.0
 17
0.0
 27
1.0
 37
0.0
 76
     0
330
1B
  0
LAYOUT
  5
10055
102
{ACAD_REACTORS
330
10037
102
}
330
10037
100
AcDbPlotSettings
  1

  2
PDFCreator
  4

  6

 40
0.0
 41
0.0
 42
0.0
 43
0.0
 44
0.0
 45
0.0
 46
0.0
 47
0.0
 48
0.0
 49
0.0
140
0.0
141
0.0
142
1.0
143
1.0
 70
  1712
 72
     0
 73
     0
 74
     0
  7

 75
     0
147
1.0
 76
     0
 77
     2
 78
   300
148
0.0
149
0.0
100
AcDbLayout
  1
Model
 70
     1
 71
     0
 10
0.0
 20
0.0
 11
12.0
 21
9.0
 12
0.0
 22
0.0
 32
0.0
 14
0.0
 24
0.0
 34
0.0
 15
0.0
 25
0.0
 35
0.0
146
0.0
 13
0.0
 23
0.0
 33
0.0
 16
1.0
 26
0.0
 36
0.0
 17
0.0
 27
1.0
 37
0.0
 76
     0
330
1F
331
10059
  0
MATERIAL
  5
1000D
102
{ACAD_XDICTIONARY
360
1000E
102
}
102
{ACAD_REACTORS
330
10004
102
}
330
10004
100
AcDbMaterial
  1
ByBlock
 72
     0
 43
0.0008202099737533
 43
0.0
 43
0.0
 43
0.0
 43
0.0
 43
0.0008202099737533
 43
0.0
 43
0.0
 43
0.0
 43
0.0
 43
1.0
 43
0.0
 43
0.0
 43
0.0
 43
0.0
 43
1.0
 77
     0
 47
0.0008202099737533
 47
0.0
 47
0.0
 47
0.0
 47
0.0
 47
0.0008202099737533
 47
0.0
 47
0.0
 47
0.0
 47
0.0
 47
1.0
 47
0.0
 47
0.0
 47
0.0
 47
0.0
 47
1.0
171
     0
 49
0.0008202099737533
 49
0.0
 49
0.0
 49
0.0
 49
0.0
 49
0.0008202099737533
 49
0.0
 49
0.0
 49
0.0
 49
0.0
 49
1.0
 49
0.0
 49
0.0
 49
0.0
 49
0.0
 49
1.0
175
     0
142
0.0008202099737533
142
0.0
142
0.0
142
0.0
142
0.0
142
0.0008202099737533
142
0.0
142
0.0
142
0.0
142
0.0
142
1.0
142
0.0
142
0.0
142
0.0
142
0.0
142
1.0
179
     0
144
0.0008202099737533
144
0.0
144
0.0
144
0.0
144
0.0
144
0.0008202099737533
144
0.0
144
0.0
144
0.0
144
0.0
144
1.0
144
0.0
144
0.0
144
0.0
144
0.0
144
1.0
147
0.0008202099737533
147
0.0
147
0.0
147
0.0
147
0.0
147
0.0008202099737533
147
0.0
147
0.0
147
0.0
147
0.0
147
1.0
147
0.0
147
0.0
147
0.0
147
0.0
147
1.0
  0
MATERIAL
  5
10005
102
{ACAD_XDICTIONARY
360
10006
102
}
102
{ACAD_REACTORS
330
10004
102
}
330
10004
100
AcDbMaterial
  1
ByLayer
 72
     0
 43
0.0008202099737533
 43
0.0
 43
0.0
 43
0.0
 43
0.0
 43
0.0008202099737533
 43
0.0
 43
0.0
 43
0.0
 43
0.0
 43
1.0
 43
0.0
 43
0.0
 43
0.0
 43
0.0
 43
1.0
 77
     0
 47
0.0008202099737533
 47
0.0
 47
0.0
 47
0.0
 47
0.0
 47
0.0008202099737533
 47
0.0
 47
0.0
 47
0.0
 47
0.0
 47
1.0
 47
0.0
 47
0.0
 47
0.0
 47
0.0
 47
1.0
171
     0
 49
0.0008202099737533
 49
0.0
 49
0.0
 49
0.0
 49
0.0
 49
0.0008202099737533
 49
0.0
 49
0.0
 49
0.0
 49
0.0
 49
1.0
 49
0.0
 49
0.0
 49
0.0
 49
0.0
 49
1.0
175
     0
142
0.0008202099737533
142
0.0
142
0.0
142
0.0
142
0.0
142
0.0008202099737533
142
0.0
142
0.0
142
0.0
142
0.0
142
1.0
142
0.0
142
0.0
142
0.0
142
0.0
142
1.0
179
     0
144
0.0008202099737533
144
0.0
144
0.0
144
0.0
144
0.0
144
0.0008202099737533
144
0.0
144
0.0
144
0.0
144
0.0
144
1.0
144
0.0
144
0.0
144
0.0
144
0.0
144
1.0
147
0.0008202099737533
147
0.0
147
0.0
147
0.0
147
0.0
147
0.0008202099737533
147
0.0
147
0.0
147
0.0
147
0.0
147
1.0
147
0.0
147
0.0
147
0.0
147
0.0
147
1.0
  0
MATERIAL
  5
10015
102
{ACAD_XDICTIONARY
360
10016
102
}
102
{ACAD_REACTORS
330
10004
102
}
330
10004
100
AcDbMaterial
  1
Global
 72
     0
 43
0.0008202099737533
 43
0.0
 43
0.0
 43
0.0
 43
0.0
 43
0.0008202099737533
 43
0.0
 43
0.0
 43
0.0
 43
0.0
 43
1.0
 43
0.0
 43
0.0
 43
0.0
 43
0.0
 43
1.0
 77
     0
 47
0.0008202099737533
 47
0.0
 47
0.0
 47
0.0
 47
0.0
 47
0.0008202099737533
 47
0.0
 47
0.0
 47
0.0
 47
0.0
 47
1.0
 47
0.0
 47
0.0
 47
0.0
 47
0.0
 47
1.0
171
     0
 49
0.0008202099737533
 49
0.0
 49
0.0
 49
0.0
 49
0.0
 49
0.0008202099737533
 49
0.0
 49
0.0
 49
0.0
 49
0.0
 49
1.0
 49
0.0
 49
0.0
 49
0.0
 49
0.0
 49
1.0
175
     0
142
0.0008202099737533
142
0.0
142
0.0
142
0.0
142
0.0
142
0.0008202099737533
142
0.0
142
0.0
142
0.0
142
0.0
142
1.0
142
0.0
142
0.0
142
0.0
142
0.0
142
1.0
179
     0
144
0.0008202099737533
144
0.0
144
0.0
144
0.0
144
0.0
144
0.0008202099737533
144
0.0
144
0.0
144
0.0
144
0.0
144
1.0
144
0.0
144
0.0
144
0.0
144
0.0
144
1.0
147
0.0008202099737533
147
0.0
147
0.0
147
0.0
147
0.0
147
0.0008202099737533
147
0.0
147
0.0
147
0.0
147
0.0
147
1.0
147
0.0
147
0.0
147
0.0
147
0.0
147
1.0
  0
MLEADERSTYLE
  5
1004E
102
{ACAD_REACTORS
330
1004D
102
}
330
1004D
100
AcDbMLeaderStyle
179
     2
170
     2
171
     1
172
     0
 90
        2
 40
0.0
 41
0.0
173
     1
 91
-1056964608
340
14
 92
       -2
290
     1
 42
0.09
291
     1
 43
0.36
  3
Standard
 44
0.18
300

342
11
174
     1
178
     6
175
     1
176
     0
 93
-1056964608
 45
0.18
292
     0
297
     0
 46
0.18
 94
-1056964608
 47
1.0
 49
1.0
140
1.0
293
     1
141
0.0
294
     1
177
     0
142
1.0
295
     0
296
     0
143
0.125
271
     0
272
     9
273
     9
298
     0
  0
MLINESTYLE
  5
1003A
102
{ACAD_REACTORS
330
17
102
}
330
17
100
AcDbMlineStyle
  2
STANDARD
 70
     0
  3

 62
   256
 51
90.0
 52
90.0
 71
     2
 49
0.5
 62
   256
  6
BYLAYER
 49
-0.5
 62
   256
  6
BYLAYER
  0
ACDBPLACEHOLDER
  5
10003
102
{ACAD_REACTORS
330
10002
102
}
330
10002
  0
SCALE
  5
1003C
102
{ACAD_REACTORS
330
1003B
102
}
330
1003B
100
AcDbScale
 70
     0
300
1:1
140
1.0
141
1.0
290
     1
  0
SCALE
  5
1003D
102
{ACAD_REACTORS
330
1003B
102
}
330
1003B
100
AcDbScale
 70
     0
300
1/128" = 1'-0"
140
0.0078125
141
12.0
290
     0
  0
SCALE
  5
1003E
102
{ACAD_REACTORS
330
1003B
102
}
330
1003B
100
AcDbScale
 70
     0
300
1/64" = 1'-0"
140
0.015625
141
12.0
290
     0
  0
SCALE
  5
1003F
102
{ACAD_REACTORS
330
1003B
102
}
330
1003B
100
AcDbScale
 70
     0
300
1/32" = 1'-0"
140
0.03125
141
12.0
290
     0
  0
SCALE
  5
10040
102
{ACAD_REACTORS
330
1003B
102
}
330
1003B
100
AcDbScale
 70
     0
300
1/16" = 1'-0"
140
0.0625
141
12.0
290
     0
  0
SCALE
  5
10041
102
{ACAD_REACTORS
330
1003B
102
}
330
1003B
100
AcDbScale
 70
     0
300
3/32" = 1'-0"
140
0.09375
141
12.0
290
     0
  0
SCALE
  5
10042
102
{ACAD_REACTORS
330
1003B
102
}
330
1003B
100
AcDbScale
 70
     0
300
1/8" = 1'-0"
140
0.125
141
12.0
290
     0
  0
SCALE
  5
10043
102
{ACAD_REACTORS
330
1003B
102
}
330
1003B
100
AcDbScale
 70
     0
300
3/16" = 1'-0"
140
0.1875
141
12.0
290
     0
  0
SCALE
  5
10044
102
{ACAD_REACTORS
330
1003B
102
}
330
1003B
100
AcDbScale
 70
     0
300
1/4" = 1'-0"
140
0.25
141
12.0
290
     0
  0
SCALE
  5
10045
102
{ACAD_REACTORS
330
1003B
102
}
330
1003B
100
AcDbScale
 70
     0
300
3/8" = 1'-0"
140
0.375
141
12.0
290
     0
  0
SCALE
  5
10046
102
{ACAD_REACTORS
330
1003B
102
}
330
1003B
100
AcDbScale
 70
     0
300
1/2" = 1'-0"
140
0.5
141
12.0
290
     0
  0
SCALE
  5
10047
102
{ACAD_REACTORS
330
1003B
102
}
330
1003B
100
AcDbScale
 70
     0
300
3/4" = 1'-0"
140
0.75
141
12.0
290
     0
  0
SCALE
  5
10048
102
{ACAD_REACTORS
330
1003B
102
}
330
1003B
100
AcDbScale
 70
     0
300
1" = 1'-0"
140
1.0
141
12.0
290
     0
  0
SCALE
  5
10049
102
{ACAD_REACTORS
330
1003B
102
}
330
1003B
100
AcDbScale
 70
     0
300
1-1/2" = 1'-0"
140
1.5
141
12.0
290
     0
  0
SCALE
  5
1004A
102
{ACAD_REACTORS
330
1003B
102
}
330
1003B
100
AcDbScale
 70
     0
300
3" = 1'-0"
140
3.0
141
12.0
290
     0
  0
SCALE
  5
1004B
102
{ACAD_REACTORS
330
1003B
102
}
330
1003B
100
AcDbScale
 70
     0
300
6" = 1'-0"
140
6.0
141
12.0
290
     0
  0
SCALE
  5
1004C
102
{ACAD_REACTORS
330
1003B
102
}
330
1003B
100
AcDbScale
 70
     0
300
1'-0" = 1'-0"
140
12.0
141
12.0
290
     0
  0
ACDBSECTIONVIEWSTYLE
  5
10050
102
{ACAD_REACTORS
330
1004F
102
}
330
1004F
100
AcDbModelDocViewStyle
 70
     0
  3
Imperial24
290
     0
300
Imperial24
 90
        0
100
AcDbSectionViewStyle
 70
     0
 71
     0
 90
       78
 71
     1
340
11
 62
   256
 40
0.24
340
0
340
0
 62
   256
 40
0.24
300
I, O, Q, S, X, Z
 40
0.48
 90
        3
 40
0.18
 90
        1
 71
     2
340
0
 90
       25
 62
   256
340
0
 90
       50
 62
   256
 40
0.24
 40
0.0
 40
0.24
 71
     3
340
11
 62
   256
 40
0.24
 90
        1
 40
0.75
 90
        1
300
%<\AcVar ViewType \f "%tc1">% %<\AcVar ViewSectionStartId>%-%<\AcVar ViewSectionEndId>%\PSCALE %<\AcVar ViewScale \f "%sn">%
 71
     4
 62
   256
 62
   257
300
ANSI31
 40
1.0
 90
        0
290
     0
290
     0
 90
        6
 40
0.0
 40
1.570796326794896
 40
0.2617993877991494
 40
1.308996938995747
 40
-0.2617993877991494
 40
1.832595714594046
  0
TABLESTYLE
  5
10039
102
{ACAD_XDICTIONARY
360
10069
102
}
102
{ACAD_REACTORS
330
10038
102
}
330
10038
100
AcDbTableStyle
280
     0
  3
Standard
 70
     0
 71
     0
 40
0.06
 41
0.06
280
     0
281
     0
  7
STANDARD
140
0.18
170
     2
 62
     0
 63
     7
283
     0
 90
      512
 91
        0
  1

274
    -2
284
     1
 64
     0
275
    -2
285
     1
 65
     0
276
    -2
286
     1
 66
     0
277
    -2
287
     1
 67
     0
278
    -2
288
     1
 68
     0
279
    -2
289
     1
 69
     0
  7
STANDARD
140
0.25
170
     5
 62
     0
 63
     7
283
     0
 90
      512
 91
        0
  1

274
    -2
284
     1
 64
     0
275
    -2
285
     1
 65
     0
276
    -2
286
     1
 66
     0
277
    -2
287
     1
 67
     0
278
    -2
288
     1
 68
     0
279
    -2
289
     1
 69
     0
  7
STANDARD
140
0.18
170
     5
 62
     0
 63
     7
283
     0
 90
      512
 91
        0
  1

274
    -2
284
     1
 64
     0
275
    -2
285
     1
 65
     0
276
    -2
286
     1
 66
     0
277
    -2
287
     1
 67
     0
278
    -2
288
     1
 68
     0
279
    -2
289
     1
 69
     0
  0
VISUALSTYLE
  5
10023
102
{ACAD_REACTORS
330
1001D
102
}
330
1001D
100
AcDbVisualStyle
  2
2dWireframe
 70
     4
177
     3
291
     0
 70
    58
 90
        0
176
     1
 90
        2
176
     1
 90
        0
176
     1
 90
        0
176
     1
 40
0.6
176
     1
 40
30.0
176
     1
 62
     7
420
 16777215
176
     1
 90
        1
176
     1
 90
        4
176
     1
 62
     7
176
     1
 62
   257
176
     1
 90
        1
176
     1
 90
        1
176
     1
 40
1.0
176
     1
 90
        0
176
     1
 62
   257
176
     1
 40
1.0
176
     1
 90
        1
176
     1
 90
        6
176
     1
 90
        2
176
     1
 62
     7
176
     1
 90
        5
176
     1
 90
        0
176
     1
 90
        0
176
     1
290
     0
176
     1
 90
        1
176
     1
 40
0.0
176
     1
 90
        0
176
     1
290
     1
176
     1
290
     1
176
     1
290
     0
176
     1
290
     0
176
     1
290
     0
176
     1
290
     0
176
     1
290
     0
176
     1
290
     0
176
     1
290
     0
176
     1
 90
       50
176
     1
 40
0.0
176
     1
 40
1.0
176
     1
 90
        0
176
     1
 62
    18
420
        0
176
     1
 90
       50
176
     1
 90
        3
176
     1
 62
     5
420
      255
176
     1
290
     0
176
     1
 90
       50
176
     1
 90
       50
176
     1
 90
       50
176
     1
290
     0
176
     1
 90
       50
176
     1
 62
   256
176
     0
 40
1.0
176
     0
 90
        2
176
     1
  1
strokes_ogs.tif
176
     1
290
     0
176
     1
 40
1.0
176
     1
 40
1.0
176
     1
  0
VISUALSTYLE
  5
10022
102
{ACAD_REACTORS
330
1001D
102
}
330
1001D
100
AcDbVisualStyle
  2
Basic
 70
     7
177
     3
291
     1
 70
    58
 90
        1
176
     1
 90
        0
176
     1
 90
        1
176
     1
 90
        0
176
     1
 40
0.6
176
     1
 40
30.0
176
     1
 62
     7
420
 16777215
176
     1
 90
        0
176
     1
 90
        4
176
     1
 62
     7
176
     1
 62
   257
176
     1
 90
        1
176
     1
 90
        1
176
     1
 40
1.0
176
     1
 90
        8
176
     1
 62
     7
176
     1
 40
1.0
176
     1
 90
        1
176
     1
 90
        6
176
     1
 90
        2
176
     1
 62
     7
176
     1
 90
        5
176
     1
 90
        0
176
     1
 90
        0
176
     1
290
     0
176
     1
 90
        1
176
     1
 40
0.0
176
     1
 90
        0
176
     1
290
     0
176
     1
290
     1
176
     1
290
     1
176
     1
290
     0
176
     1
290
     0
176
     1
290
     0
176
     1
290
     0
176
     1
290
     0
176
     1
290
     0
176
     1
 90
       50
176
     1
 40
0.0
176
     1
 40
1.0
176
     1
 90
        0
176
     1
 62
    18
420
        0
176
     1
 90
       50
176
     1
 90
        3
176
     1
 62
     5
420
      255
176
     1
290
     0
176
     1
 90
       50
176
     1
 90
       50
176
     1
 90
       50
176
     1
290
     0
176
     1
 90
       50
176
     1
 62
   256
176
     0
 40
1.0
176
     0
 90
        2
176
     1
  1
strokes_ogs.tif
176
     1
290
     0
176
     1
 40
1.0
176
     1
 40
1.0
176
     1
  0
VISUALSTYLE
  5
10029
102
{ACAD_REACTORS
330
1001D
102
}
330
1001D
100
AcDbVisualStyle
  2
Brighten
 70
    12
177
     3
291
     1
 70
    58
 90
        2
176
     1
 90
        2
176
     1
 90
        0
176
     1
 90
        0
176
     1
 40
0.6
176
     1
 40
30.0
176
     1
 62
     7
420
 16777215
176
     1
 90
        1
176
     1
 90
        4
176
     1
 62
     7
176
     1
 62
   257
176
     1
 90
        1
176
     1
 90
        1
176
     1
 40
1.0
176
     1
 90
        8
176
     1
 62
     7
176
     1
 40
1.0
176
     1
 90
        1
176
     1
 90
        6
176
     1
 90
        2
176
     1
 62
     7
176
     1
 90
        5
176
     1
 90
        0
176
     1
 90
        0
176
     1
290
     0
176
     1
 90
        1
176
     1
 40
50.0
176
     1
 90
        0
176
     1
290
     0
176
     1
290
     1
176
     1
290
     1
176
     1
290
     0
176
     1
290
     0
176
     1
290
     0
176
     1
290
     0
176
     1
290
     0
176
     1
290
     0
176
     1
 90
       50
176
     1
 40
0.0
176
     1
 40
1.0
176
     1
 90
        0
176
     1
 62
    18
420
        0
176
     1
 90
       50
176
     1
 90
        3
176
     1
 62
     5
420
      255
176
     1
290
     0
176
     1
 90
       50
176
     1
 90
       50
176
     1
 90
       50
176
     1
290
     0
176
     1
 90
       50
176
     1
 62
   256
176
     0
 40
1.0
176
     0
 90
        2
176
     1
  1
strokes_ogs.tif
176
     1
290
     0
176
     1
 40
1.0
176
     1
 40
1.0
176
     1
  0
VISUALSTYLE
  5
1002D
102
{ACAD_REACTORS
330
1001D
102
}
330
1001D
100
AcDbVisualStyle
  2
ColorChange
 70
    16
177
     3
291
     1
 70
    58
 90
        2
176
     1
 90
        2
176
     1
 90
        3
176
     1
 90
        0
176
     1
 40
0.6
176
     1
 40
30.0
176
     1
 62
     8
420
  8421504
176
     1
 90
        1
176
     1
 90
        4
176
     1
 62
     7
176
     1
 62
   257
176
     1
 90
        1
176
     1
 90
        1
176
     1
 40
1.0
176
     1
 90
        8
176
     1
 62
     8
420
  8421504
176
     1
 40
1.0
176
     1
 90
        1
176
     1
 90
        6
176
     1
 90
        2
176
     1
 62
     7
176
     1
 90
        5
176
     1
 90
        0
176
     1
 90
        0
176
     1
290
     0
176
     1
 90
        1
176
     1
 40
0.0
176
     1
 90
        0
176
     1
290
     0
176
     1
290
     1
176
     1
290
     1
176
     1
290
     0
176
     1
290
     0
176
     1
290
     0
176
     1
290
     0
176
     1
290
     0
176
     1
290
     0
176
     1
 90
       50
176
     1
 40
0.0
176
     1
 40
1.0
176
     1
 90
        0
176
     1
 62
    18
420
        0
176
     1
 90
       50
176
     1
 90
        3
176
     1
 62
     5
420
      255
176
     1
290
     0
176
     1
 90
       50
176
     1
 90
       50
176
     1
 90
       50
176
     1
290
     0
176
     1
 90
       50
176
     1
 62
   256
176
     0
 40
1.0
176
     0
 90
        2
176
     1
  1
strokes_ogs.tif
176
     1
290
     0
176
     1
 40
1.0
176
     1
 40
1.0
176
     1
  0
VISUALSTYLE
  5
10026
102
{ACAD_REACTORS
330
1001D
102
}
330
1001D
100
AcDbVisualStyle
  2
Conceptual
 70
     9
177
     3
291
     0
 70
    58
 90
        3
176
     1
 90
        2
176
     1
 90
        0
176
     1
 90
        0
176
     1
 40
0.6
176
     1
 40
30.0
176
     1
 62
     7
420
 16777215
176
     1
 90
        2
176
     1
 90
        2
176
     1
 62
     7
176
     1
 62
   257
176
     1
 90
        1
176
     1
 90
        1
176
     1
 40
179.0
176
     1
 90
        8
176
     1
 62
     7
176
     1
 40
1.0
176
     1
 90
        1
176
     1
 90
        6
176
     1
 90
        2
176
     1
 62
     7
176
     1
 90
        3
176
     1
 90
        0
176
     1
 90
        0
176
     1
290
     0
176
     1
 90
        1
176
     1
 40
0.0
176
     1
 90
        0
176
     1
290
     0
176
     1
290
     1
176
     1
290
     1
176
     1
290
     0
176
     1
290
     0
176
     1
290
     0
176
     1
290
     0
176
     1
290
     0
176
     1
290
     0
176
     1
 90
       50
176
     1
 40
0.0
176
     1
 40
1.0
176
     1
 90
        0
176
     1
 62
    18
420
        0
176
     1
 90
       50
176
     1
 90
        3
176
     1
 62
     5
420
      255
176
     1
290
     0
176
     1
 90
       50
176
     1
 90
       50
176
     1
 90
       50
176
     1
290
     0
176
     1
 90
       50
176
     1
 62
   256
176
     0
 40
1.0
176
     0
 90
        2
176
     1
  1
strokes_ogs.tif
176
     1
290
     0
176
     1
 40
1.0
176
     1
 40
1.0
176
     1
  0
VISUALSTYLE
  5
10028
102
{ACAD_REACTORS
330
1001D
102
}
330
1001D
100
AcDbVisualStyle
  2
Dim
 70
    11
177
     3
291
     1
 70
    58
 90
        2
176
     1
 90
        2
176
     1
 90
        0
176
     1
 90
        0
176
     1
 40
0.6
176
     1
 40
30.0
176
     1
 62
     7
420
 16777215
176
     1
 90
        1
176
     1
 90
        4
176
     1
 62
     7
176
     1
 62
   257
176
     1
 90
        1
176
     1
 90
        1
176
     1
 40
1.0
176
     1
 90
        8
176
     1
 62
     7
176
     1
 40
1.0
176
     1
 90
        1
176
     1
 90
        6
176
     1
 90
        2
176
     1
 62
     7
176
     1
 90
        5
176
     1
 90
        0
176
     1
 90
        0
176
     1
290
     0
176
     1
 90
        1
176
     1
 40
-50.0
176
     1
 90
        0
176
     1
290
     0
176
     1
290
     1
176
     1
290
     1
176
     1
290
     0
176
     1
290
     0
176
     1
290
     0
176
     1
290
     0
176
     1
290
     0
176
     1
290
     0
176
     1
 90
       50
176
     1
 40
0.0
176
     1
 40
1.0
176
     1
 90
        0
176
     1
 62
    18
420
        0
176
     1
 90
       50
176
     1
 90
        3
176
     1
 62
     5
420
      255
176
     1
290
     0
176
     1
 90
       50
176
     1
 90
       50
176
     1
 90
       50
176
     1
290
     0
176
     1
 90
       50
176
     1
 62
   256
176
     0
 40
1.0
176
     0
 90
        2
176
     1
  1
strokes_ogs.tif
176
     1
290
     0
176
     1
 40
1.0
176
     1
 40
1.0
176
     1
  0
VISUALSTYLE
  5
10035
102
{ACAD_REACTORS
330
1001D
102
}
330
1001D
100
AcDbVisualStyle
  2
EdgeColorOff
 70
    22
177
     3
291
     1
 70
    58
 90
        2
176
     0
 90
        2
176
     0
 90
        0
176
     0
 90
        0
176
     0
 40
0.6
176
     0
 40
30.0
176
     0
 62
     7
420
 16777215
176
     0
 90
        1
176
     0
 90
        4
176
     0
 62
     7
176
     0
 62
   257
176
     0
 90
        1
176
     0
 90
        1
176
     0
 40
1.0
176
     0
 90
        8
176
     2
 62
     7
176
     0
 40
1.0
176
     0
 90
        1
176
     0
 90
        6
176
     0
 90
        2
176
     0
 62
     7
176
     0
 90
        5
176
     0
 90
        0
176
     0
 90
        0
176
     0
290
     0
176
     0
 90
        1
176
     0
 40
0.0
176
     0
 90
        0
176
     0
290
     0
176
     1
290
     1
176
     1
290
     1
176
     1
290
     0
176
     1
290
     0
176
     1
290
     0
176
     1
290
     0
176
     1
290
     0
176
     1
290
     0
176
     1
 90
       50
176
     0
 40
0.0
176
     0
 40
1.0
176
     0
 90
        0
176
     0
 62
    18
420
        0
176
     0
 90
       50
176
     0
 90
        3
176
     0
 62
     5
420
      255
176
     0
290
     0
176
     1
 90
       50
176
     0
 90
       50
176
     0
 90
       50
176
     0
290
     0
176
     1
 90
       50
176
     0
 62
   256
176
     0
 40
1.0
176
     0
 90
        2
176
     0
  1
strokes_ogs.tif
176
     0
290
     0
176
     1
 40
1.0
176
     0
 40
1.0
176
     0
  0
VISUALSTYLE
  5
1002C
102
{ACAD_REACTORS
330
1001D
102
}
330
1001D
100
AcDbVisualStyle
  2
Facepattern
 70
    15
177
     3
291
     1
 70
    58
 90
        2
176
     1
 90
        2
176
     1
 90
        0
176
     1
 90
        0
176
     1
 40
0.6
176
     1
 40
30.0
176
     1
 62
     7
420
 16777215
176
     1
 90
        1
176
     1
 90
        4
176
     1
 62
     7
176
     1
 62
   257
176
     1
 90
        1
176
     1
 90
        1
176
     1
 40
1.0
176
     1
 90
        8
176
     1
 62
     7
176
     1
 40
1.0
176
     1
 90
        1
176
     1
 90
        6
176
     1
 90
        2
176
     1
 62
     7
176
     1
 90
        5
176
     1
 90
        0
176
     1
 90
        0
176
     1
290
     0
176
     1
 90
        1
176
     1
 40
0.0
176
     1
 90
        0
176
     1
290
     0
176
     1
290
     1
176
     1
290
     1
176
     1
290
     0
176
     1
290
     0
176
     1
290
     0
176
     1
290
     0
176
     1
290
     0
176
     1
290
     0
176
     1
 90
       50
176
     1
 40
0.0
176
     1
 40
1.0
176
     1
 90
        0
176
     1
 62
    18
420
        0
176
     1
 90
       50
176
     1
 90
        3
176
     1
 62
     5
420
      255
176
     1
290
     0
176
     1
 90
       50
176
     1
 90
       50
176
     1
 90
       50
176
     1
290
     0
176
     1
 90
       50
176
     1
 62
   256
176
     0
 40
1.0
176
     0
 90
        2
176
     1
  1
strokes_ogs.tif
176
     1
290
     0
176
     1
 40
1.0
176
     1
 40
1.0
176
     1
  0
VISUALSTYLE
  5
1001E
102
{ACAD_REACTORS
330
1001D
102
}
330
1001D
100
AcDbVisualStyle
  2
Flat
 70
     0
177
     3
291
     1
 70
    58
 90
        2
176
     1
 90
        1
176
     1
 90
        1
176
     1
 90
        2
176
     1
 40
0.6
176
     1
 40
30.0
176
     1
 62
     7
420
 16777215
176
     1
 90
        0
176
     1
 90
        0
176
     1
 62
     7
176
     1
 62
   257
176
     1
 90
        1
176
     1
 90
        1
176
     1
 40
1.0
176
     1
 90
        8
176
     1
 62
     7
176
     1
 40
1.0
176
     1
 90
        1
176
     1
 90
        6
176
     1
 90
        2
176
     1
 62
     7
176
     1
 90
        5
176
     1
 90
        0
176
     1
 90
        0
176
     1
290
     0
176
     1
 90
       13
176
     1
 40
0.0
176
     1
 90
        0
176
     1
290
     0
176
     1
290
     1
176
     1
290
     1
176
     1
290
     0
176
     1
290
     0
176
     1
290
     0
176
     1
290
     0
176
     1
290
     0
176
     1
290
     0
176
     1
 90
       50
176
     1
 40
0.0
176
     1
 40
1.0
176
     1
 90
        0
176
     1
 62
    18
420
        0
176
     1
 90
       50
176
     1
 90
        3
176
     1
 62
     5
420
      255
176
     1
290
     0
176
     1
 90
       50
176
     1
 90
       50
176
     1
 90
       50
176
     1
290
     0
176
     1
 90
       50
176
     1
 62
   256
176
     0
 40
1.0
176
     0
 90
        2
176
     1
  1
strokes_ogs.tif
176
     1
290
     0
176
     1
 40
1.0
176
     1
 40
1.0
176
     1
  0
VISUALSTYLE
  5
1001F
102
{ACAD_REACTORS
330
1001D
102
}
330
1001D
100
AcDbVisualStyle
  2
FlatWithEdges
 70
     1
177
     3
291
     1
 70
    58
 90
        2
176
     1
 90
        1
176
     1
 90
        1
176
     1
 90
        2
176
     1
 40
0.6
176
     1
 40
30.0
176
     1
 62
     7
420
 16777215
176
     1
 90
        1
176
     1
 90
        0
176
     1
 62
     7
176
     1
 62
   257
176
     1
 90
        1
176
     1
 90
        1
176
     1
 40
1.0
176
     1
 90
        0
176
     1
 62
   257
176
     1
 40
1.0
176
     1
 90
        1
176
     1
 90
        6
176
     1
 90
        2
176
     1
 62
     7
176
     1
 90
        5
176
     1
 90
        0
176
     1
 90
        0
176
     1
290
     0
176
     1
 90
       13
176
     1
 40
0.0
176
     1
 90
        0
176
     1
290
     0
176
     1
290
     1
176
     1
290
     1
176
     1
290
     0
176
     1
290
     0
176
     1
290
     0
176
     1
290
     0
176
     1
290
     0
176
     1
290
     0
176
     1
 90
       50
176
     1
 40
0.0
176
     1
 40
1.0
176
     1
 90
        0
176
     1
 62
    18
420
        0
176
     1
 90
       50
176
     1
 90
        3
176
     1
 62
     5
420
      255
176
     1
290
     0
176
     1
 90
       50
176
     1
 90
       50
176
     1
 90
       50
176
     1
290
     0
176
     1
 90
       50
176
     1
 62
   256
176
     0
 40
1.0
176
     0
 90
        2
176
     1
  1
strokes_ogs.tif
176
     1
290
     0
176
     1
 40
1.0
176
     1
 40
1.0
176
     1
  0
VISUALSTYLE
  5
10020
102
{ACAD_REACTORS
330
1001D
102
}
330
1001D
100
AcDbVisualStyle
  2
Gouraud
 70
     2
177
     3
291
     1
 70
    58
 90
        2
176
     1
 90
        2
176
     1
 90
        1
176
     1
 90
        2
176
     1
 40
0.6
176
     1
 40
30.0
176
     1
 62
     7
420
 16777215
176
     1
 90
        0
176
     1
 90
        0
176
     1
 62
     7
176
     1
 62
   257
176
     1
 90
        1
176
     1
 90
        1
176
     1
 40
1.0
176
     1
 90
        0
176
     1
 62
     7
176
     1
 40
1.0
176
     1
 90
        1
176
     1
 90
        6
176
     1
 90
        2
176
     1
 62
     7
176
     1
 90
        5
176
     1
 90
        0
176
     1
 90
        0
176
     1
290
     0
176
     1
 90
       13
176
     1
 40
0.0
176
     1
 90
        0
176
     1
290
     0
176
     1
290
     1
176
     1
290
     1
176
     1
290
     0
176
     1
290
     0
176
     1
290
     0
176
     1
290
     0
176
     1
290
     0
176
     1
290
     0
176
     1
 90
       50
176
     1
 40
0.0
176
     1
 40
1.0
176
     1
 90
        0
176
     1
 62
    18
420
        0
176
     1
 90
       50
176
     1
 90
        3
176
     1
 62
     5
420
      255
176
     1
290
     0
176
     1
 90
       50
176
     1
 90
       50
176
     1
 90
       50
176
     1
290
     0
176
     1
 90
       50
176
     1
 62
   256
176
     0
 40
1.0
176
     0
 90
        2
176
     1
  1
strokes_ogs.tif
176
     1
290
     0
176
     1
 40
1.0
176
     1
 40
1.0
176
     1
  0
VISUALSTYLE
  5
10021
102
{ACAD_REACTORS
330
1001D
102
}
330
1001D
100
AcDbVisualStyle
  2
GouraudWithEdges
 70
     3
177
     3
291
     1
 70
    58
 90
        2
176
     1
 90
        2
176
     1
 90
        1
176
     1
 90
        2
176
     1
 40
0.6
176
     1
 40
30.0
176
     1
 62
     7
420
 16777215
176
     1
 90
        1
176
     1
 90
        0
176
     1
 62
     7
176
     1
 62
   257
176
     1
 90
        1
176
     1
 90
        1
176
     1
 40
1.0
176
     1
 90
        0
176
     1
 62
   257
176
     1
 40
1.0
176
     1
 90
        1
176
     1
 90
        6
176
     1
 90
        2
176
     1
 62
     7
176
     1
 90
        5
176
     1
 90
        0
176
     1
 90
        0
176
     1
290
     0
176
     1
 90
       13
176
     1
 40
0.0
176
     1
 90
        0
176
     1
290
     0
176
     1
290
     1
176
     1
290
     1
176
     1
290
     0
176
     1
290
     0
176
     1
290
     0
176
     1
290
     0
176
     1
290
     0
176
     1
290
     0
176
     1
 90
       50
176
     1
 40
0.0
176
     1
 40
1.0
176
     1
 90
        0
176
     1
 62
    18
420
        0
176
     1
 90
       50
176
     1
 90
        3
176
     1
 62
     5
420
      255
176
     1
290
     0
176
     1
 90
       50
176
     1
 90
       50
176
     1
 90
       50
176
     1
290
     0
176
     1
 90
       50
176
     1
 62
   256
176
     0
 40
1.0
176
     0
 90
        2
176
     1
  1
strokes_ogs.tif
176
     1
290
     0
176
     1
 40
1.0
176
     1
 40
1.0
176
     1
  0
VISUALSTYLE
  5
10025
102
{ACAD_REACTORS
330
1001D
102
}
330
1001D
100
AcDbVisualStyle
  2
Hidden
 70
     6
177
     3
291
     0
 70
    58
 90
        1
176
     1
 90
        2
176
     1
 90
        2
176
     1
 90
        0
176
     1
 40
0.6
176
     1
 40
30.0
176
     1
 62
     7
420
 16777215
176
     1
 90
        2
176
     1
 90
        2
176
     1
 62
     7
176
     1
 62
   257
176
     1
 90
        2
176
     1
 90
        1
176
     1
 40
40.0
176
     1
 90
        0
176
     1
 62
   257
176
     1
 40
1.0
176
     1
 90
        1
176
     1
 90
        6
176
     1
 90
        2
176
     1
 62
     7
176
     1
 90
        3
176
     1
 90
        0
176
     1
 90
        0
176
     1
290
     0
176
     1
 90
        1
176
     1
 40
0.0
176
     1
 90
        0
176
     1
290
     0
176
     1
290
     1
176
     1
290
     1
176
     1
290
     0
176
     1
290
     0
176
     1
290
     0
176
     1
290
     0
176
     1
290
     0
176
     1
290
     0
176
     1
 90
       50
176
     1
 40
0.0
176
     1
 40
1.0
176
     1
 90
        0
176
     1
 62
    18
420
        0
176
     1
 90
       50
176
     1
 90
        3
176
     1
 62
     5
420
      255
176
     1
290
     0
176
     1
 90
       50
176
     1
 90
       50
176
     1
 90
       50
176
     1
290
     0
176
     1
 90
       50
176
     1
 62
   256
176
     0
 40
1.0
176
     0
 90
        2
176
     1
  1
strokes_ogs.tif
176
     1
290
     0
176
     1
 40
1.0
176
     1
 40
1.0
176
     1
  0
VISUALSTYLE
  5
10033
102
{ACAD_REACTORS
330
1001D
102
}
330
1001D
100
AcDbVisualStyle
  2
JitterOff
 70
    20
177
     3
291
     1
 70
    58
 90
        2
176
     0
 90
        2
176
     0
 90
        0
176
     0
 90
        0
176
     0
 40
0.6
176
     0
 40
30.0
176
     0
 62
     7
420
 16777215
176
     0
 90
        1
176
     0
 90
        4
176
     0
 62
     7
176
     0
 62
   257
176
     0
 90
        1
176
     0
 90
        1
176
     0
 40
1.0
176
     0
 90
       10
176
     2
 62
     7
176
     0
 40
1.0
176
     0
 90
        1
176
     0
 90
        6
176
     0
 90
        2
176
     0
 62
     7
176
     0
 90
        5
176
     0
 90
        0
176
     0
 90
        0
176
     0
290
     0
176
     0
 90
        1
176
     0
 40
0.0
176
     0
 90
        0
176
     0
290
     0
176
     1
290
     1
176
     1
290
     1
176
     1
290
     0
176
     1
290
     0
176
     1
290
     0
176
     1
290
     0
176
     1
290
     0
176
     1
290
     0
176
     1
 90
       50
176
     0
 40
0.0
176
     0
 40
1.0
176
     0
 90
        0
176
     0
 62
    18
420
        0
176
     0
 90
       50
176
     0
 90
        3
176
     0
 62
     5
420
      255
176
     0
290
     0
176
     1
 90
       50
176
     0
 90
       50
176
     0
 90
       50
176
     0
290
     0
176
     1
 90
       50
176
     0
 62
   256
176
     0
 40
1.0
176
     0
 90
        2
176
     0
  1
strokes_ogs.tif
176
     0
290
     0
176
     1
 40
1.0
176
     0
 40
1.0
176
     0
  0
VISUALSTYLE
  5
1002B
102
{ACAD_REACTORS
330
1001D
102
}
330
1001D
100
AcDbVisualStyle
  2
Linepattern
 70
    14
177
     3
291
     1
 70
    58
 90
        2
176
     1
 90
        2
176
     1
 90
        0
176
     1
 90
        0
176
     1
 40
0.6
176
     1
 40
30.0
176
     1
 62
     7
420
 16777215
176
     1
 90
        1
176
     1
 90
        4
176
     1
 62
     7
176
     1
 62
   257
176
     1
 90
        7
176
     1
 90
        7
176
     1
 40
1.0
176
     1
 90
        8
176
     1
 62
     7
176
     1
 40
1.0
176
     1
 90
        1
176
     1
 90
        6
176
     1
 90
        2
176
     1
 62
     7
176
     1
 90
        5
176
     1
 90
        0
176
     1
 90
        0
176
     1
290
     0
176
     1
 90
        1
176
     1
 40
0.0
176
     1
 90
        0
176
     1
290
     0
176
     1
290
     1
176
     1
290
     1
176
     1
290
     0
176
     1
290
     0
176
     1
290
     0
176
     1
290
     0
176
     1
290
     0
176
     1
290
     0
176
     1
 90
       50
176
     1
 40
0.0
176
     1
 40
1.0
176
     1
 90
        0
176
     1
 62
    18
420
        0
176
     1
 90
       50
176
     1
 90
        3
176
     1
 62
     5
420
      255
176
     1
290
     0
176
     1
 90
       50
176
     1
 90
       50
176
     1
 90
       50
176
     1
290
     0
176
     1
 90
       50
176
     1
 62
   256
176
     0
 40
1.0
176
     0
 90
        2
176
     1
  1
strokes_ogs.tif
176
     1
290
     0
176
     1
 40
1.0
176
     1
 40
1.0
176
     1
  0
VISUALSTYLE
  5
10034
102
{ACAD_REACTORS
330
1001D
102
}
330
1001D
100
AcDbVisualStyle
  2
OverhangOff
 70
    21
177
     3
291
     1
 70
    58
 90
        2
176
     0
 90
        2
176
     0
 90
        0
176
     0
 90
        0
176
     0
 40
0.6
176
     0
 40
30.0
176
     0
 62
     7
420
 16777215
176
     0
 90
        1
176
     0
 90
        4
176
     0
 62
     7
176
     0
 62
   257
176
     0
 90
        1
176
     0
 90
        1
176
     0
 40
1.0
176
     0
 90
        9
176
     2
 62
     7
176
     0
 40
1.0
176
     0
 90
        1
176
     0
 90
        6
176
     0
 90
        2
176
     0
 62
     7
176
     0
 90
        5
176
     0
 90
        0
176
     0
 90
        0
176
     0
290
     0
176
     0
 90
        1
176
     0
 40
0.0
176
     0
 90
        0
176
     0
290
     0
176
     1
290
     1
176
     1
290
     1
176
     1
290
     0
176
     1
290
     0
176
     1
290
     0
176
     1
290
     0
176
     1
290
     0
176
     1
290
     0
176
     1
 90
       50
176
     0
 40
0.0
176
     0
 40
1.0
176
     0
 90
        0
176
     0
 62
    18
420
        0
176
     0
 90
       50
176
     0
 90
        3
176
     0
 62
     5
420
      255
176
     0
290
     0
176
     1
 90
       50
176
     0
 90
       50
176
     0
 90
       50
176
     0
290
     0
176
     1
 90
       50
176
     0
 62
   256
176
     0
 40
1.0
176
     0
 90
        2
176
     0
  1
strokes_ogs.tif
176
     0
290
     0
176
     1
 40
1.0
176
     0
 40
1.0
176
     0
  0
VISUALSTYLE
  5
10027
102
{ACAD_REACTORS
330
1001D
102
}
330
1001D
100
AcDbVisualStyle
  2
Realistic
 70
     8
177
     3
291
     0
 70
    58
 90
        2
176
     1
 90
        3
176
     1
 90
        0
176
     1
 90
        2
176
     1
 40
0.6
176
     1
 40
30.0
176
     1
 62
     7
420
 16777215
176
     1
 90
        0
176
     1
 90
        0
176
     1
 62
     7
176
     1
 62
   257
176
     1
 90
        1
176
     1
 90
        1
176
     1
 40
1.0
176
     1
 90
        8
176
     1
 62
   257
176
     1
 40
1.0
176
     1
 90
        1
176
     1
 90
        6
176
     1
 90
        2
176
     1
 62
     7
176
     1
 90
        3
176
     1
 90
        0
176
     1
 90
        0
176
     1
290
     0
176
     1
 90
       13
176
     1
 40
0.0
176
     1
 90
        0
176
     1
290
     0
176
     1
290
     1
176
     1
290
     1
176
     1
290
     0
176
     1
290
     0
176
     1
290
     0
176
     1
290
     0
176
     1
290
     0
176
     1
290
     0
176
     1
 90
       50
176
     1
 40
0.0
176
     1
 40
1.0
176
     1
 90
        0
176
     1
 62
    18
420
        0
176
     1
 90
       50
176
     1
 90
        3
176
     1
 62
     5
420
      255
176
     1
290
     0
176
     1
 90
       50
176
     1
 90
       50
176
     1
 90
       50
176
     1
290
     0
176
     1
 90
       50
176
     1
 62
   256
176
     0
 40
1.0
176
     0
 90
        2
176
     1
  1
strokes_ogs.tif
176
     1
290
     0
176
     1
 40
1.0
176
     1
 40
1.0
176
     1
  0
VISUALSTYLE
  5
10032
102
{ACAD_REACTORS
330
1001D
102
}
330
1001D
100
AcDbVisualStyle
  2
Shaded
 70
    27
177
     3
291
     0
 70
    58
 90
        2
176
     1
 90
        2
176
     1
 90
        1
176
     1
 90
        2
176
     1
 40
0.6
176
     1
 40
30.0
176
     1
 62
     7
420
 16777215
176
     1
 90
        0
176
     1
 90
        4
176
     1
 62
     7
176
     1
 62
   257
176
     1
 90
        1
176
     1
 90
        1
176
     1
 40
1.0
176
     1
 90
        8
176
     1
 62
   257
176
     1
 40
1.0
176
     1
 90
        1
176
     1
 90
        6
176
     1
 90
        2
176
     1
 62
     8
420
  7895160
176
     1
 90
        3
176
     1
 90
        0
176
     1
 90
        0
176
     1
290
     0
176
     1
 90
        5
176
     1
 40
0.0
176
     1
 90
        0
176
     1
290
     0
176
     1
290
     1
176
     1
290
     1
176
     1
290
     0
176
     1
290
     0
176
     1
290
     0
176
     1
290
     0
176
     1
290
     0
176
     1
290
     0
176
     1
 90
       50
176
     1
 40
0.0
176
     1
 40
1.0
176
     1
 90
        0
176
     1
 62
    18
420
        0
176
     1
 90
       50
176
     1
 90
        3
176
     1
 62
     5
420
      255
176
     1
290
     0
176
     1
 90
       50
176
     1
 90
       50
176
     1
 90
       50
176
     1
290
     0
176
     1
 90
       50
176
     1
 62
   256
176
     0
 40
1.0
176
     0
 90
        2
176
     1
  1
strokes_ogs.tif
176
     1
290
     0
176
     1
 40
1.0
176
     1
 40
1.0
176
     1
  0
VISUALSTYLE
  5
10031
102
{ACAD_REACTORS
330
1001D
102
}
330
1001D
100
AcDbVisualStyle
  2
Shaded with edges
 70
    26
177
     3
291
     0
 70
    58
 90
        2
176
     1
 90
        2
176
     1
 90
        1
176
     1
 90
        2
176
     1
 40
0.6
176
     1
 40
30.0
176
     1
 62
     7
420
 16777215
176
     1
 90
        1
176
     1
 90
        2
176
     1
 62
     7
176
     1
 62
   257
176
     1
 90
        2
176
     1
 90
        1
176
     1
 40
1.0
176
     1
 90
        8
176
     1
 62
   257
176
     1
 40
1.0
176
     1
 90
        1
176
     1
 90
        6
176
     1
 90
        2
176
     1
 62
     7
176
     1
 90
        3
176
     1
 90
        0
176
     1
 90
        0
176
     1
290
     0
176
     1
 90
        5
176
     1
 40
0.0
176
     1
 90
        0
176
     1
290
     0
176
     1
290
     1
176
     1
290
     1
176
     1
290
     0
176
     1
290
     0
176
     1
290
     0
176
     1
290
     0
176
     1
290
     0
176
     1
290
     0
176
     1
 90
       50
176
     1
 40
0.0
176
     1
 40
1.0
176
     1
 90
        0
176
     1
 62
    18
420
        0
176
     1
 90
       50
176
     1
 90
        3
176
     1
 62
     5
420
      255
176
     1
290
     0
176
     1
 90
       50
176
     1
 90
       50
176
     1
 90
       50
176
     1
290
     0
176
     1
 90
       50
176
     1
 62
   256
176
     0
 40
1.0
176
     0
 90
        2
176
     1
  1
strokes_ogs.tif
176
     1
290
     0
176
     1
 40
1.0
176
     1
 40
1.0
176
     1
  0
VISUALSTYLE
  5
1002E
102
{ACAD_REACTORS
330
1001D
102
}
330
1001D
100
AcDbVisualStyle
  2
Shades of Gray
 70
    23
177
     3
291
     0
 70
    58
 90
        2
176
     1
 90
        2
176
     1
 90
        3
176
     1
 90
        0
176
     1
 40
0.6
176
     1
 40
30.0
176
     1
 62
     7
420
 16777215
176
     1
 90
        2
176
     1
 90
        2
176
     1
 62
     7
176
     1
 62
     7
176
     1
 90
        1
176
     1
 90
        1
176
     1
 40
40.0
176
     1
 90
        8
176
     1
 62
     7
176
     1
 40
1.0
176
     1
 90
        1
176
     1
 90
        6
176
     1
 90
        2
176
     1
 62
     7
176
     1
 90
        3
176
     1
 90
        0
176
     1
 90
        0
176
     1
290
     0
176
     1
 90
        1
176
     1
 40
0.0
176
     1
 90
        0
176
     1
290
     0
176
     1
290
     1
176
     1
290
     1
176
     1
290
     0
176
     1
290
     0
176
     1
290
     0
176
     1
290
     0
176
     1
290
     0
176
     1
290
     0
176
     1
 90
       50
176
     1
 40
0.0
176
     1
 40
1.0
176
     1
 90
        0
176
     1
 62
    18
420
        0
176
     1
 90
       50
176
     1
 90
        3
176
     1
 62
     5
420
      255
176
     1
290
     0
176
     1
 90
       50
176
     1
 90
       50
176
     1
 90
       50
176
     1
290
     0
176
     1
 90
       50
176
     1
 62
   256
176
     0
 40
1.0
176
     0
 90
        2
176
     1
  1
strokes_ogs.tif
176
     1
290
     0
176
     1
 40
1.0
176
     1
 40
1.0
176
     1
  0
VISUALSTYLE
  5
1002F
102
{ACAD_REACTORS
330
1001D
102
}
330
1001D
100
AcDbVisualStyle
  2
Sketchy
 70
    24
177
     3
291
     0
 70
    58
 90
        1
176
     1
 90
        2
176
     1
 90
        2
176
     1
 90
        0
176
     1
 40
0.6
176
     1
 40
30.0
176
     1
 62
     7
420
 16777215
176
     1
 90
        2
176
     1
 90
        2
176
     1
 62
     7
176
     1
 62
     7
176
     1
 90
        1
176
     1
 90
        1
176
     1
 40
40.0
176
     1
 90
       11
176
     1
 62
     7
176
     1
 40
1.0
176
     1
 90
        1
176
     1
 90
        6
176
     1
 90
        2
176
     1
 62
     7
176
     1
 90
        6
176
     1
 90
        0
176
     1
 90
        0
176
     1
290
     0
176
     1
 90
        1
176
     1
 40
0.0
176
     1
 90
        0
176
     1
290
     0
176
     1
290
     1
176
     1
290
     1
176
     1
290
     0
176
     1
290
     0
176
     1
290
     0
176
     1
290
     0
176
     1
290
     0
176
     1
290
     0
176
     1
 90
       50
176
     1
 40
0.0
176
     1
 40
1.0
176
     1
 90
        0
176
     1
 62
    18
420
        0
176
     1
 90
       50
176
     1
 90
        3
176
     1
 62
     5
420
      255
176
     1
290
     0
176
     1
 90
       50
176
     1
 90
       50
176
     1
 90
       50
176
     1
290
     0
176
     1
 90
       50
176
     1
 62
   256
176
     0
 40
1.0
176
     0
 90
        2
176
     1
  1
strokes_ogs.tif
176
     1
290
     0
176
     1
 40
1.0
176
     1
 40
1.0
176
     1
  0
VISUALSTYLE
  5
1002A
102
{ACAD_REACTORS
330
1001D
102
}
330
1001D
100
AcDbVisualStyle
  2
Thicken
 70
    13
177
     3
291
     1
 70
    58
 90
        2
176
     1
 90
        2
176
     1
 90
        0
176
     1
 90
        0
176
     1
 40
0.6
176
     1
 40
30.0
176
     1
 62
     7
420
 16777215
176
     1
 90
        1
176
     1
 90
        4
176
     1
 62
     7
176
     1
 62
   257
176
     1
 90
        1
176
     1
 90
        1
176
     1
 40
1.0
176
     1
 90
       12
176
     1
 62
     7
176
     1
 40
1.0
176
     1
 90
        1
176
     1
 90
        6
176
     1
 90
        2
176
     1
 62
     7
176
     1
 90
        5
176
     1
 90
        0
176
     1
 90
        0
176
     1
290
     0
176
     1
 90
        1
176
     1
 40
0.0
176
     1
 90
        0
176
     1
290
     0
176
     1
290
     1
176
     1
290
     1
176
     1
290
     0
176
     1
290
     0
176
     1
290
     0
176
     1
290
     0
176
     1
290
     0
176
     1
290
     0
176
     1
 90
       50
176
     1
 40
0.0
176
     1
 40
1.0
176
     1
 90
        0
176
     1
 62
    18
420
        0
176
     1
 90
       50
176
     1
 90
        3
176
     1
 62
     5
420
      255
176
     1
290
     0
176
     1
 90
       50
176
     1
 90
       50
176
     1
 90
       50
176
     1
290
     0
176
     1
 90
       50
176
     1
 62
   256
176
     0
 40
1.0
176
     0
 90
        2
176
     1
  1
strokes_ogs.tif
176
     1
290
     0
176
     1
 40
1.0
176
     1
 40
1.0
176
     1
  0
VISUALSTYLE
  5
10024
102
{ACAD_REACTORS
330
1001D
102
}
330
1001D
100
AcDbVisualStyle
  2
Wireframe
 70
     5
177
     3
291
     0
 70
    58
 90
        0
176
     1
 90
        2
176
     1
 90
        0
176
     1
 90
        0
176
     1
 40
0.6
176
     1
 40
30.0
176
     1
 62
     7
420
 16777215
176
     1
 90
        1
176
     1
 90
        4
176
     1
 62
     7
176
     1
 62
   257
176
     1
 90
        1
176
     1
 90
        1
176
     1
 40
1.0
176
     1
 90
        0
176
     1
 62
   257
176
     1
 40
1.0
176
     1
 90
        1
176
     1
 90
        6
176
     1
 90
        2
176
     1
 62
     7
176
     1
 90
        3
176
     1
 90
        0
176
     1
 90
        0
176
     1
290
     0
176
     1
 90
        1
176
     1
 40
0.0
176
     1
 90
        0
176
     1
290
     0
176
     1
290
     1
176
     1
290
     1
176
     1
290
     0
176
     1
290
     0
176
     1
290
     0
176
     1
290
     0
176
     1
290
     0
176
     1
290
     0
176
     1
 90
       50
176
     1
 40
0.0
176
     1
 40
1.0
176
     1
 90
        0
176
     1
 62
    18
420
        0
176
     1
 90
       50
176
     1
 90
        3
176
     1
 62
     5
420
      255
176
     1
290
     0
176
     1
 90
       50
176
     1
 90
       50
176
     1
 90
       50
176
     1
290
     0
176
     1
 90
       50
176
     1
 62
   256
176
     0
 40
1.0
176
     0
 90
        2
176
     1
  1
strokes_ogs.tif
176
     1
290
     0
176
     1
 40
1.0
176
     1
 40
1.0
176
     1
  0
VISUALSTYLE
  5
10030
102
{ACAD_REACTORS
330
1001D
102
}
330
1001D
100
AcDbVisualStyle
  2
X-Ray
 70
    25
177
     3
291
     0
 70
    58
 90
        2
176
     1
 90
        2
176
     1
 90
        1
176
     1
 90
        1
176
     1
 40
0.5
176
     1
 40
30.0
176
     1
 62
     7
420
 16777215
176
     1
 90
        1
176
     1
 90
        0
176
     1
 62
     7
176
     1
 62
   257
176
     1
 90
        1
176
     1
 90
        1
176
     1
 40
1.0
176
     1
 90
        8
176
     1
 62
     7
176
     1
 40
1.0
176
     1
 90
        1
176
     1
 90
        6
176
     1
 90
        2
176
     1
 62
     7
176
     1
 90
        3
176
     1
 90
        0
176
     1
 90
        0
176
     1
290
     0
176
     1
 90
       13
176
     1
 40
0.0
176
     1
 90
        0
176
     1
290
     0
176
     1
290
     1
176
     1
290
     1
176
     1
290
     0
176
     1
290
     0
176
     1
290
     0
176
     1
290
     0
176
     1
290
     0
176
     1
290
     0
176
     1
 90
       50
176
     1
 40
0.0
176
     1
 40
1.0
176
     1
 90
        0
176
     1
 62
    18
420
        0
176
     1
 90
       50
176
     1
 90
        3
176
     1
 62
     5
420
      255
176
     1
290
     0
176
     1
 90
       50
176
     1
 90
       50
176
     1
 90
       50
176
     1
290
     0
176
     1
 90
       50
176
     1
 62
   256
176
     0
 40
1.0
176
     0
 90
        2
176
     1
  1
strokes_ogs.tif
176
     1
290
     0
176
     1
 40
1.0
176
     1
 40
1.0
176
     1
  0
DICTIONARYVAR
  5
10065
102
{ACAD_REACTORS
330
1005F
102
}
330
1005F
100
DictionaryVariables
280
     0
  1
1:1
  0
DICTIONARYVAR
  5
10061
102
{ACAD_REACTORS
330
1005F
102
}
330
1005F
100
DictionaryVariables
280
     0
  1
STANDARD
  0
DICTIONARYVAR
  5
10060
102
{ACAD_REACTORS
330
1005F
102
}
330
1005F
100
DictionaryVariables
280
     0
  1
STANDARD
  0
DICTIONARYVAR
  5
10062
102
{ACAD_REACTORS
330
1005F
102
}
330
1005F
100
DictionaryVariables
280
     0
  1
Imperial24
  0
DICTIONARYVAR
  5
10063
102
{ACAD_REACTORS
330
1005F
102
}
330
1005F
100
DictionaryVariables
280
     0
  1
Imperial24
  0
DICTIONARYVAR
  5
10067
102
{ACAD_REACTORS
330
1005F
102
}
330
1005F
100
DictionaryVariables
280
     0
  1
1
  0
DICTIONARYVAR
  5
10068
102
{ACAD_REACTORS
330
1005F
102
}
330
1005F
100
DictionaryVariables
280
     0
  1
15
  0
DICTIONARYVAR
  5
10066
102
{ACAD_REACTORS
330
1005F
102
}
330
1005F
100
DictionaryVariables
280
     0
  1
0
  0
DICTIONARYVAR
  5
10064
102
{ACAD_REACTORS
330
1005F
102
}
330
1005F
100
DictionaryVariables
280
     0
  1
0
  0
DICTIONARY
  5
1000E
330
1000D
100
AcDbDictionary
280
     1
281
     1
  3
BUMPTILE
360
10010
  3
DIFFUSETILE
360
1000F
  3
OPACITYTILE
360
10013
  3
REFLECTIONTILE
360
10012
  3
REFRACTIONTILE
360
10014
  3
SPECULARTILE
360
10011
  0
DICTIONARY
  5
10006
330
10005
100
AcDbDictionary
280
     1
281
     1
  3
BUMPTILE
360
10008
  3
DIFFUSETILE
360
10007
  3
OPACITYTILE
360
1000B
  3
REFLECTIONTILE
360
1000A
  3
REFRACTIONTILE
360
1000C
  3
SPECULARTILE
360
10009
  0
DICTIONARY
  5
10016
330
10015
100
AcDbDictionary
280
     1
281
     1
  3
BUMPTILE
360
10018
  3
DIFFUSETILE
360
10017
  3
OPACITYTILE
360
1001B
  3
REFLECTIONTILE
360
1001A
  3
REFRACTIONTILE
360
1001C
  3
SPECULARTILE
360
10019
  0
DICTIONARY
  5
10069
330
10039
100
AcDbDictionary
280
     1
281
     1
  3
ACAD_ROUNDTRIP_2008_TABLESTYLE_CELLSTYLEMAP
360
1006A
  0
XRECORD
  5
10010
102
{ACAD_REACTORS
330
1000E
102
}
330
1000E
100
AcDbXrecord
280
     1
270
     1
271
     1
  0
XRECORD
  5
1000F
102
{ACAD_REACTORS
330
1000E
102
}
330
1000E
100
AcDbXrecord
280
     1
270
     1
271
     1
  0
XRECORD
  5
10013
102
{ACAD_REACTORS
330
1000E
102
}
330
1000E
100
AcDbXrecord
280
     1
270
     1
271
     1
  0
XRECORD
  5
10012
102
{ACAD_REACTORS
330
1000E
102
}
330
1000E
100
AcDbXrecord
280
     1
270
     1
271
     1
  0
XRECORD
  5
10014
102
{ACAD_REACTORS
330
1000E
102
}
330
1000E
100
AcDbXrecord
280
     1
270
     1
271
     1
  0
XRECORD
  5
10011
102
{ACAD_REACTORS
330
1000E
102
}
330
1000E
100
AcDbXrecord
280
     1
270
     1
271
     1
  0
XRECORD
  5
10008
102
{ACAD_REACTORS
330
10006
102
}
330
10006
100
AcDbXrecord
280
     1
270
     1
271
     1
  0
XRECORD
  5
10007
102
{ACAD_REACTORS
330
10006
102
}
330
10006
100
AcDbXrecord
280
     1
270
     1
271
     1
  0
XRECORD
  5
1000B
102
{ACAD_REACTORS
330
10006
102
}
330
10006
100
AcDbXrecord
280
     1
270
     1
271
     1
  0
XRECORD
  5
1000A
102
{ACAD_REACTORS
330
10006
102
}
330
10006
100
AcDbXrecord
280
     1
270
     1
271
     1
  0
XRECORD
  5
1000C
102
{ACAD_REACTORS
330
10006
102
}
330
10006
100
AcDbXrecord
280
     1
270
     1
271
     1
  0
XRECORD
  5
10009
102
{ACAD_REACTORS
330
10006
102
}
330
10006
100
AcDbXrecord
280
     1
270
     1
271
     1
  0
XRECORD
  5
10018
102
{ACAD_REACTORS
330
10016
102
}
330
10016
100
AcDbXrecord
280
     1
270
     1
271
     1
  0
XRECORD
  5
10017
102
{ACAD_REACTORS
330
10016
102
}
330
10016
100
AcDbXrecord
280
     1
270
     1
271
     1
  0
XRECORD
  5
1001B
102
{ACAD_REACTORS
330
10016
102
}
330
10016
100
AcDbXrecord
280
     1
270
     1
271
     1
  0
XRECORD
  5
1001A
102
{ACAD_REACTORS
330
10016
102
}
330
10016
100
AcDbXrecord
280
     1
270
     1
271
     1
  0
XRECORD
  5
1001C
102
{ACAD_REACTORS
330
10016
102
}
330
10016
100
AcDbXrecord
280
     1
270
     1
271
     1
  0
XRECORD
  5
10019
102
{ACAD_REACTORS
330
10016
102
}
330
10016
100
AcDbXrecord
280
     1
270
     1
271
     1
  0
CELLSTYLEMAP
  5
1006A
102
{ACAD_REACTORS
330
10069
102
}
330
10069
100
AcDbCellStyleMap
 90
        3
300
CELLSTYLE
  1
TABLEFORMAT_BEGIN
 90
        5
170
     1
 91
        0
 92
    32768
 62
   257
 93
        1
300
CONTENTFORMAT
  1
CONTENTFORMAT_BEGIN
 90
        0
 91
        0
 92
      512
 93
        0
300

 40
0.0
140
1.0
 94
        5
 62
     0
340
11
144
0.25
309
CONTENTFORMAT_END
171
     0
 94
        0
309
TABLEFORMAT_END
  1
CELLSTYLE_BEGIN
 90
        1
 91
        1
300
_TITLE
309
CELLSTYLE_END
300
CELLSTYLE
  1
TABLEFORMAT_BEGIN
 90
        5
170
     1
 91
        0
 92
        0
 62
   257
 93
        1
300
CONTENTFORMAT
  1
CONTENTFORMAT_BEGIN
 90
        0
 91
        0
 92
      512
 93
        0
300

 40
0.0
140
1.0
 94
        5
 62
     0
340
11
144
0.18
309
CONTENTFORMAT_END
171
     0
 94
        0
309
TABLEFORMAT_END
  1
CELLSTYLE_BEGIN
 90
        2
 91
        1
300
_HEADER
309
CELLSTYLE_END
300
CELLSTYLE
  1
TABLEFORMAT_BEGIN
 90
        5
170
     1
 91
        0
 92
        0
 62
   257
 93
        1
300
CONTENTFORMAT
  1
CONTENTFORMAT_BEGIN
 90
        0
 91
        0
 92
      512
 93
        0
300

 40
0.0
140
1.0
 94
        2
 62
     0
340
11
144
0.18
309
CONTENTFORMAT_END
171
     0
 94
        0
309
TABLEFORMAT_END
  1
CELLSTYLE_BEGIN
 90
        3
 91
        2
300
_DATA
309
CELLSTYLE_END
  0
ENDSEC
  0
EOF
