  0
SECTION
  2
HEADER
  9
$ACADVER
  1
AC1032
  9
$ACADMAINTVER
 90
        4
  9
$DWGCODEPAGE
  3
ANSI_1252
  9
$LASTSAVEDBY
  1
Aluno
  9
$REQUIREDVERSIONS
160
                 0
  9
$INSBASE
 10
0.0
 20
0.0
 30
0.0
  9
$EXTMIN
 10
-335.7135702193513
 20
235.2210114200573
 30
0.0
  9
$EXTMAX
 10
47.5621595752685
 20
928.4642615309152
 30
0.0
  9
$LIMMIN
 10
0.0
 20
0.0
  9
$LIMMAX
 10
12.0
 20
9.0
  9
$ORTHOMODE
 70
     0
  9
$REGENMODE
 70
     1
  9
$FILLMODE
 70
     1
  9
$QTEXTMODE
 70
     0
  9
$MIRRTEXT
 70
     0
  9
$LTSCALE
 40
1.0
  9
$ATTMODE
 70
     1
  9
$TEXTSIZE
 40
0.2
  9
$TRACEWID
 40
0.05
  9
$TEXTSTYLE
  7
STANDARD
  9
$CLAYER
  8
0
  9
$CELTYPE
  6
Continuous
  9
$CECOLOR
 62
   256
  9
$CELTSCALE
 40
1.0
  9
$DISPSILH
 70
     0
  9
$DIMSCALE
 40
1.0
  9
$DIMASZ
 40
0.18
  9
$DIMEXO
 40
0.0625
  9
$DIMDLI
 40
0.38
  9
$DIMRND
 40
0.0
  9
$DIMDLE
 40
0.0
  9
$DIMEXE
 40
0.18
  9
$DIMTP
 40
0.0
  9
$DIMTM
 40
0.0
  9
$DIMTXT
 40
0.18
  9
$DIMCEN
 40
0.09
  9
$DIMTSZ
 40
0.0
  9
$DIMTOL
 70
     0
  9
$DIMLIM
 70
     0
  9
$DIMTIH
 70
     1
  9
$DIMTOH
 70
     1
  9
$DIMSE1
 70
     0
  9
$DIMSE2
 70
     0
  9
$DIMTAD
 70
     0
  9
$DIMZIN
 70
     0
  9
$DIMBLK
  1

  9
$DIMASO
 70
     1
  9
$DIMSHO
 70
     1
  9
$DIMPOST
  1

  9
$DIMAPOST
  1

  9
$DIMALT
 70
     0
  9
$DIMALTD
 70
     2
  9
$DIMALTF
 40
25.4
  9
$DIMLFAC
 40
1.0
  9
$DIMTOFL
 70
     0
  9
$DIMTVP
 40
0.0
  9
$DIMTIX
 70
     0
  9
$DIMSOXD
 70
     0
  9
$DIMSAH
 70
     0
  9
$DIMBLK1
  1

  9
$DIMBLK2
  1

  9
$DIMSTYLE
  2
Standard
  9
$DIMCLRD
 70
     0
  9
$DIMCLRE
 70
     0
  9
$DIMCLRT
 70
     0
  9
$DIMTFAC
 40
1.0
  9
$DIMGAP
 40
0.09
  9
$DIMJUST
 70
     0
  9
$DIMSD1
 70
     0
  9
$DIMSD2
 70
     0
  9
$DIMTOLJ
 70
     1
  9
$DIMTZIN
 70
     0
  9
$DIMALTZ
 70
     0
  9
$DIMALTTZ
 70
     0
  9
$DIMUPT
 70
     0
  9
$DIMDEC
 70
     4
  9
$DIMTDEC
 70
     4
  9
$DIMALTU
 70
     2
  9
$DIMALTTD
 70
     2
  9
$DIMTXSTY
  7
STANDARD
  9
$DIMAUNIT
 70
     0
  9
$DIMADEC
 70
     0
  9
$DIMALTRND
 40
0.0
  9
$DIMAZIN
 70
     0
  9
$DIMDSEP
 70
    46
  9
$DIMATFIT
 70
     3
  9
$DIMFRAC
 70
     0
  9
$DIMLDRBLK
  1

  9
$DIMLUNIT
 70
     2
  9
$DIMLWD
 70
    -2
  9
$DIMLWE
 70
    -2
  9
$DIMTMOVE
 70
     0
  9
$DIMFXL
 40
1.0
  9
$DIMFXLON
 70
     0
  9
$DIMJOGANG
 40
0.7853981633974483
  9
$DIMTFILL
 70
     0
  9
$DIMTFILLCLR
 70
     0
  9
$DIMARCSYM
 70
     0
  9
$DIMLTYPE
  6

  9
$DIMLTEX1
  6

  9
$DIMLTEX2
  6

  9
$DIMTXTDIRECTION
 70
     0
  9
$LUNITS
 70
     2
  9
$LUPREC
 70
     4
  9
$SKETCHINC
 40
0.1
  9
$FILLETRAD
 40
0.0
  9
$AUNITS
 70
     0
  9
$AUPREC
 70
     0
  9
$MENU
  1
.
  9
$ELEVATION
 40
0.0
  9
$PELEVATION
 40
0.0
  9
$THICKNESS
 40
0.0
  9
$LIMCHECK
 70
     0
  9
$CHAMFERA
 40
0.0
  9
$CHAMFERB
 40
0.0
  9
$CHAMFERC
 40
0.0
  9
$CHAMFERD
 40
0.0
  9
$SKPOLY
 70
     0
  9
$TDCREATE
 40
2458572.462083333
  9
$TDUCREATE
 40
2458572.587083333
  9
$TDUPDATE
 40
2458572.469606481
  9
$TDUUPDATE
 40
2458572.594606482
  9
$TDINDWG
 40
0.0075231481
  9
$TDUSRTIMER
 40
0.0075231481
  9
$USRTIMER
 70
     1
  9
$ANGBASE
 50
0.0
  9
$ANGDIR
 70
     0
  9
$PDMODE
 70
     0
  9
$PDSIZE
 40
0.0
  9
$PLINEWID
 40
0.0
  9
$SPLFRAME
 70
     0
  9
$SPLINETYPE
 70
     6
  9
$SPLINESEGS
 70
     8
  9
$HANDSEED
  5
10085
  9
$SURFTAB1
 70
     6
  9
$SURFTAB2
 70
     6
  9
$SURFTYPE
 70
     6
  9
$SURFU
 70
     6
  9
$SURFV
 70
     6
  9
$UCSBASE
  2

  9
$UCSNAME
  2

  9
$UCSORG
 10
0.0
 20
0.0
 30
0.0
  9
$UCSXDIR
 10
1.0
 20
0.0
 30
0.0
  9
$UCSYDIR
 10
0.0
 20
1.0
 30
0.0
  9
$UCSORTHOREF
  2

  9
$UCSORTHOVIEW
 70
     0
  9
$UCSORGTOP
 10
0.0
 20
0.0
 30
0.0
  9
$UCSORGBOTTOM
 10
0.0
 20
0.0
 30
0.0
  9
$UCSORGLEFT
 10
0.0
 20
0.0
 30
0.0
  9
$UCSORGRIGHT
 10
0.0
 20
0.0
 30
0.0
  9
$UCSORGFRONT
 10
0.0
 20
0.0
 30
0.0
  9
$UCSORGBACK
 10
0.0
 20
0.0
 30
0.0
  9
$PUCSBASE
  2

  9
$PUCSNAME
  2

  9
$PUCSORG
 10
0.0
 20
0.0
 30
0.0
  9
$PUCSXDIR
 10
1.0
 20
0.0
 30
0.0
  9
$PUCSYDIR
 10
0.0
 20
1.0
 30
0.0
  9
$PUCSORTHOREF
  2

  9
$PUCSORTHOVIEW
 70
     0
  9
$PUCSORGTOP
 10
0.0
 20
0.0
 30
0.0
  9
$PUCSORGBOTTOM
 10
0.0
 20
0.0
 30
0.0
  9
$PUCSORGLEFT
 10
0.0
 20
0.0
 30
0.0
  9
$PUCSORGRIGHT
 10
0.0
 20
0.0
 30
0.0
  9
$PUCSORGFRONT
 10
0.0
 20
0.0
 30
0.0
  9
$PUCSORGBACK
 10
0.0
 20
0.0
 30
0.0
  9
$USERI1
 70
     0
  9
$USERI2
 70
     0
  9
$USERI3
 70
     0
  9
$USERI4
 70
     0
  9
$USERI5
 70
     0
  9
$USERR1
 40
0.0
  9
$USERR2
 40
0.0
  9
$USERR3
 40
0.0
  9
$USERR4
 40
0.0
  9
$USERR5
 40
0.0
  9
$WORLDVIEW
 70
     1
  9
$SHADEDGE
 70
     3
  9
$SHADEDIF
 70
    70
  9
$TILEMODE
 70
     1
  9
$MAXACTVP
 70
    64
  9
$PINSBASE
 10
0.0
 20
0.0
 30
0.0
  9
$PLIMCHECK
 70
     0
  9
$PEXTMIN
 10
1.000000000000000E+20
 20
1.000000000000000E+20
 30
1.000000000000000E+20
  9
$PEXTMAX
 10
-1.000000000000000E+20
 20
-1.000000000000000E+20
 30
-1.000000000000000E+20
  9
$PLIMMIN
 10
0.0
 20
0.0
  9
$PLIMMAX
 10
12.0
 20
9.0
  9
$UNITMODE
 70
     0
  9
$VISRETAIN
 70
     1
  9
$PLINEGEN
 70
     0
  9
$PSLTSCALE
 70
     1
  9
$TREEDEPTH
 70
  3020
  9
$CMLSTYLE
  2
Standard
  9
$CMLJUST
 70
     0
  9
$CMLSCALE
 40
1.0
  9
$PROXYGRAPHICS
 70
     1
  9
$MEASUREMENT
 70
     0
  9
$CELWEIGHT
370
    -1
  9
$ENDCAPS
280
     0
  9
$JOINSTYLE
280
     0
  9
$LWDISPLAY
290
     0
  9
$INSUNITS
 70
     4
  9
$HYPERLINKBASE
  1

  9
$STYLESHEET
  1

  9
$XEDIT
290
     1
  9
$CEPSNTYPE
380
     0
  9
$PSTYLEMODE
290
     1
  9
$FINGERPRINTGUID
  2
{28967DC7-952F-6944-8700-1BB70900179D}
  9
$VERSIONGUID
  2
{9CB6D03F-36ED-E34E-854A-25F0E5AB8052}
  9
$EXTNAMES
290
     1
  9
$PSVPSCALE
 40
0.0
  9
$OLESTARTUP
290
     0
  9
$SORTENTS
280
   127
  9
$INDEXCTL
280
     0
  9
$HIDETEXT
280
     0
  9
$XCLIPFRAME
280
     2
  9
$HALOGAP
280
     0
  9
$OBSCOLOR
 70
   257
  9
$OBSLTYPE
280
     0
  9
$INTERSECTIONDISPLAY
280
     0
  9
$INTERSECTIONCOLOR
 70
   257
  9
$DIMASSOC
280
     1
  9
$PROJECTNAME
  1

  9
$CAMERADISPLAY
290
     0
  9
$LENSLENGTH
 40
50.0
  9
$CAMERAHEIGHT
 40
0.0
  9
$STEPSPERSEC
 40
2.0
  9
$STEPSIZE
 40
6.0
  9
$3DDWFPREC
 40
2.0
  9
$PSOLWIDTH
 40
0.25
  9
$PSOLHEIGHT
 40
4.0
  9
$LOFTANG1
 40
1.570796326794896
  9
$LOFTANG2
 40
1.570796326794896
  9
$LOFTMAG1
 40
0.0
  9
$LOFTMAG2
 40
0.0
  9
$LOFTPARAM
 70
     7
  9
$LOFTNORMALS
280
     1
  9
$LATITUDE
 40
37.795
  9
$LONGITUDE
 40
-122.394
  9
$NORTHDIRECTION
 40
0.0
  9
$TIMEZONE
 70
 -8000
  9
$LIGHTGLYPHDISPLAY
280
     1
  9
$TILEMODELIGHTSYNCH
280
     1
  9
$CMATERIAL
347
10005
  9
$SOLIDHIST
280
     0
  9
$SHOWHIST
280
     1
  9
$DWFFRAME
280
     2
  9
$DGNFRAME
280
     0
  9
$REALWORLDSCALE
290
     1
  9
$INTERFERECOLOR
 62
     1
  9
$INTERFEREOBJVS
345
10027
  9
$INTERFEREVPVS
346
10024
  9
$CSHADOW
280
     0
  9
$SHADOWPLANELOCATION
 40
0.0
  0
ENDSEC
  0
SECTION
  2
CLASSES
  0
CLASS
  1
ACDBDICTIONARYWDFLT
  2
AcDbDictionaryWithDefault
  3
ObjectDBX Classes
 90
        0
 91
        1
280
     0
281
     0
  0
CLASS
  1
MATERIAL
  2
AcDbMaterial
  3
ObjectDBX Classes
 90
     1153
 91
        3
280
     0
281
     0
  0
CLASS
  1
VISUALSTYLE
  2
AcDbVisualStyle
  3
ObjectDBX Classes
 90
     4095
 91
       24
280
     0
281
     0
  0
CLASS
  1
TABLESTYLE
  2
AcDbTableStyle
  3
ObjectDBX Classes
 90
     4095
 91
        1
280
     0
281
     0
  0
CLASS
  1
SCALE
  2
AcDbScale
  3
ObjectDBX Classes
 90
     1153
 91
       17
280
     0
281
     0
  0
CLASS
  1
MLEADERSTYLE
  2
AcDbMLeaderStyle
  3
ACDB_MLEADERSTYLE_CLASS
 90
     4095
 91
        1
280
     0
281
     0
  0
CLASS
  1
ACDBSECTIONVIEWSTYLE
  2
AcDbSectionViewStyle
  3
ObjectDBX Classes
 90
     1025
 91
        1
280
     0
281
     0
  0
CLASS
  1
ACDBDETAILVIEWSTYLE
  2
AcDbDetailViewStyle
  3
ObjectDBX Classes
 90
     1025
 91
        1
280
     0
281
     0
  0
CLASS
  1
EXACXREFPANELOBJECT
  2
ExAcXREFPanelObject
  3
EXAC_ESW
 90
     1025
 91
        1
280
     0
281
     0
  0
CLASS
  1
NPOCOLLECTION
  2
AcDbImpNonPersistentObjectsCollection
  3
ObjectDBX Classes
 90
     1153
 91
        1
280
     0
281
     0
  0
CLASS
  1
DICTIONARYVAR
  2
AcDbDictionaryVar
  3
ObjectDBX Classes
 90
        0
 91
       18
280
     0
281
     0
  0
CLASS
  1
CELLSTYLEMAP
  2
AcDbCellStyleMap
  3
ObjectDBX Classes
 90
     1152
 91
        1
280
     0
281
     0
  0
ENDSEC
  0
SECTION
  2
TABLES
  0
TABLE
  2
VPORT
  5
8
330
0
100
AcDbSymbolTable
 70
     1
  0
VPORT
  5
10059
330
8
100
AcDbSymbolTableRecord
100
AcDbViewportTableRecord
  2
*Active
 70
     0
 10
0.0
 20
0.0
 11
1.0
 21
1.0
 12
-512.5420261238671
 22
706.4737390662094
 13
0.0
 23
0.0
 14
1.0
 24
1.0
 15
0.0
 25
0.0
 16
0.0
 26
0.0
 36
1.0
 17
0.0
 27
0.0
 37
0.0
 40
1164.959004587061
 41
2.283154121863799
 42
50.0
 43
0.0
 44
0.0
 50
0.0
 51
0.0
 71
     0
 72
  1000
 73
     1
 74
     3
 75
     0
 76
     0
 77
     0
 78
     0
281
     0
 65
     1
110
0.0
120
0.0
130
0.0
111
1.0
121
0.0
131
0.0
112
0.0
122
1.0
132
0.0
 79
     0
146
0.0
348
10023
 60
     3
 61
     5
292
     1
282
     1
141
0.0
142
0.0
 63
   250
421
  3355443
1001
ACAD_NAV_VCDISPLAY
1070
     1
  0
ENDTAB
  0
TABLE
  2
LTYPE
  5
5
330
0
100
AcDbSymbolTable
 70
     2
  0
LTYPE
  5
14
330
5
100
AcDbSymbolTableRecord
100
AcDbLinetypeTableRecord
  2
BYBLOCK
 70
     0
  3

 72
    65
 73
     0
 40
0.0
  0
LTYPE
  5
15
330
5
100
AcDbSymbolTableRecord
100
AcDbLinetypeTableRecord
  2
BYLAYER
 70
     0
  3

 72
    65
 73
     0
 40
0.0
  0
LTYPE
  5
10001
330
5
100
AcDbSymbolTableRecord
100
AcDbLinetypeTableRecord
  2
Continuous
 70
     0
  3
Solid line
 72
    65
 73
     0
 40
0.0
  0
ENDTAB
  0
TABLE
  2
LAYER
  5
2
102
{ACAD_XDICTIONARY
360
10072
102
}
330
0
100
AcDbSymbolTable
 70
     1
  0
LAYER
  5
50
102
{ACAD_XDICTIONARY
360
1006D
102
}
330
2
100
AcDbSymbolTableRecord
100
AcDbLayerTableRecord
  2
0
 70
     0
 62
     7
  6
Continuous
370
    -3
390
10003
347
10015
348
0
  0
ENDTAB
  0
TABLE
  2
STYLE
  5
3
330
0
100
AcDbSymbolTable
 70
     1
  0
STYLE
  5
11
330
3
100
AcDbSymbolTableRecord
100
AcDbTextStyleTableRecord
  2
STANDARD
 70
     0
 40
0.0
 41
1.0
 50
0.0
 71
     0
 42
0.2
  3

  4

  0
ENDTAB
  0
TABLE
  2
VIEW
  5
6
330
0
100
AcDbSymbolTable
 70
     1
  0
ENDTAB
  0
TABLE
  2
UCS
  5
7
330
0
100
AcDbSymbolTable
 70
     0
  0
ENDTAB
  0
TABLE
  2
APPID
  5
9
330
0
100
AcDbSymbolTable
 70
     2
  0
APPID
  5
12
330
9
100
AcDbSymbolTableRecord
100
AcDbRegAppTableRecord
  2
ACAD
 70
     0
  0
APPID
  5
10058
330
9
100
AcDbSymbolTableRecord
100
AcDbRegAppTableRecord
  2
ACAD_NAV_VCDISPLAY
 70
     0
  0
ENDTAB
  0
TABLE
  2
DIMSTYLE
  5
A
330
0
100
AcDbSymbolTable
 70
     2
100
AcDbDimStyleTable
 71
     1
340
10053
  0
DIMSTYLE
105
10053
330
A
100
AcDbSymbolTableRecord
100
AcDbDimStyleTableRecord
  2
Standard
 70
     0
340
11
  0
ENDTAB
  0
TABLE
  2
BLOCK_RECORD
  5
1
330
0
100
AcDbSymbolTable
 70
     1
  0
BLOCK_RECORD
  5
1F
330
1
100
AcDbSymbolTableRecord
100
AcDbBlockTableRecord
  2
*MODEL_SPACE
340
10055
 70
     0
280
     1
281
     0
  0
BLOCK_RECORD
  5
1B
330
1
100
AcDbSymbolTableRecord
100
AcDbBlockTableRecord
  2
*PAPER_SPACE
340
10056
 70
     0
280
     1
281
     0
  0
ENDTAB
  0
ENDSEC
  0
SECTION
  2
BLOCKS
  0
BLOCK
  5
20
330
1F
100
AcDbEntity
  8
0
100
AcDbBlockBegin
  2
*MODEL_SPACE
 70
     0
 10
0.0
 20
0.0
 30
0.0
  3
*MODEL_SPACE
  1

  0
ENDBLK
  5
21
330
1F
100
AcDbEntity
  8
0
100
AcDbBlockEnd
  0
BLOCK
  5
1C
330
1B
100
AcDbEntity
 67
     1
  8
0
100
AcDbBlockBegin
  2
*PAPER_SPACE
 70
     0
 10
0.0
 20
0.0
 30
0.0
  3
*PAPER_SPACE
  1

  0
ENDBLK
  5
1D
330
1B
100
AcDbEntity
 67
     1
  8
0
100
AcDbBlockEnd
  0
ENDSEC
  0
SECTION
  2
ENTITIES
  0
LWPOLYLINE
  5
100
330
1F
100
AcDbEntity
  8
0
100
AcDbPolyline
 90
       24
 70
     1
 43
0.0
 10
-171.0078835899311
 20
825.8891820518524
 10
-170.7081835899311
 20
826.6127220518523
 10
-170.6059585899311
 20
827.3891820518525
 10
-170.7081835899311
 20
828.1656410518523
 10
-171.0078835899311
 20
828.8891820518525
 10
-171.4846365899311
 20
829.5105040518524
 10
-172.1059585899311
 20
829.9872570518525
 10
-172.8294985899311
 20
830.2869570518524
 10
-173.6059585899311
 20
830.3891820518524
 10
-174.3824185899311
 20
830.2869570518524
 10
-175.1059585899311
 20
829.9872570518525
 10
-175.7272805899311
 20
829.5105040518524
 10
-176.2040335899311
 20
828.8891820518525
 10
-176.5037335899311
 20
828.1656410518523
 10
-176.6059585899311
 20
827.3891820518525
 10
-176.5037335899311
 20
826.6127220518523
 10
-176.2040335899311
 20
825.8891820518524
 10
-175.7272805899311
 20
825.2678590518524
 10
-175.1059585899311
 20
824.7911070518524
 10
-174.3824185899311
 20
824.4914060518526
 10
-173.6059585899311
 20
824.3891820518523
 10
-172.8294985899311
 20
824.4914060518526
 10
-172.1059585899311
 20
824.7911070518524
 10
-171.4846365899311
 20
825.2678590518524
  0
LWPOLYLINE
  5
101
330
1F
100
AcDbEntity
  8
0
100
AcDbPolyline
 90
       24
 70
     1
 43
0.0
 10
-192.9184585899311
 20
853.1134620518523
 10
-193.1514535899311
 20
852.9346760518524
 10
-193.3302365899311
 20
852.7016820518523
 10
-193.4426255899311
 20
852.4303540518523
 10
-193.4809585899311
 20
852.1391820518525
 10
-193.4426255899311
 20
851.8480090518524
 10
-193.3302365899311
 20
851.5766820518525
 10
-193.1514535899311
 20
851.3436870518523
 10
-192.9184585899311
 20
851.1649010518521
 10
-192.6471305899311
 20
851.0525140518524
 10
-192.3559585899311
 20
851.0141820518525
 10
-192.0647865899311
 20
851.0525140518524
 10
-191.7934585899311
 20
851.1649010518521
 10
-191.5604635899311
 20
851.3436870518523
 10
-191.3816805899311
 20
851.5766820518525
 10
-191.2692915899311
 20
851.8480090518524
 10
-191.2309585899311
 20
852.1391820518525
 10
-191.2692915899311
 20
852.4303610518524
 10
-191.3816805899311
 20
852.7016890518522
 10
-191.5604635899311
 20
852.9346840518524
 10
-191.7934585899311
 20
853.1134690518523
 10
-192.0647865899311
 20
853.2258570518523
 10
-192.3559585899311
 20
853.2641820518524
 10
-192.6471305899311
 20
853.2258490518524
  0
LWPOLYLINE
  5
102
330
1F
100
AcDbEntity
  8
0
100
AcDbPolyline
 90
       32
 70
     1
 43
0.0
 10
-187.9309585899311
 20
925.3893740518524
 10
-187.9309585899311
 20
913.2393730518524
 10
-178.9309585899311
 20
913.2393730518524
 10
-178.9309585899311
 20
925.3893740518524
 10
-175.4809585899311
 20
925.3893740518524
 10
-175.4809585899311
 20
928.3893740518523
 10
-167.9809585899311
 20
928.3893740518523
 10
-167.9809585899311
 20
925.3893740518524
 10
-164.2309585899311
 20
925.3893740518524
 10
-164.2309585899311
 20
913.2393730518524
 10
-157.4809585899311
 20
913.2393730518524
 10
-157.4809585899311
 20
925.3893740518524
 10
-130.1059585899311
 20
925.3893740518524
 10
-130.1059585899311
 20
857.8893740518523
 10
-127.1059585899311
 20
857.8893740518523
 10
-127.1059585899311
 20
842.8893740518525
 10
-130.1059585899311
 20
842.8893740518525
 10
-130.1059585899311
 20
775.3893740518524
 10
-166.1059585899311
 20
775.3893740518524
 10
-166.1059585899311
 20
772.3893740518524
 10
-181.1059585899311
 20
772.3893740518524
 10
-181.1059585899311
 20
775.3893740518524
 10
-232.1059585899311
 20
775.3893740518524
 10
-232.1059585899311
 20
772.3893740518524
 10
-239.6059585899311
 20
772.3893740518524
 10
-239.6059585899311
 20
775.3893740518524
 10
-247.1059585899311
 20
775.3893740518524
 10
-247.1059585899311
 20
925.3893740518524
 10
-239.6059585899311
 20
925.3893740518524
 10
-239.6059585899311
 20
928.3893740518523
 10
-232.1059585899311
 20
928.3893740518523
 10
-232.1059585899311
 20
925.3893740518524
  0
LWPOLYLINE
  5
103
330
1F
100
AcDbEntity
  8
0
100
AcDbPolyline
 90
       24
 70
     1
 43
0.0
 10
-168.5802385899311
 20
851.5766740518524
 10
-168.4014535899311
 20
851.3436790518523
 10
-168.1684585899311
 20
851.1648940518524
 10
-167.8971305899311
 20
851.0525070518523
 10
-167.6059585899311
 20
851.0141820518525
 10
-167.3147785899311
 20
851.0525140518524
 10
-167.0434515899311
 20
851.1649010518521
 10
-166.8104565899311
 20
851.3436870518523
 10
-166.6316705899311
 20
851.5766820518525
 10
-166.5192835899311
 20
851.8480090518524
 10
-166.4809585899311
 20
852.1391820518525
 10
-166.5192905899311
 20
852.4303540518523
 10
-166.6316785899311
 20
852.7016890518522
 10
-166.8104635899311
 20
852.9346840518524
 10
-167.0434585899311
 20
853.1134690518523
 10
-167.3147865899311
 20
853.2258570518523
 10
-167.6059585899311
 20
853.2641820518524
 10
-167.8971385899311
 20
853.2258490518524
 10
-168.1684655899311
 20
853.1134620518523
 10
-168.4014605899311
 20
852.9346760518524
 10
-168.5802465899311
 20
852.7016820518523
 10
-168.6926335899311
 20
852.4303540518523
 10
-168.7309585899311
 20
852.1391820518525
 10
-168.6926265899311
 20
851.8480020518524
  0
LWPOLYLINE
  5
104
330
1F
100
AcDbEntity
  8
0
100
AcDbPolyline
 90
        4
 70
     1
 43
0.0
 10
-113.2833150500319
 20
390.7067766947974
 10
-116.2833150500319
 20
390.7067766947974
 10
-116.2833150500319
 20
383.2067766947974
 10
-113.2833150500319
 20
383.2067766947974
  0
LWPOLYLINE
  5
105
330
1F
100
AcDbEntity
  8
0
100
AcDbPolyline
 90
        4
 70
     1
 43
0.0
 10
-196.1059585899311
 20
893.3891820518525
 10
-199.1059585899311
 20
893.3891820518525
 10
-199.1059585899311
 20
878.3891820518524
 10
-196.1059585899311
 20
878.3891820518524
  0
LWPOLYLINE
  5
106
330
1F
100
AcDbEntity
  8
0
100
AcDbPolyline
 90
       24
 70
     1
 43
0.0
 10
-138.3287696422826
 20
583.2294228284081
 10
-138.0957746422826
 20
583.408207828408
 10
-137.9169896422826
 20
583.6412028284079
 10
-137.8046026422826
 20
583.9125298284081
 10
-137.7662776422826
 20
584.203702828408
 10
-137.8046026422826
 20
584.494874828408
 10
-137.9169896422826
 20
584.7662028284079
 10
-138.0957746422826
 20
584.9991978284078
 10
-138.3287696422826
 20
585.1779828284079
 10
-138.6000976422826
 20
585.2903708284079
 10
-138.8912696422827
 20
585.3286958284079
 10
-139.1824496422826
 20
585.290362828408
 10
-139.4537776422826
 20
585.177975828408
 10
-139.6867726422826
 20
584.9991898284079
 10
-139.8655576422826
 20
584.7661958284079
 10
-139.9779446422826
 20
584.4948678284081
 10
-140.0162696422826
 20
584.2036958284079
 10
-139.9779376422827
 20
583.9125228284081
 10
-139.8655496422826
 20
583.641187828408
 10
-139.6867646422826
 20
583.4081928284079
 10
-139.4537696422826
 20
583.2294078284079
 10
-139.1824416422826
 20
583.1170208284081
 10
-138.8912696422827
 20
583.0786958284082
 10
-138.6000976422826
 20
583.1170348284079
  0
LWPOLYLINE
  5
107
330
1F
100
AcDbEntity
  8
0
100
AcDbPolyline
 90
       68
 70
     1
 43
0.0
 10
-86.28331505003188
 20
591.3317766947975
 10
-51.78331505003189
 20
591.3317766947975
 10
-51.78331505003189
 20
594.3317766947975
 10
-36.78331505003189
 20
594.3317766947975
 10
-36.78331505003189
 20
591.3317766947975
 10
-29.28331505003189
 20
591.3317766947975
 10
-29.28331505003189
 20
589.8317766947974
 10
-30.25831505003189
 20
589.8317766947974
 10
-30.25831505003189
 20
588.1817766947974
 10
-29.28331505003189
 20
588.1817766947974
 10
-29.28331505003189
 20
585.9317766947974
 10
-27.03331505003189
 20
585.9317766947974
 10
-27.03331505003189
 20
588.1817766947974
 10
-26.05831505003189
 20
588.1817766947974
 10
-26.05831505003189
 20
589.8317766947974
 10
-27.03331505003189
 20
589.8317766947974
 10
-27.03331505003189
 20
591.3317766947975
 10
-19.53331505003189
 20
591.3317766947975
 10
-19.53331505003189
 20
474.3317766947974
 10
-27.03331505003189
 20
474.3317766947974
 10
-27.03331505003189
 20
475.8317766947972
 10
-26.05831505003189
 20
475.8317766947972
 10
-26.05831505003189
 20
477.4817756947973
 10
-27.03331505003189
 20
477.4817756947973
 10
-27.03331505003189
 20
479.7317756947972
 10
-29.28331505003189
 20
479.7317756947972
 10
-29.28331505003189
 20
477.4817756947973
 10
-30.18331505003189
 20
477.4817756947973
 10
-30.18331505003189
 20
475.8317766947972
 10
-29.20831505003189
 20
475.8317766947972
 10
-29.20831505003189
 20
474.2567766947973
 10
-32.95831505003189
 20
474.2567766947973
 10
-32.95831505003189
 20
471.3317766947974
 10
-40.45831505003188
 20
471.3317766947974
 10
-40.45831505003188
 20
474.3317766947974
 10
-97.60831505003189
 20
474.3317766947974
 10
-97.60831505003189
 20
471.3317766947974
 10
-105.1083150500319
 20
471.3317766947974
 10
-105.1083150500319
 20
474.3317766947974
 10
-108.8583150500319
 20
474.3317766947974
 10
-108.8583150500319
 20
475.8317766947972
 10
-107.8833150500319
 20
475.8317766947972
 10
-107.8833150500319
 20
477.4817756947973
 10
-108.8583150500319
 20
477.4817756947973
 10
-108.8583150500319
 20
479.7317756947972
 10
-111.1083150500319
 20
479.7317756947972
 10
-111.1083150500319
 20
477.4817756947973
 10
-112.0083150500319
 20
477.4817756947973
 10
-112.0083150500319
 20
475.8317766947972
 10
-111.0333150500319
 20
475.8317766947972
 10
-111.0333150500319
 20
474.3317766947974
 10
-118.5333150500319
 20
474.3317766947974
 10
-118.5333150500319
 20
591.3317766947975
 10
-111.0333150500319
 20
591.3317766947975
 10
-111.0333150500319
 20
589.8317766947974
 10
-112.0083150500319
 20
589.8317766947974
 10
-112.0083150500319
 20
588.1817766947974
 10
-111.0333150500319
 20
588.1817766947974
 10
-111.0333150500319
 20
585.9317766947974
 10
-108.7833150500319
 20
585.9317766947974
 10
-108.7833150500319
 20
588.1817766947974
 10
-107.8083150500319
 20
588.1817766947974
 10
-107.8083150500319
 20
589.8317766947974
 10
-108.7833150500319
 20
589.8317766947974
 10
-108.7833150500319
 20
591.3317766947975
 10
-101.2833150500319
 20
591.3317766947975
 10
-101.2833150500319
 20
594.3317766947975
 10
-86.28331505003188
 20
594.3317766947975
  0
LWPOLYLINE
  5
108
330
1F
100
AcDbEntity
  8
0
100
AcDbPolyline
 90
       24
 70
     1
 43
0.0
 10
-221.8029366422826
 20
584.4948678284081
 10
-221.8412696422825
 20
584.2036958284079
 10
-221.8029366422826
 20
583.912515828408
 10
-221.6905476422825
 20
583.6411958284079
 10
-221.5117646422825
 20
583.4082008284078
 10
-221.2787696422826
 20
583.2294148284079
 10
-221.0074416422826
 20
583.117027828408
 10
-220.7162696422826
 20
583.0786958284082
 10
-220.4250976422826
 20
583.117027828408
 10
-220.1537696422825
 20
583.2294148284079
 10
-219.9207746422826
 20
583.4082008284078
 10
-219.7419916422825
 20
583.6411958284079
 10
-219.6296026422825
 20
583.9125228284081
 10
-219.5912696422825
 20
584.2036958284079
 10
-219.6296026422825
 20
584.494874828408
 10
-219.7419916422825
 20
584.766202828408
 10
-219.9207746422826
 20
584.9991978284078
 10
-220.1537696422825
 20
585.177982828408
 10
-220.4250976422826
 20
585.290370828408
 10
-220.7162696422826
 20
585.3286958284079
 10
-221.0074416422826
 20
585.290362828408
 10
-221.2787696422826
 20
585.177975828408
 10
-221.5117646422825
 20
584.9991898284079
 10
-221.6905476422825
 20
584.7661958284081
  0
LWPOLYLINE
  5
109
330
1F
100
AcDbEntity
  8
0
100
AcDbPolyline
 90
        4
 70
     1
 43
0.0
 10
-237.3559585899311
 20
824.0693740518523
 10
-244.8559585899311
 20
824.0693740518523
 10
-244.8559585899311
 20
821.0693740518523
 10
-237.3559585899311
 20
821.0693740518523
  0
LWPOLYLINE
  5
110
330
1F
100
AcDbEntity
  8
0
100
AcDbPolyline
 90
       24
 70
     1
 43
0.0
 10
-101.4575170500318
 20
371.3810166947974
 10
-101.2775410500319
 20
371.6155636947974
 10
-101.1644040500319
 20
371.8886986947974
 10
-101.1258160500319
 20
372.1818136947974
 10
-101.1644040500319
 20
372.4749286947974
 10
-101.2775410500319
 20
372.7480636947975
 10
-101.4575170500318
 20
372.9826116947974
 10
-101.6920650500318
 20
373.1625886947974
 10
-101.9652020500319
 20
373.2757256947973
 10
-102.2583150500319
 20
373.3142756947974
 10
-102.5514280500319
 20
373.2756886947975
 10
-102.8245650500319
 20
373.1625516947973
 10
-103.0591150500319
 20
372.9825736947975
 10
-103.2390900500319
 20
372.7480266947974
 10
-103.3522270500319
 20
372.4748916947975
 10
-103.3908150500319
 20
372.1817756947975
 10
-103.3522260500319
 20
371.8886606947974
 10
-103.2390880500319
 20
371.6155256947974
 10
-103.0591130500319
 20
371.3809786947974
 10
-102.8245650500319
 20
371.2010016947973
 10
-102.5514280500319
 20
371.0878636947974
 10
-102.2583150500319
 20
371.0492756947973
 10
-101.9652020500319
 20
371.0878636947974
 10
-101.6920650500318
 20
371.2010016947973
  0
LWPOLYLINE
  5
111
330
1F
100
AcDbEntity
  8
0
100
AcDbPolyline
 90
        4
 70
     1
 43
0.0
 10
-95.28331505003189
 20
411.3317766947973
 10
-95.28331505003189
 20
414.3317766947974
 10
-110.2833150500319
 20
414.3317766947974
 10
-110.2833150500319
 20
411.3317766947973
  0
LWPOLYLINE
  5
112
330
1F
100
AcDbEntity
  8
0
100
AcDbPolyline
 90
        4
 70
     1
 43
0.0
 10
-132.4458352522033
 20
484.5366600026719
 10
-135.4458352522033
 20
484.5366600026719
 10
-135.4458352522033
 20
469.5366600026718
 10
-132.4458352522033
 20
469.5366600026718
  0
LWPOLYLINE
  5
113
330
1F
100
AcDbEntity
  8
0
100
AcDbPolyline
 90
        4
 70
     1
 43
0.0
 10
-24.78331505003189
 20
375.3317766947974
 10
-21.78331505003189
 20
375.3317766947974
 10
-21.78331505003189
 20
390.3317766947974
 10
-24.78331505003189
 20
390.3317766947974
  0
LWPOLYLINE
  5
114
330
1F
100
AcDbEntity
  8
0
100
AcDbPolyline
 90
        4
 70
     1
 43
0.0
 10
-208.2708352522033
 20
585.7866600026718
 10
-215.7708352522032
 20
585.7866600026718
 10
-215.7708352522032
 20
583.5366600026718
 10
-208.2708352522033
 20
583.5366600026718
  0
LWPOLYLINE
  5
115
330
1F
100
AcDbEntity
  8
0
100
AcDbPolyline
 90
        4
 70
     1
 43
0.0
 10
-237.3559585899311
 20
878.7093740518523
 10
-244.8559585899311
 20
878.7093740518523
 10
-244.8559585899311
 20
875.7093740518524
 10
-237.3559585899311
 20
875.7093740518524
  0
LWPOLYLINE
  5
116
330
1F
100
AcDbEntity
  8
0
100
AcDbPolyline
 90
        4
 70
     1
 43
0.0
 10
-215.7708352522032
 20
435.7866600026719
 10
-208.2708352522033
 20
435.7866600026719
 10
-208.2708352522033
 20
438.7866600026718
 10
-215.7708352522032
 20
438.7866600026718
  0
LINE
  5
117
330
1F
100
AcDbEntity
  8
0
100
AcDbLine
 10
-229.1958352522032
 20
542.6066600026719
 30
0.0
 11
-211.5156402522032
 21
542.6066600026719
 31
0.0
  0
LWPOLYLINE
  5
118
330
1F
100
AcDbEntity
  8
0
100
AcDbPolyline
 90
       24
 70
     1
 43
0.0
 10
-64.1170650500319
 20
375.7010016947973
 10
-63.88251705003188
 20
375.8810166947974
 10
-63.70254205003188
 20
376.1155636947975
 10
-63.5894040500319
 20
376.3886986947974
 10
-63.55081705003188
 20
376.6818136947974
 10
-63.5894040500319
 20
376.9749286947974
 10
-63.70254205003188
 20
377.2480636947975
 10
-63.88251705003188
 20
377.4826116947973
 10
-64.1170650500319
 20
377.6625886947974
 10
-64.39020205003188
 20
377.7757256947974
 10
-64.68331505003189
 20
377.8142756947975
 10
-64.9764280500319
 20
377.7756886947975
 10
-65.24956505003189
 20
377.6625516947973
 10
-65.48411505003189
 20
377.4825736947974
 10
-65.66409005003189
 20
377.2480266947974
 10
-65.77722805003189
 20
376.9748916947973
 10
-65.81581505003189
 20
376.6817756947975
 10
-65.77722605003188
 20
376.3886606947973
 10
-65.66408905003189
 20
376.1155256947974
 10
-65.48411305003189
 20
375.8809786947974
 10
-65.24956505003189
 20
375.7010016947973
 10
-64.9764280500319
 20
375.5878636947973
 10
-64.68331505003189
 20
375.5492756947973
 10
-64.39020205003188
 20
375.5878636947973
  0
LWPOLYLINE
  5
119
330
1F
100
AcDbEntity
  8
0
100
AcDbPolyline
 90
        4
 70
     1
 43
0.0
 10
-21.78331505003189
 20
447.3317766947974
 10
-21.78331505003189
 20
454.8317766947973
 10
-24.78331505003189
 20
454.8317766947973
 10
-24.78331505003189
 20
447.3317766947974
  0
LWPOLYLINE
  5
120
330
1F
100
AcDbEntity
  8
0
100
AcDbPolyline
 90
        4
 70
     1
 43
0.0
 10
-113.2833150500319
 20
454.8317766947973
 10
-116.2833150500319
 20
454.8317766947973
 10
-116.2833150500319
 20
447.3317766947974
 10
-113.2833150500319
 20
447.3317766947974
  0
LINE
  5
121
330
1F
100
AcDbEntity
  8
0
100
AcDbLine
 10
-229.1958352522032
 20
588.0366600026718
 30
0.0
 11
-229.1958352522032
 21
542.6066600026719
 31
0.0
  0
LWPOLYLINE
  5
122
330
1F
100
AcDbEntity
  8
0
100
AcDbPolyline
 90
        4
 70
     1
 43
0.0
 10
-27.78331505003189
 20
411.3317766947973
 10
-27.78331505003189
 20
414.3317766947974
 10
-42.78331505003189
 20
414.3317766947974
 10
-42.78331505003189
 20
411.3317766947973
  0
LWPOLYLINE
  5
123
330
1F
100
AcDbEntity
  8
0
100
AcDbPolyline
 90
        4
 70
     1
 43
0.0
 10
-151.1208352522032
 20
438.7866600026718
 10
-151.1208352522032
 20
435.7866600026719
 10
-143.6208352522033
 20
435.7866600026719
 10
-143.6208352522033
 20
438.7866600026718
  0
LWPOLYLINE
  5
124
330
1F
100
AcDbEntity
  8
0
100
AcDbPolyline
 90
        4
 70
     1
 43
0.0
 10
-113.2833150500319
 20
481.8317766947974
 10
-113.2833150500319
 20
489.3317766947974
 10
-116.2833150500319
 20
489.3317766947974
 10
-116.2833150500319
 20
481.8317766947974
  0
LWPOLYLINE
  5
125
330
1F
100
AcDbEntity
  8
0
100
AcDbPolyline
 90
        4
 70
     1
 43
0.0
 10
-113.2833150500319
 20
540.3317766947974
 10
-113.2833150500319
 20
555.3317766947973
 10
-116.2833150500319
 20
555.3317766947973
 10
-116.2833150500319
 20
540.3317766947974
  0
LWPOLYLINE
  5
126
330
1F
100
AcDbEntity
  8
0
100
AcDbPolyline
 90
        4
 70
     1
 43
0.0
 10
-21.78331505003189
 20
481.8317766947974
 10
-21.78331505003189
 20
489.3317766947974
 10
-24.78331505003189
 20
489.3317766947974
 10
-24.78331505003189
 20
481.8317766947974
  0
LWPOLYLINE
  5
127
330
1F
100
AcDbEntity
  8
0
100
AcDbPolyline
 90
        4
 70
     1
 43
0.0
 10
-94.53331505003189
 20
555.2567756947972
 10
-94.53331505003189
 20
541.1567766947974
 10
-84.78331505003188
 20
541.1567766947974
 10
-84.78331505003188
 20
555.2567756947972
  0
LWPOLYLINE
  5
128
330
1F
100
AcDbEntity
  8
0
100
AcDbPolyline
 90
        4
 70
     1
 43
0.0
 10
-21.78331505003189
 20
555.4067766947973
 10
-24.78331505003189
 20
555.4067766947973
 10
-24.78331505003189
 20
540.4067766947973
 10
-21.78331505003189
 20
540.4067766947973
  0
LWPOLYLINE
  5
129
330
1F
100
AcDbEntity
  8
0
100
AcDbPolyline
 90
       68
 70
     1
 43
0.0
 10
-32.95831505003189
 20
465.3317766947973
 10
-32.95831505003189
 20
462.3317766947973
 10
-29.20831505003189
 20
462.3317766947973
 10
-29.20831505003189
 20
460.8317766947974
 10
-30.18331505003189
 20
460.8317766947974
 10
-30.18331505003189
 20
459.1817766947973
 10
-29.28331505003189
 20
459.1817766947973
 10
-29.28331505003189
 20
456.9317766947973
 10
-27.03331505003189
 20
456.9317766947973
 10
-27.03331505003189
 20
459.1817766947973
 10
-26.05831505003189
 20
459.1817766947973
 10
-26.05831505003189
 20
460.8317766947974
 10
-27.03331505003189
 20
460.8317766947974
 10
-27.03331505003189
 20
462.3317766947973
 10
-19.53331505003189
 20
462.3317766947973
 10
-19.53331505003189
 20
345.3317766947974
 10
-27.03331505003189
 20
345.3317766947974
 10
-27.03331505003189
 20
346.8317766947974
 10
-26.05831505003189
 20
346.8317766947974
 10
-26.05831505003189
 20
348.4817766947974
 10
-27.03331505003189
 20
348.4817766947974
 10
-27.03331505003189
 20
350.7317766947974
 10
-29.28331505003189
 20
350.7317766947974
 10
-29.28331505003189
 20
348.4817766947974
 10
-30.25831505003189
 20
348.4817766947974
 10
-30.25831505003189
 20
346.8317766947974
 10
-29.28331505003189
 20
346.8317766947974
 10
-29.28331505003189
 20
345.3317766947974
 10
-36.78331505003189
 20
345.3317766947974
 10
-36.78331505003189
 20
342.3317766947974
 10
-51.78331505003189
 20
342.3317766947974
 10
-51.78331505003189
 20
345.3317766947974
 10
-86.28331505003188
 20
345.3317766947974
 10
-86.28331505003188
 20
342.3317766947974
 10
-101.2833150500319
 20
342.3317766947974
 10
-101.2833150500319
 20
345.3317766947974
 10
-108.7833150500319
 20
345.3317766947974
 10
-108.7833150500319
 20
346.8317766947974
 10
-107.8083150500319
 20
346.8317766947974
 10
-107.8083150500319
 20
348.4817766947974
 10
-108.7833150500319
 20
348.4817766947974
 10
-108.7833150500319
 20
350.7317766947974
 10
-111.0333150500319
 20
350.7317766947974
 10
-111.0333150500319
 20
348.4817766947974
 10
-112.0083150500319
 20
348.4817766947974
 10
-112.0083150500319
 20
346.8317766947974
 10
-111.0333150500319
 20
346.8317766947974
 10
-111.0333150500319
 20
345.3317766947974
 10
-118.5333150500319
 20
345.3317766947974
 10
-118.5333150500319
 20
462.3317766947973
 10
-111.0333150500319
 20
462.3317766947973
 10
-111.0333150500319
 20
460.8317766947974
 10
-112.0083150500319
 20
460.8317766947974
 10
-112.0083150500319
 20
459.1817766947973
 10
-111.1083150500319
 20
459.1817766947973
 10
-111.1083150500319
 20
456.9317766947973
 10
-108.8583150500319
 20
456.9317766947973
 10
-108.8583150500319
 20
459.1817766947973
 10
-107.8833150500319
 20
459.1817766947973
 10
-107.8833150500319
 20
460.8317766947974
 10
-108.8583150500319
 20
460.8317766947974
 10
-108.8583150500319
 20
462.3317766947973
 10
-105.1083150500319
 20
462.3317766947973
 10
-105.1083150500319
 20
465.3317766947973
 10
-97.60831505003189
 20
465.3317766947973
 10
-97.60831505003189
 20
462.3317766947973
 10
-40.45831505003188
 20
462.3317766947973
 10
-40.45831505003188
 20
465.3317766947973
  0
LWPOLYLINE
  5
130
330
1F
100
AcDbEntity
  8
0
100
AcDbPolyline
 90
       24
 70
     1
 43
0.0
 10
-102.7890890500319
 20
407.6905266947973
 10
-102.6091130500319
 20
407.4559786947973
 10
-102.3745650500319
 20
407.2760016947974
 10
-102.1014280500319
 20
407.1628636947973
 10
-101.8083150500319
 20
407.1242766947973
 10
-101.5152020500319
 20
407.1628636947973
 10
-101.2420650500319
 20
407.2760016947974
 10
-101.0075170500319
 20
407.4560166947973
 10
-100.8275420500319
 20
407.6905636947974
 10
-100.7144040500319
 20
407.9636986947973
 10
-100.6758170500319
 20
408.2568136947974
 10
-100.7144040500319
 20
408.5499286947974
 10
-100.8275420500319
 20
408.8230636947973
 10
-101.0075170500319
 20
409.0576116947973
 10
-101.2420650500319
 20
409.2375886947973
 10
-101.5152020500319
 20
409.3507266947973
 10
-101.8083150500319
 20
409.3892766947974
 10
-102.1014280500319
 20
409.3506886947974
 10
-102.3745650500319
 20
409.2375516947974
 10
-102.6091130500319
 20
409.0575736947974
 10
-102.7890900500319
 20
408.8230256947973
 10
-102.9022270500319
 20
408.5498906947974
 10
-102.9408150500319
 20
408.2567756947975
 10
-102.9022260500319
 20
407.9636616947974
  0
LWPOLYLINE
  5
131
330
1F
100
AcDbEntity
  8
0
100
AcDbPolyline
 90
       24
 70
     1
 43
0.0
 10
-65.5164610500319
 20
397.2974606947973
 10
-65.40702305003188
 20
397.0332586947974
 10
-65.23293205003189
 20
396.8063766947974
 10
-65.0060530500319
 20
396.6322856947974
 10
-64.74184605003188
 20
396.5228456947973
 10
-64.45831705003188
 20
396.4854956947974
 10
-64.1747870500319
 20
396.5228456947973
 10
-63.91058005003188
 20
396.6322856947974
 10
-63.68370105003188
 20
396.8063766947974
 10
-63.50961005003188
 20
397.0332586947974
 10
-63.40017205003189
 20
397.2974606947973
 10
-63.3628450500319
 20
397.5809916947974
 10
-63.40017205003189
 20
397.8645216947974
 10
-63.50961005003188
 20
398.1287316947975
 10
-63.68370105003188
 20
398.3556056947973
 10
-63.91058005003188
 20
398.5296966947974
 10
-64.1747870500319
 20
398.6391366947975
 10
-64.45831705003188
 20
398.6764866947975
 10
-64.74184605003188
 20
398.6391366947975
 10
-65.0060530500319
 20
398.5296966947974
 10
-65.23293205003189
 20
398.3556056947973
 10
-65.40702305003188
 20
398.1287316947975
 10
-65.5164610500319
 20
397.8645216947974
 10
-65.55378805003188
 20
397.5809916947974
  0
LWPOLYLINE
  5
132
330
1F
100
AcDbEntity
  8
0
100
AcDbPolyline
 90
       24
 70
     1
 43
0.0
 10
-70.09397505003189
 20
565.5211186947973
 10
-69.78331505003189
 20
565.2827386947972
 10
-69.42154305003189
 20
565.1328886947973
 10
-69.03331505003189
 20
565.0817766947973
 10
-68.64508705003188
 20
565.1328886947973
 10
-68.28331505003188
 20
565.2827386947972
 10
-67.9726550500319
 20
565.5211186947973
 10
-67.73427705003189
 20
565.8317766947974
 10
-67.58442605003191
 20
566.1935466947972
 10
-67.53331505003188
 20
566.5817766947974
 10
-67.58442605003191
 20
566.9700056947972
 10
-67.73427705003189
 20
567.3317766947972
 10
-67.9726550500319
 20
567.6424336947972
 10
-68.28331505003188
 20
567.8808136947973
 10
-68.64508705003188
 20
568.0306636947973
 10
-69.03331505003189
 20
568.0817766947974
 10
-69.42154305003189
 20
568.0306636947973
 10
-69.78331505003189
 20
567.8808136947973
 10
-70.09397505003189
 20
567.6424336947972
 10
-70.33235305003191
 20
567.3317766947972
 10
-70.48220405003187
 20
566.9700056947972
 10
-70.53331505003189
 20
566.5817766947974
 10
-70.48220405003187
 20
566.1935466947972
 10
-70.33235305003191
 20
565.8317766947974
  0
LWPOLYLINE
  5
133
330
1F
100
AcDbEntity
  8
0
100
AcDbPolyline
 90
        4
 70
     1
 43
0.0
 10
-27.78331505003189
 20
525.3317766947974
 10
-42.78331505003189
 20
525.3317766947974
 10
-42.78331505003189
 20
522.3317766947974
 10
-27.78331505003189
 20
522.3317766947974
  0
LWPOLYLINE
  5
134
330
1F
100
AcDbEntity
  8
0
100
AcDbPolyline
 90
        4
 70
     1
 43
0.0
 10
-110.2833150500319
 20
525.3317766947974
 10
-110.2833150500319
 20
522.3317766947974
 10
-95.28331505003189
 20
522.3317766947974
 10
-95.28331505003189
 20
525.3317766947974
  0
LWPOLYLINE
  5
135
330
1F
100
AcDbEntity
  8
0
100
AcDbPolyline
 90
        4
 70
     1
 43
0.0
 10
-151.1208352522032
 20
582.7866600026718
 10
-143.6208352522033
 20
582.7866600026718
 10
-143.6208352522033
 20
585.7866600026718
 10
-151.1208352522032
 20
585.7866600026718
  0
LINE
  5
136
330
1F
100
AcDbEntity
  8
0
100
AcDbLine
 10
-229.1958352522032
 20
433.5366600026719
 30
0.0
 11
-130.1958352522033
 21
433.5366600026719
 31
0.0
  0
LINE
  5
137
330
1F
100
AcDbEntity
  8
0
100
AcDbLine
 10
-130.1958352522033
 20
588.0366600026718
 30
0.0
 11
-229.1958352522032
 21
588.0366600026718
 31
0.0
  0
LINE
  5
138
330
1F
100
AcDbEntity
  8
0
100
AcDbLine
 10
-130.1958352522033
 20
433.5366600026719
 30
0.0
 11
-130.1958352522033
 21
588.0366600026718
 31
0.0
  0
LINE
  5
139
330
1F
100
AcDbEntity
  8
0
100
AcDbLine
 10
-229.1958352522032
 20
478.9670450026719
 30
0.0
 11
-229.1958352522032
 21
433.5366600026719
 31
0.0
  0
LINE
  5
140
330
1F
100
AcDbEntity
  8
0
100
AcDbLine
 10
-211.5156402522032
 20
478.9670450026719
 30
0.0
 11
-229.1958352522032
 21
478.9670450026719
 31
0.0
  0
LWPOLYLINE
  5
141
330
1F
100
AcDbEntity
  8
0
100
AcDbPolyline
 90
        4
 70
     1
 43
0.0
 10
-135.4458352522033
 20
537.0366600026718
 10
-132.4458352522033
 20
537.0366600026718
 10
-132.4458352522033
 20
552.0366600026718
 10
-135.4458352522033
 20
552.0366600026718
  0
LWPOLYLINE
  5
142
330
1F
100
AcDbEntity
  8
0
100
AcDbPolyline
 90
       12
 70
     1
 43
0.0
 10
-62.99039665224881
 20
880.8293303685005
 10
-59.99039665224882
 20
880.8293303685005
 10
-59.99039665224882
 20
872.8043293685004
 10
-62.99039665224881
 20
872.8043293685004
 10
-62.99039665224881
 20
871.0793303685004
 10
-70.49039665224885
 20
871.0793303685004
 10
-70.49039665224885
 20
872.8043293685004
 10
-73.49039665224885
 20
872.8043293685004
 10
-73.49039665224885
 20
880.8293303685005
 10
-70.49039665224885
 20
880.8293303685005
 10
-70.49039665224885
 20
883.0793303685004
 10
-62.99039665224881
 20
883.0793303685004
  0
LWPOLYLINE
  5
143
330
1F
100
AcDbEntity
  8
0
100
AcDbPolyline
 90
       15
 70
     1
 43
0.0
 10
-64.75863399297304
 20
851.7984510711821
 10
-64.75863399297304
 20
849.5484510711822
 10
-80.50863399297307
 20
834.5484510711822
 10
-82.75863399297307
 20
834.5484510711822
 10
-82.75863399297307
 20
836.7984510711821
 10
-80.50863399297307
 20
836.7984510711821
 10
-80.50863399297307
 20
842.0484510711821
 10
-82.75863399297307
 20
842.0484510711821
 10
-82.75863399297307
 20
844.2984510711822
 10
-76.75863399297305
 20
844.2984510711822
 10
-76.75863399297305
 20
851.7984510711821
 10
-75.03363399297308
 20
851.7984510711821
 10
-75.03363399297308
 20
849.5484510711822
 10
-67.00863399297304
 20
849.5484510711822
 10
-67.00863399297304
 20
851.7984510711821
  0
LWPOLYLINE
  5
144
330
1F
100
AcDbEntity
  8
0
100
AcDbPolyline
 90
        4
 70
     1
 43
0.0
 10
-147.3238505527642
 20
670.8920044377245
 10
-150.3238505527642
 20
670.8920044377245
 10
-150.3238505527642
 20
662.6420044377246
 10
-147.3238505527642
 20
662.6420044377246
  0
LWPOLYLINE
  5
145
330
1F
100
AcDbEntity
  8
0
100
AcDbPolyline
 90
        4
 70
     1
 43
0.0
 10
-168.3238505527642
 20
662.6420044377246
 10
-168.3238505527642
 20
670.8920044377245
 10
-171.3238505527642
 20
670.8920044377245
 10
-171.3238505527642
 20
662.6420044377246
  0
LWPOLYLINE
  5
146
330
1F
100
AcDbEntity
  8
0
100
AcDbPolyline
 90
        4
 70
     1
 43
0.0
 10
-166.0738505527642
 20
663.3920044377246
 10
-163.0738505527642
 20
663.3920044377246
 10
-163.0738505527642
 20
665.6420044377246
 10
-166.0738505527642
 20
665.6420044377246
  0
LWPOLYLINE
  5
147
330
1F
100
AcDbEntity
  8
0
100
AcDbPolyline
 90
        4
 70
     1
 43
0.0
 10
-155.5738505527641
 20
665.6420044377246
 10
-155.5738505527641
 20
663.3920044377246
 10
-152.5738505527642
 20
663.3920044377246
 10
-152.5738505527642
 20
665.6420044377246
  0
LWPOLYLINE
  5
148
330
1F
100
AcDbEntity
  8
0
100
AcDbPolyline
 90
       12
 70
     1
 43
0.0
 10
-145.8238505527643
 20
673.1420044377245
 10
-145.8238505527643
 20
660.3920044377246
 10
-172.8238505527642
 20
660.3920044377246
 10
-172.8238505527642
 20
673.1420044377245
 10
-166.0738505527642
 20
673.1420044377245
 10
-166.0738505527642
 20
670.8920044377245
 10
-163.0738505527642
 20
670.8920044377245
 10
-163.0738505527642
 20
673.1420044377245
 10
-155.5738505527641
 20
673.1420044377245
 10
-155.5738505527641
 20
670.8920044377245
 10
-152.5738505527642
 20
670.8920044377245
 10
-152.5738505527642
 20
673.1420044377245
  0
LWPOLYLINE
  5
149
330
1F
100
AcDbEntity
  8
0
100
AcDbPolyline
 90
       20
 70
     1
 43
0.0
 10
-62.92271983718271
 20
860.2201731248451
 10
-64.42271983718271
 20
860.2201731248451
 10
-64.42271983718271
 20
861.1951721248452
 10
-66.07271983718272
 20
861.1951721248452
 10
-66.07271983718272
 20
860.2201731248451
 10
-68.32271983718271
 20
860.2201731248451
 10
-68.32271983718271
 20
857.9701731248452
 10
-66.07271983718272
 20
857.9701731248452
 10
-66.07271983718272
 20
856.9951731248451
 10
-64.42271983718271
 20
856.9951731248451
 10
-64.42271983718271
 20
857.9701731248452
 10
-62.92271983718271
 20
857.9701731248452
 10
-62.92271983718271
 20
854.2201731248452
 10
-68.17271983718274
 20
854.2201731248452
 10
-68.17271983718274
 20
856.4701731248451
 10
-70.42271983718274
 20
856.4701731248451
 10
-70.42271983718274
 20
867.7201731248452
 10
-60.67271983718271
 20
867.7201731248452
 10
-60.67271983718271
 20
863.970173124845
 10
-62.92271983718271
 20
863.970173124845
  0
LWPOLYLINE
  5
150
330
1F
100
AcDbEntity
  8
0
100
AcDbPolyline
 90
       24
 70
     1
 43
0.0
 10
-173.8512762672024
 20
646.3253368320216
 10
-174.1226052672024
 20
646.2129118320214
 10
-174.3556002672024
 20
646.0341868320215
 10
-174.5343832672024
 20
645.8011618320215
 10
-174.6467722672024
 20
645.5298118320215
 10
-174.6851042672024
 20
645.2386618320215
 10
-174.6467712672024
 20
644.9475118320215
 10
-174.5343822672024
 20
644.6761618320215
 10
-174.3555992672024
 20
644.4431368320215
 10
-174.1226042672024
 20
644.2644118320215
 10
-173.8512762672024
 20
644.1519868320215
 10
-173.5601042672024
 20
644.1136618320215
 10
-173.2689312672024
 20
644.1519868320215
 10
-172.9976032672024
 20
644.2644118320215
 10
-172.7646082672024
 20
644.4431368320215
 10
-172.5858252672024
 20
644.6761618320215
 10
-172.4734362672024
 20
644.9475118320215
 10
-172.4351042672024
 20
645.2386618320215
 10
-172.4734372672024
 20
645.5298868320215
 10
-172.5858262672024
 20
645.8012368320214
 10
-172.7646092672024
 20
646.0342618320214
 10
-172.9976042672024
 20
646.2129868320214
 10
-173.2689322672024
 20
646.3254118320215
 10
-173.5601042672024
 20
646.3636618320215
  0
LWPOLYLINE
  5
151
330
1F
100
AcDbEntity
  8
0
100
AcDbPolyline
 90
       18
 70
     1
 43
0.0
 10
-166.4351042672024
 20
650.1136618320215
 10
-166.4351042672024
 20
652.3636618320215
 10
-164.9351042672024
 20
652.3636618320215
 10
-164.9351042672024
 20
651.3886618320214
 10
-163.2851042672024
 20
651.3886618320214
 10
-163.2851042672024
 20
652.3636618320215
 10
-161.0351042672024
 20
652.3636618320215
 10
-161.0351042672024
 20
654.6136618320215
 10
-163.2851042672024
 20
654.6136618320215
 10
-163.2851042672024
 20
655.5886608320214
 10
-164.9351042672024
 20
655.5886608320214
 10
-164.9351042672024
 20
654.6136618320215
 10
-166.4351042672024
 20
654.6136618320215
 10
-166.4351042672024
 20
657.6136618320215
 10
-158.9351042672024
 20
657.6136618320215
 10
-158.9351042672024
 20
642.6136618320215
 10
-178.4351042672024
 20
642.6136618320215
 10
-178.4351042672024
 20
650.1136618320215
  0
LWPOLYLINE
  5
152
330
1F
100
AcDbEntity
  8
0
100
AcDbPolyline
 90
       24
 70
     1
 43
0.0
 10
-199.1724368386919
 20
659.4840605848347
 10
-199.443765838692
 20
659.3716355848346
 10
-199.6767608386919
 20
659.1929105848346
 10
-199.855543838692
 20
658.9598855848346
 10
-199.967932838692
 20
658.6885355848346
 10
-200.006264838692
 20
658.3973855848346
 10
-199.967931838692
 20
658.1062355848346
 10
-199.855542838692
 20
657.8348855848346
 10
-199.6767598386919
 20
657.6018605848346
 10
-199.4437648386919
 20
657.4231355848345
 10
-199.1724368386919
 20
657.3107105848346
 10
-198.881264838692
 20
657.2723855848346
 10
-198.5900918386919
 20
657.3107105848346
 10
-198.318763838692
 20
657.4231355848345
 10
-198.085768838692
 20
657.6018605848346
 10
-197.906985838692
 20
657.8348855848346
 10
-197.794596838692
 20
658.1062355848346
 10
-197.7562648386919
 20
658.3973855848346
 10
-197.7945978386919
 20
658.6886105848345
 10
-197.906986838692
 20
658.9599605848345
 10
-198.085769838692
 20
659.1929855848345
 10
-198.318764838692
 20
659.3717105848345
 10
-198.590092838692
 20
659.4841355848346
 10
-198.881264838692
 20
659.5223855848346
  0
LWPOLYLINE
  5
153
330
1F
100
AcDbEntity
  8
0
100
AcDbPolyline
 90
       28
 70
     1
 43
0.0
 10
-181.2562648386919
 20
643.7723855848346
 10
-203.756264838692
 20
643.7723855848346
 10
-203.756264838692
 20
663.2723855848344
 10
-198.881264838692
 20
663.2723855848344
 10
-197.6195218386919
 20
663.1062595848345
 10
-196.4437648386919
 20
662.6192845848346
 10
-195.4341188386919
 20
661.8445345848345
 10
-194.6593908386919
 20
660.8348855848346
 10
-194.172375838692
 20
659.6591095848346
 10
-194.006264838692
 20
658.3973855848346
 10
-194.006264838692
 20
653.5223855848346
 10
-196.256264838692
 20
653.5223855848346
 10
-196.256264838692
 20
651.2723855848346
 10
-189.881264838692
 20
651.2723855848346
 10
-189.881264838692
 20
649.7723855848346
 10
-190.856264838692
 20
649.7723855848346
 10
-190.856264838692
 20
648.1223845848346
 10
-189.881264838692
 20
648.1223845848346
 10
-189.881264838692
 20
645.8723845848346
 10
-187.6312648386919
 20
645.8723845848346
 10
-187.6312648386919
 20
648.1223845848346
 10
-186.656264838692
 20
648.1223845848346
 10
-186.656264838692
 20
649.7723855848346
 10
-187.6312648386919
 20
649.7723855848346
 10
-187.6312648386919
 20
651.2723855848346
 10
-185.006264838692
 20
651.2723855848346
 10
-185.006264838692
 20
653.5223855848346
 10
-181.2562648386919
 20
653.5223855848346
  0
LWPOLYLINE
  5
154
330
1F
100
AcDbEntity
  8
0
100
AcDbPolyline
 90
        4
 70
     1
 43
0.0
 10
-220.2468804051944
 20
536.6066600026718
 10
-216.4968804051944
 20
536.6066600026718
 10
-216.4968804051944
 20
539.6066600026719
 10
-220.2468804051944
 20
539.6066600026719
  0
LWPOLYLINE
  5
155
330
1F
100
AcDbEntity
  8
0
100
AcDbPolyline
 90
        4
 70
     1
 43
0.0
 10
-220.2468804051944
 20
484.9670450026719
 10
-220.2468804051944
 20
481.9670450026719
 10
-216.4968804051944
 20
481.9670450026719
 10
-216.4968804051944
 20
484.9670450026719
  0
LWPOLYLINE
  5
156
330
1F
100
AcDbEntity
  8
0
100
AcDbPolyline
 90
       24
 70
     1
 43
0.0
 10
-223.0554454924588
 20
483.4361424024307
 10
-223.0937774924588
 20
483.7273154024307
 10
-223.2061664924588
 20
483.9986424024307
 10
-223.3849494924588
 20
484.2316374024308
 10
-223.6179444924588
 20
484.4104224024307
 10
-223.8892724924588
 20
484.5228094024307
 10
-224.1804444924588
 20
484.5611344024307
 10
-224.4716164924588
 20
484.5228094024307
 10
-224.7429444924588
 20
484.4104224024307
 10
-224.9759394924589
 20
484.2316374024308
 10
-225.1547224924589
 20
483.9986424024307
 10
-225.2671114924588
 20
483.7273154024307
 10
-225.3054434924588
 20
483.4361424024307
 10
-225.2671114924588
 20
483.1450004024307
 10
-225.1547224924589
 20
482.8736504024307
 10
-224.9759394924589
 20
482.6406254024307
 10
-224.7429444924588
 20
482.4619004024308
 10
-224.4716164924588
 20
482.3494754024307
 10
-224.1804444924588
 20
482.3112244024307
 10
-223.8892724924588
 20
482.3494754024307
 10
-223.6179444924588
 20
482.4619004024308
 10
-223.3849494924588
 20
482.6406254024307
 10
-223.2061664924588
 20
482.8736504024307
 10
-223.0937774924588
 20
483.1450004024307
  0
LWPOLYLINE
  5
157
330
1F
100
AcDbEntity
  8
0
100
AcDbPolyline
 90
       24
 70
     1
 43
0.0
 10
-222.834089765409
 20
538.2184932137159
 10
-222.872422765409
 20
538.5096652137158
 10
-222.984811765409
 20
538.7809932137158
 10
-223.1635947654091
 20
539.0139882137158
 10
-223.396589765409
 20
539.1927652137158
 10
-223.6679177654091
 20
539.3051612137157
 10
-223.959089765409
 20
539.3434862137158
 10
-224.250261765409
 20
539.3051612137157
 10
-224.5215897654091
 20
539.1927662137159
 10
-224.7545847654091
 20
539.0139882137158
 10
-224.9333677654091
 20
538.7809932137158
 10
-225.0457567654091
 20
538.5096662137158
 10
-225.084088765409
 20
538.2184932137159
 10
-225.0457567654091
 20
537.9273212137158
 10
-224.9333677654091
 20
537.6559932137158
 10
-224.7545847654091
 20
537.4229982137157
 10
-224.5215897654091
 20
537.2442132137158
 10
-224.250261765409
 20
537.1318262137158
 10
-223.959089765409
 20
537.0935012137159
 10
-223.667916765409
 20
537.1318262137158
 10
-223.396588765409
 20
537.2442132137158
 10
-223.163593765409
 20
537.4229982137157
 10
-222.9848107654091
 20
537.6559932137158
 10
-222.872421765409
 20
537.9273212137158
  0
LWPOLYLINE
  5
158
330
1F
100
AcDbEntity
  8
0
100
AcDbPolyline
 90
       36
 70
     1
 43
0.0
 10
-42.50000000000031
 20
599.0000000000008
 10
-42.50000000000031
 20
602.0000000000008
 10
-95.00000000000012
 20
602.0000000000008
 10
-95.00000000000012
 20
599.0000000000008
 10
-110.0
 20
599.0000000000008
 10
-110.0
 20
602.0000000000008
 10
-113.75
 20
602.0000000000008
 10
-113.75
 20
609.5000000000007
 10
-102.5000000000001
 20
609.5000000000007
 10
-102.5000000000001
 20
620.7500000000008
 10
-113.75
 20
620.7500000000008
 10
-113.75
 20
703.500000000001
 10
-116.75
 20
703.500000000001
 10
-116.75
 20
718.5000000000008
 10
-113.75
 20
718.5000000000008
 10
-113.75
 20
752.0000000000005
 10
-110.0
 20
752.0000000000005
 10
-110.0
 20
755.0000000000006
 10
-95.00000000000012
 20
755.0000000000006
 10
-95.00000000000012
 20
752.0000000000005
 10
-42.50000000000031
 20
752.0000000000005
 10
-42.50000000000031
 20
755.0000000000006
 10
-27.50000000000038
 20
755.0000000000006
 10
-27.50000000000038
 20
752.0000000000005
 10
-23.75000000000037
 20
752.0000000000005
 10
-23.75000000000037
 20
718.5000000000008
 10
-20.75000000000039
 20
718.5000000000008
 10
-20.75000000000039
 20
703.500000000001
 10
-23.75000000000037
 20
703.500000000001
 10
-23.75000000000039
 20
651.0000000000011
 10
-20.75000000000039
 20
651.0000000000011
 10
-20.7500000000004
 20
636.0000000000012
 10
-23.75000000000039
 20
636.0000000000012
 10
-23.75000000000039
 20
602.0000000000008
 10
-27.50000000000038
 20
602.0000000000008
 10
-27.50000000000038
 20
599.0000000000008
  0
LWPOLYLINE
  5
159
330
1F
100
AcDbEntity
  8
0
100
AcDbPolyline
 90
        4
 70
     1
 43
0.0
 10
-50.894655
 20
809.2142615309152
 10
-47.894655
 20
809.2142615309152
 10
-47.894655
 20
824.2142615309154
 10
-50.894655
 20
824.2142615309154
  0
LWPOLYLINE
  5
160
330
1F
100
AcDbEntity
  8
0
100
AcDbPolyline
 90
       24
 70
     1
 43
0.0
 10
-4.207162999999999
 20
851.4385415309149
 10
-4.478489999999998
 20
851.550928530915
 10
-4.769662999999999
 20
851.589253530915
 10
-5.060834999999999
 20
851.550928530915
 10
-5.332162999999999
 20
851.4385415309149
 10
-5.565158
 20
851.259756530915
 10
-5.743942999999998
 20
851.0267615309151
 10
-5.85633
 20
850.7554335309151
 10
-5.894655000000001
 20
850.4642615309151
 10
-5.856323000000001
 20
850.1730885309152
 10
-5.743928
 20
849.9017615309153
 10
-5.565142999999999
 20
849.668765530915
 10
-5.332146999999999
 20
849.4899805309149
 10
-5.060819999999999
 20
849.377593530915
 10
-4.769646999999999
 20
849.3392685309148
 10
-4.478475
 20
849.377593530915
 10
-4.207146999999999
 20
849.4899805309149
 10
-3.974151999999999
 20
849.668765530915
 10
-3.795366999999999
 20
849.9017615309153
 10
-3.68298
 20
850.1730885309152
 10
-3.644655
 20
850.4642615309151
 10
-3.682994999999999
 20
850.7554335309151
 10
-3.795382
 20
851.0267615309151
 10
-3.974166999999999
 20
851.259756530915
  0
LWPOLYLINE
  5
161
330
1F
100
AcDbEntity
  8
0
100
AcDbPolyline
 90
        5
 70
     1
 43
0.0
 10
-9.644655
 20
850.4642615309151
 10
-9.644655
 20
851.5892615309153
 10
-13.394655
 20
851.5892615309153
 10
-13.394655
 20
849.3392615309153
 10
-9.644655
 20
849.3392615309153
  0
LWPOLYLINE
  5
162
330
1F
100
AcDbEntity
  8
0
100
AcDbPolyline
 90
       24
 70
     1
 43
0.0
 10
-65.27962200000001
 20
912.5637615309152
 10
-65.369067
 20
913.2431635309147
 10
-65.63130499999999
 20
913.8762615309151
 10
-66.048467
 20
914.4199135309152
 10
-66.592122
 20
914.837078530915
 10
-67.225222
 20
915.0993165309149
 10
-67.904622
 20
915.1887615309153
 10
-68.58402199999999
 20
915.0993165309149
 10
-69.217122
 20
914.837078530915
 10
-69.760778
 20
914.4199135309152
 10
-70.177939
 20
913.8762615309151
 10
-70.44017700000002
 20
913.2431635309147
 10
-70.529622
 20
912.5637615309152
 10
-70.44017700000002
 20
911.884358530915
 10
-70.177939
 20
911.2512615309153
 10
-69.760778
 20
910.7076085309149
 10
-69.217122
 20
910.2904435309151
 10
-68.58402199999999
 20
910.0282055309149
 10
-67.904622
 20
909.9387615309151
 10
-67.225222
 20
910.0282055309149
 10
-66.592122
 20
910.2904435309151
 10
-66.048467
 20
910.7076085309149
 10
-65.63130499999999
 20
911.2512615309153
 10
-65.369067
 20
911.884358530915
  0
LWPOLYLINE
  5
163
330
1F
100
AcDbEntity
  8
0
100
AcDbPolyline
 90
        4
 70
     1
 43
0.0
 10
-88.19212200000002
 20
917.0642615309152
 10
-97.19212200000001
 20
917.0642615309152
 10
-97.19212200000001
 20
908.064261530915
 10
-88.19212200000002
 20
908.064261530915
  0
LWPOLYLINE
  5
164
330
1F
100
AcDbEntity
  8
0
100
AcDbPolyline
 90
        4
 70
     1
 43
0.0
 10
-56.75000000000029
 20
620.0000000000008
 10
-59.75000000000028
 20
620.0000000000008
 10
-59.75000000000028
 20
610.2500000000008
 10
-56.75000000000029
 20
610.2500000000008
  0
LWPOLYLINE
  5
165
330
1F
100
AcDbEntity
  8
0
100
AcDbPolyline
 90
        4
 70
     1
 43
0.0
 10
-77.75000000000019
 20
620.0000000000008
 10
-80.75000000000018
 20
620.0000000000008
 10
-80.75000000000018
 20
610.2500000000008
 10
-77.75000000000019
 20
610.2500000000008
  0
LWPOLYLINE
  5
166
330
1F
100
AcDbEntity
  8
0
100
AcDbPolyline
 90
       32
 70
     1
 43
0.0
 10
-80.96965500000001
 20
775.4642615309151
 10
-116.894655
 20
775.4642615309151
 10
-116.894655
 20
842.964261530915
 10
-119.894655
 20
842.964261530915
 10
-119.894655
 20
857.964261530915
 10
-116.894655
 20
857.964261530915
 10
-116.894655
 20
925.4642615309151
 10
-86.894655
 20
925.4642615309151
 10
-86.894655
 20
928.4642615309152
 10
-71.894655
 20
928.4642615309152
 10
-71.894655
 20
925.4642615309151
 10
-14.894655
 20
925.4642615309151
 10
-14.894655
 20
928.4642615309152
 10
-7.394655000000001
 20
928.4642615309152
 10
-7.394655000000001
 20
925.4642615309151
 10
0.105345
 20
925.4642615309151
 10
0.105345
 20
891.7142615309153
 10
3.105345
 20
891.7142615309153
 10
3.105345
 20
876.714261530915
 10
0.105345
 20
876.714261530915
 10
0.105345
 20
824.2142615309154
 10
3.105345
 20
824.2142615309154
 10
3.105345
 20
809.2142615309152
 10
0.105345
 20
809.2142615309152
 10
0.105345
 20
775.4642615309151
 10
-7.394655000000001
 20
775.4642615309151
 10
-7.394655000000001
 20
772.4642615309152
 10
-14.894655
 20
772.4642615309152
 10
-14.89465499999999
 20
775.4642615309151
 10
-65.969655
 20
775.4642615309151
 10
-65.969655
 20
772.4642615309152
 10
-80.96965500000001
 20
772.4642615309152
  0
LWPOLYLINE
  5
167
330
1F
100
AcDbEntity
  8
0
100
AcDbPolyline
 90
        4
 70
     1
 43
0.0
 10
-58.86712197900028
 20
886.1062874808574
 10
-85.16712197900025
 20
886.1062874992674
 10
-85.16712197900025
 20
814.8062874992675
 10
-58.86712197900028
 20
814.8062875007775
  0
LWPOLYLINE
  5
168
330
1F
100
AcDbEntity
  8
0
100
AcDbPolyline
 90
        4
 70
     1
 43
0.0
 10
-50.894655
 20
891.7142615309153
 10
-50.894655
 20
876.714261530915
 10
-47.894655
 20
876.714261530915
 10
-47.894655
 20
891.7142615309153
  0
LWPOLYLINE
  5
169
330
1F
100
AcDbEntity
  8
0
100
AcDbPolyline
 90
        4
 70
     1
 43
0.0
 10
-199.0882648324696
 20
681.156636467067
 10
-199.0882648324696
 20
666.1566364670671
 10
-219.3382648324696
 20
666.1566364670671
 10
-219.3382648324696
 20
681.156636467067
  0
LWPOLYLINE
  5
170
330
1F
100
AcDbEntity
  8
0
100
AcDbPolyline
 90
       24
 70
     1
 43
0.0
 10
-202.4632648324696
 20
678.906636467067
 10
-202.4249318324696
 20
678.615486467067
 10
-202.3125428324696
 20
678.344060467067
 10
-202.1337598324695
 20
678.111035467067
 10
-201.9007648324696
 20
677.9323104670671
 10
-201.6294368324696
 20
677.8198854670669
 10
-201.3382648324696
 20
677.7816364670671
 10
-201.0470918324696
 20
677.819961467067
 10
-200.7757638324696
 20
677.932386467067
 10
-200.5427688324696
 20
678.1111114670671
 10
-200.3639858324696
 20
678.3441364670671
 10
-200.2515968324696
 20
678.615486467067
 10
-200.2132648324696
 20
678.906636467067
 10
-200.2515978324696
 20
679.197861467067
 10
-200.3639868324696
 20
679.4692114670671
 10
-200.5427698324696
 20
679.7022364670671
 10
-200.7757648324696
 20
679.8809614670671
 10
-201.0470928324696
 20
679.993386467067
 10
-201.3382648324696
 20
680.0316364670671
 10
-201.6294378324696
 20
679.9933104670671
 10
-201.9007658324696
 20
679.880886467067
 10
-202.1337608324695
 20
679.702161467067
 10
-202.3125438324696
 20
679.469136467067
 10
-202.4249328324696
 20
679.1977864670671
  0
LWPOLYLINE
  5
171
330
1F
100
AcDbEntity
  8
0
100
AcDbPolyline
 90
        4
 70
     1
 43
0.0
 10
-63.59039665224881
 20
880.0793303685004
 10
-69.89039665224883
 20
880.0793303685004
 10
-69.89039665224883
 20
875.3793303685004
 10
-63.59039665224881
 20
875.3793303685004
  0
LWPOLYLINE
  5
172
330
1F
100
AcDbEntity
  8
0
100
AcDbPolyline
 90
       24
 70
     1
 43
0.0
 10
-149.3385340191998
 20
677.7994771484222
 10
-149.0672060191998
 20
677.6870521484222
 10
-148.7760340191998
 20
677.6488031484222
 10
-148.4848610191998
 20
677.6871281484223
 10
-148.2135330191999
 20
677.7995531484223
 10
-147.9805380191999
 20
677.9782781484223
 10
-147.8017550191999
 20
678.2113031484223
 10
-147.6893660191998
 20
678.4826531484222
 10
-147.6510340191999
 20
678.7738031484223
 10
-147.6893670191998
 20
679.0650281484222
 10
-147.8017560191998
 20
679.3363781484223
 10
-147.9805390191998
 20
679.5694031484223
 10
-148.2135340191998
 20
679.7481281484223
 10
-148.4848620191999
 20
679.8605531484222
 10
-148.7760340191998
 20
679.8988031484222
 10
-149.0672070191998
 20
679.8604771484224
 10
-149.3385350191998
 20
679.7480531484223
 10
-149.5715300191998
 20
679.5693281484223
 10
-149.7503130191998
 20
679.3363031484223
 10
-149.8627020191998
 20
679.0649531484223
 10
-149.9010340191999
 20
678.7738031484223
 10
-149.8627010191998
 20
678.4825771484223
 10
-149.7503120191998
 20
678.2112271484223
 10
-149.5715290191998
 20
677.9782021484223
  0
LWPOLYLINE
  5
173
330
1F
100
AcDbEntity
  8
0
100
AcDbPolyline
 90
        4
 70
     1
 43
0.0
 10
-160.7760340191998
 20
689.0488031484222
 10
-160.7760340191998
 20
678.9988021484223
 10
-151.4010340191998
 20
678.9988021484223
 10
-151.4010340191998
 20
689.0488031484222
  0
LWPOLYLINE
  5
174
330
1F
100
AcDbEntity
  8
0
100
AcDbPolyline
 90
       24
 70
     1
 43
0.0
 10
-147.6510340191999
 20
689.2738031484222
 10
-147.6893670191998
 20
689.5649531484223
 10
-147.8017560191998
 20
689.8363781484222
 10
-147.9805390191998
 20
690.0694031484222
 10
-148.2135340191998
 20
690.2481281484223
 10
-148.4848620191999
 20
690.3605531484222
 10
-148.7760340191998
 20
690.3988031484223
 10
-149.0672070191998
 20
690.3604771484224
 10
-149.3385350191998
 20
690.2480531484222
 10
-149.5715300191998
 20
690.0693281484223
 10
-149.7503130191998
 20
689.8363031484223
 10
-149.8627020191998
 20
689.5649531484223
 10
-149.9010340191999
 20
689.2738031484222
 10
-149.8627010191998
 20
688.9826531484223
 10
-149.7503120191998
 20
688.7113031484223
 10
-149.5715290191998
 20
688.4782781484223
 10
-149.3385340191998
 20
688.2995531484223
 10
-149.0672060191998
 20
688.1871281484222
 10
-148.7760340191998
 20
688.1488031484223
 10
-148.4848610191998
 20
688.1871281484222
 10
-148.2135330191999
 20
688.2995531484223
 10
-147.9805380191999
 20
688.4782781484223
 10
-147.8017550191999
 20
688.7113031484223
 10
-147.6893660191998
 20
688.9826531484223
  0
LWPOLYLINE
  5
175
330
1F
100
AcDbEntity
  8
0
100
AcDbPolyline
 90
       24
 70
     1
 43
0.0
 10
-194.374957695285
 20
677.3957043665559
 10
-194.487346695285
 20
677.1243543665559
 10
-194.525678695285
 20
676.8332043665559
 10
-194.487345695285
 20
676.5420543665559
 10
-194.374956695285
 20
676.2707043665559
 10
-194.196173695285
 20
676.0376793665559
 10
-193.963178695285
 20
675.8589543665559
 10
-193.691850695285
 20
675.7465293665559
 10
-193.400678695285
 20
675.7082043665559
 10
-193.109506695285
 20
675.7465293665559
 10
-192.838178695285
 20
675.8589543665559
 10
-192.605182695285
 20
676.0376793665559
 10
-192.426399695285
 20
676.2707043665559
 10
-192.314010695285
 20
676.5420543665559
 10
-192.275678695285
 20
676.8332043665559
 10
-192.314011695285
 20
677.1244293665558
 10
-192.426400695285
 20
677.395779366556
 10
-192.6051836952851
 20
677.6288043665561
 10
-192.838178695285
 20
677.8075293665559
 10
-193.109506695285
 20
677.9199543665558
 10
-193.400678695285
 20
677.9582043665559
 10
-193.691851695285
 20
677.919878366556
 10
-193.963179695285
 20
677.8074543665559
 10
-194.196174695285
 20
677.6287293665559
  0
LWPOLYLINE
  5
176
330
1F
100
AcDbEntity
  8
0
100
AcDbPolyline
 90
        8
 70
     1
 43
0.0
 10
-179.900677695285
 20
676.608204366556
 10
-182.150677695285
 20
676.608204366556
 10
-182.150677695285
 20
674.7332043665559
 10
-180.650677695285
 20
674.7332043665559
 10
-180.650677695285
 20
668.4332033665559
 10
-182.150677695285
 20
668.4332033665559
 10
-182.150677695285
 20
666.5582033665559
 10
-179.900677695285
 20
666.5582033665559
  0
LWPOLYLINE
  5
177
330
1F
100
AcDbEntity
  8
0
100
AcDbPolyline
 90
        8
 70
     1
 43
0.0
 10
-187.775677695285
 20
674.7332043665559
 10
-187.775677695285
 20
676.608204366556
 10
-190.025677695285
 20
676.608204366556
 10
-190.025677695285
 20
666.5582033665559
 10
-187.775677695285
 20
666.5582033665559
 10
-187.775677695285
 20
668.4332033665559
 10
-189.275677695285
 20
668.4332033665559
 10
-189.275677695285
 20
674.7332043665559
  0
LWPOLYLINE
  5
178
330
1F
100
AcDbEntity
  8
0
100
AcDbPolyline
 90
        6
 70
     1
 43
0.0
 10
-166.7760340191998
 20
689.2738031484222
 10
-166.7760340191998
 20
691.5238031484222
 10
-164.5260340191998
 20
691.5238031484222
 10
-146.5260340191998
 20
691.5238031484222
 10
-146.5260340191998
 20
676.5238031484223
 10
-166.7760340191998
 20
676.5238031484223
  0
LWPOLYLINE
  5
179
330
1F
100
AcDbEntity
  8
0
100
AcDbPolyline
 90
       24
 70
     1
 43
0.0
 10
-176.564010695285
 20
676.5420543665559
 10
-176.525678695285
 20
676.8332043665559
 10
-176.564011695285
 20
677.1244293665558
 10
-176.676400695285
 20
677.395779366556
 10
-176.855183695285
 20
677.6288043665561
 10
-177.088178695285
 20
677.8075293665559
 10
-177.359506695285
 20
677.9199543665558
 10
-177.650678695285
 20
677.9582043665559
 10
-177.941851695285
 20
677.919878366556
 10
-178.213179695285
 20
677.8074543665559
 10
-178.446174695285
 20
677.6287293665559
 10
-178.624957695285
 20
677.3957043665559
 10
-178.737346695285
 20
677.1243543665559
 10
-178.775678695285
 20
676.8332043665559
 10
-178.737345695285
 20
676.5419783665558
 10
-178.624956695285
 20
676.2706283665559
 10
-178.446173695285
 20
676.0376033665559
 10
-178.213178695285
 20
675.8588783665559
 10
-177.941850695285
 20
675.7464533665559
 10
-177.650678695285
 20
675.7082043665559
 10
-177.359505695285
 20
675.7465293665559
 10
-177.088177695285
 20
675.8589543665559
 10
-176.8551826952851
 20
676.0376793665559
 10
-176.676399695285
 20
676.2707043665559
  0
LWPOLYLINE
  5
180
330
1F
100
AcDbEntity
  8
0
100
AcDbPolyline
 90
       24
 70
     1
 43
0.0
 10
-194.374956695285
 20
665.7707043665559
 10
-194.196173695285
 20
665.5376793665559
 10
-193.963178695285
 20
665.3589543665559
 10
-193.691850695285
 20
665.2465293665559
 10
-193.400678695285
 20
665.2082043665559
 10
-193.109506695285
 20
665.2465293665559
 10
-192.838178695285
 20
665.3589543665559
 10
-192.6051836952851
 20
665.5376793665559
 10
-192.426400695285
 20
665.7707043665559
 10
-192.314010695285
 20
666.0420543665559
 10
-192.275678695285
 20
666.3332043665559
 10
-192.314011695285
 20
666.6244293665559
 10
-192.426400695285
 20
666.8957793665559
 10
-192.6051836952851
 20
667.1288043665559
 10
-192.838178695285
 20
667.307529366556
 10
-193.109506695285
 20
667.4199543665558
 10
-193.400678695285
 20
667.4582043665559
 10
-193.691851695285
 20
667.419878366556
 10
-193.963179695285
 20
667.3074543665559
 10
-194.196174695285
 20
667.1287293665559
 10
-194.374957695285
 20
666.8957043665559
 10
-194.487346695285
 20
666.6243543665559
 10
-194.525678695285
 20
666.3332043665559
 10
-194.487345695285
 20
666.0420543665559
  0
LWPOLYLINE
  5
181
330
1F
100
AcDbEntity
  8
0
100
AcDbPolyline
 90
       24
 70
     1
 43
0.0
 10
-178.624956695285
 20
665.7706283665559
 10
-178.446173695285
 20
665.5376033665559
 10
-178.213178695285
 20
665.3588783665559
 10
-177.941850695285
 20
665.2464533665559
 10
-177.650678695285
 20
665.2082043665559
 10
-177.359505695285
 20
665.2465293665559
 10
-177.088177695285
 20
665.3589543665559
 10
-176.8551826952851
 20
665.5376793665559
 10
-176.676399695285
 20
665.7707043665559
 10
-176.564010695285
 20
666.0420543665559
 10
-176.525678695285
 20
666.3332043665559
 10
-176.564011695285
 20
666.6244293665559
 10
-176.676400695285
 20
666.8957793665559
 10
-176.855183695285
 20
667.1288043665559
 10
-177.088178695285
 20
667.307529366556
 10
-177.359506695285
 20
667.4199543665558
 10
-177.650678695285
 20
667.4582043665559
 10
-177.941851695285
 20
667.419878366556
 10
-178.213179695285
 20
667.3074543665559
 10
-178.446174695285
 20
667.1287293665559
 10
-178.624957695285
 20
666.8957043665559
 10
-178.737346695285
 20
666.6243543665559
 10
-178.775678695285
 20
666.3332043665559
 10
-178.737345695285
 20
666.0419783665559
  0
LWPOLYLINE
  5
182
330
1F
100
AcDbEntity
  8
0
100
AcDbPolyline
 90
       24
 70
     1
 43
0.0
 10
-202.1337598324695
 20
667.611111467067
 10
-201.9007648324696
 20
667.4323864670671
 10
-201.6294368324696
 20
667.3199614670671
 10
-201.3382648324696
 20
667.281636467067
 10
-201.0470918324696
 20
667.3199614670671
 10
-200.7757638324696
 20
667.4323864670671
 10
-200.5427688324696
 20
667.611111467067
 10
-200.3639858324696
 20
667.844136467067
 10
-200.2515968324696
 20
668.115486467067
 10
-200.2132648324696
 20
668.4066364670671
 10
-200.2515978324696
 20
668.697861467067
 10
-200.3639868324696
 20
668.9692114670671
 10
-200.5427698324696
 20
669.2022364670671
 10
-200.7757648324696
 20
669.380961467067
 10
-201.0470928324696
 20
669.4933864670669
 10
-201.3382648324696
 20
669.531636467067
 10
-201.6294368324696
 20
669.493311467067
 10
-201.9007648324696
 20
669.380886467067
 10
-202.1337608324695
 20
669.2021614670671
 10
-202.3125438324696
 20
668.9691364670671
 10
-202.4249328324696
 20
668.697786467067
 10
-202.4632648324696
 20
668.4066364670671
 10
-202.4249318324696
 20
668.115486467067
 10
-202.3125428324696
 20
667.844136467067
  0
LWPOLYLINE
  5
183
330
1F
100
AcDbEntity
  8
0
100
AcDbPolyline
 90
       24
 70
     1
 43
0.0
 10
-206.1876548324696
 20
674.3166364670671
 10
-206.4424008324696
 20
674.9316364670671
 10
-206.8476428324696
 20
675.459786467067
 10
-207.3757658324696
 20
675.865011467067
 10
-207.9907768324696
 20
676.1197114670671
 10
-208.6507658324696
 20
676.206636467067
 10
-209.3107538324696
 20
676.1197114670671
 10
-209.9257648324696
 20
675.8650104670671
 10
-210.4538868324696
 20
675.4597854670671
 10
-210.8591298324695
 20
674.9316364670671
 10
-211.1138758324696
 20
674.3166364670671
 10
-211.2007648324696
 20
673.6566364670671
 10
-211.1138758324696
 20
672.9966354670671
 10
-210.8591298324695
 20
672.381635467067
 10
-210.4538868324696
 20
671.8534864670671
 10
-209.9257648324696
 20
671.448260467067
 10
-209.3107538324696
 20
671.1935604670671
 10
-208.6507648324696
 20
671.106635467067
 10
-207.9907768324696
 20
671.1935614670671
 10
-207.3757658324696
 20
671.4482614670671
 10
-206.8476428324696
 20
671.8534864670671
 10
-206.4424008324696
 20
672.381636467067
 10
-206.1876548324696
 20
672.9966364670671
 10
-206.1007658324696
 20
673.6566364670671
  0
LWPOLYLINE
  5
184
330
1F
100
AcDbEntity
  8
0
100
AcDbPolyline
 90
        4
 70
     1
 43
0.0
 10
-195.650678695285
 20
679.083204366556
 10
-175.400678695285
 20
679.083204366556
 10
-175.400678695285
 20
664.0832043665559
 10
-195.650678695285
 20
664.0832043665559
  0
LWPOLYLINE
  5
185
330
1F
100
AcDbEntity
  8
0
100
AcDbPolyline
 90
       24
 70
     1
 43
0.0
 10
-218.0625438324696
 20
668.9691364670671
 10
-218.1749328324696
 20
668.697786467067
 10
-218.2132648324696
 20
668.4066364670671
 10
-218.1749318324695
 20
668.115486467067
 10
-218.0625428324696
 20
667.844136467067
 10
-217.8837598324696
 20
667.611111467067
 10
-217.6507648324696
 20
667.4323864670671
 10
-217.3794368324696
 20
667.3199614670671
 10
-217.0882648324696
 20
667.281636467067
 10
-216.7970918324696
 20
667.3199614670671
 10
-216.5257638324696
 20
667.4323864670671
 10
-216.2927688324696
 20
667.611111467067
 10
-216.1139858324696
 20
667.844136467067
 10
-216.0015968324696
 20
668.115486467067
 10
-215.9632648324696
 20
668.4066364670671
 10
-216.0015988324695
 20
668.697785467067
 10
-216.1139868324696
 20
668.9692114670671
 10
-216.2927698324696
 20
669.2022364670671
 10
-216.5257648324696
 20
669.380961467067
 10
-216.7970928324696
 20
669.4933864670669
 10
-217.0882648324696
 20
669.531636467067
 10
-217.3794378324696
 20
669.4933104670671
 10
-217.6507658324696
 20
669.380886467067
 10
-217.8837608324696
 20
669.2021614670671
  0
LWPOLYLINE
  5
186
330
1F
100
AcDbEntity
  8
0
100
AcDbPolyline
 90
       24
 70
     1
 43
0.0
 10
-216.5257648324696
 20
679.8809614670671
 10
-216.7970928324696
 20
679.993386467067
 10
-217.0882648324696
 20
680.0316364670671
 10
-217.3794368324696
 20
679.9933114670671
 10
-217.6507658324696
 20
679.880886467067
 10
-217.8837608324696
 20
679.702161467067
 10
-218.0625438324696
 20
679.469136467067
 10
-218.1749328324696
 20
679.1977864670671
 10
-218.2132648324696
 20
678.906636467067
 10
-218.1749318324695
 20
678.615486467067
 10
-218.0625428324696
 20
678.3441364670671
 10
-217.8837598324696
 20
678.1111114670671
 10
-217.6507648324696
 20
677.932386467067
 10
-217.3794368324696
 20
677.819961467067
 10
-217.0882648324696
 20
677.7816364670671
 10
-216.7970918324696
 20
677.819961467067
 10
-216.5257638324696
 20
677.932386467067
 10
-216.2927688324696
 20
678.1111114670671
 10
-216.1139858324696
 20
678.3441364670671
 10
-216.0015968324696
 20
678.615486467067
 10
-215.9632648324696
 20
678.906636467067
 10
-216.0015978324695
 20
679.197861467067
 10
-216.1139868324696
 20
679.4692114670671
 10
-216.2927698324696
 20
679.7022364670671
  0
LWPOLYLINE
  5
187
330
1F
100
AcDbEntity
  8
0
100
AcDbPolyline
 90
       24
 70
     1
 43
0.0
 10
-78.26706008656254
 20
859.0982766984081
 10
-78.03406508656258
 20
859.2770016984081
 10
-77.85528208656254
 20
859.5100266984081
 10
-77.74289308656261
 20
859.7813766984081
 10
-77.70456108656262
 20
860.0725266984081
 10
-77.74289408656255
 20
860.3637516984081
 10
-77.85528308656259
 20
860.6351016984081
 10
-78.03406608656257
 20
860.8681266984081
 10
-78.26706108656259
 20
861.0468516984081
 10
-78.53838908656257
 20
861.159275698408
 10
-78.82956108656253
 20
861.1975266984082
 10
-79.12073408656258
 20
861.1592016984081
 10
-79.39206208656258
 20
861.0467766984081
 10
-79.62505708656258
 20
860.8680516984081
 10
-79.80384008656262
 20
860.6350266984081
 10
-79.9162290865626
 20
860.3636766984081
 10
-79.95456108656259
 20
860.0725266984081
 10
-79.91622808656254
 20
859.7813766984081
 10
-79.80383908656259
 20
859.5100266984081
 10
-79.62505608656258
 20
859.2770016984081
 10
-79.39206108656259
 20
859.0982766984081
 10
-79.12073308656258
 20
858.9858516984081
 10
-78.82956108656253
 20
858.9475266984079
 10
-78.5383900865626
 20
858.9858516984081
  0
LWPOLYLINE
  5
188
330
1F
100
AcDbEntity
  8
0
100
AcDbPolyline
 90
       24
 70
     1
 43
0.0
 10
-79.39206208656258
 20
877.5467766984082
 10
-79.62505708656258
 20
877.3680516984082
 10
-79.80384008656262
 20
877.1350266984082
 10
-79.9162290865626
 20
876.8636766984082
 10
-79.95456108656259
 20
876.5725266984082
 10
-79.91622808656254
 20
876.2813766984081
 10
-79.80383908656259
 20
876.0100266984082
 10
-79.62505608656258
 20
875.7770016984082
 10
-79.39206108656259
 20
875.5982766984082
 10
-79.12073308656258
 20
875.4858516984082
 10
-78.82956108656253
 20
875.447526698408
 10
-78.53838808656258
 20
875.4858516984082
 10
-78.26706008656254
 20
875.5982766984082
 10
-78.03406508656258
 20
875.7770016984082
 10
-77.85528208656254
 20
876.0100266984082
 10
-77.74289308656261
 20
876.2813766984081
 10
-77.70456108656262
 20
876.5725266984082
 10
-77.74289408656255
 20
876.8637516984082
 10
-77.85528308656259
 20
877.135101698408
 10
-78.03406608656257
 20
877.368126698408
 10
-78.26706108656259
 20
877.5468516984082
 10
-78.53838908656257
 20
877.6592756984083
 10
-78.82956108656253
 20
877.6975266984081
 10
-79.12073308656258
 20
877.659201698408
  0
LWPOLYLINE
  5
189
330
1F
100
AcDbEntity
  8
0
100
AcDbPolyline
 90
        4
 70
     1
 43
0.0
 10
-225.5461646267084
 20
682.3098805329038
 10
-228.5461646267084
 20
682.3098805329038
 10
-228.5461646267084
 20
667.3098805329037
 10
-225.5461646267084
 20
667.3098805329037
  0
LWPOLYLINE
  5
190
330
1F
100
AcDbEntity
  8
0
100
AcDbPolyline
 90
        4
 70
     1
 43
0.0
 10
-75.07956108656253
 20
856.322526698408
 10
-82.57956108656253
 20
856.322526698408
 10
-82.57956108656253
 20
880.3225266984082
 10
-75.07956108656253
 20
880.3225266984082
  0
LWPOLYLINE
  5
191
330
1F
100
AcDbEntity
  8
0
100
AcDbPolyline
 90
       24
 70
     1
 43
0.0
 10
-141.5078326267084
 20
748.3937305329037
 10
-141.3954526267084
 20
748.1223805329037
 10
-141.2166676267085
 20
747.8893555329037
 10
-140.9836726267085
 20
747.7106305329036
 10
-140.7123446267085
 20
747.5982055329037
 10
-140.4211726267084
 20
747.559955532904
 10
-140.1299996267085
 20
747.5982055329037
 10
-139.8586726267085
 20
747.7106305329036
 10
-139.6256766267085
 20
747.8893555329037
 10
-139.4468916267085
 20
748.1223805329037
 10
-139.3345046267086
 20
748.3937305329038
 10
-139.2961796267085
 20
748.6848805329039
 10
-139.3345046267086
 20
748.9760305329037
 10
-139.4468916267085
 20
749.2473805329036
 10
-139.6256766267085
 20
749.4804055329036
 10
-139.8586726267085
 20
749.6591305329038
 10
-140.1299996267085
 20
749.7715555329037
 10
-140.4211726267084
 20
749.8098045329038
 10
-140.7123446267085
 20
749.7715555329037
 10
-140.9836726267085
 20
749.6591305329038
 10
-141.2166676267085
 20
749.4804055329036
 10
-141.3954526267084
 20
749.2473805329036
 10
-141.5078396267085
 20
748.9760305329037
 10
-141.5461646267085
 20
748.6848805329039
  0
LWPOLYLINE
  5
192
330
1F
100
AcDbEntity
  8
0
100
AcDbPolyline
 90
        4
 70
     1
 43
0.0
 10
-134.0461646267085
 20
667.3098805329037
 10
-134.0461646267085
 20
682.3098805329038
 10
-137.0461646267085
 20
682.3098805329038
 10
-137.0461646267085
 20
667.3098805329037
  0
LWPOLYLINE
  5
193
330
1F
100
AcDbEntity
  8
0
100
AcDbPolyline
 90
       24
 70
     1
 43
0.0
 10
-221.0844976267084
 20
748.976105532904
 10
-221.1968866267084
 20
749.2474555329037
 10
-221.3756696267084
 20
749.4804805329037
 10
-221.6086646267084
 20
749.659205532904
 10
-221.8799926267084
 20
749.7716295329037
 10
-222.1711646267084
 20
749.8098805329036
 10
-222.4623376267084
 20
749.7715555329037
 10
-222.7336656267084
 20
749.6591305329038
 10
-222.9666606267084
 20
749.4804055329036
 10
-223.1454436267084
 20
749.2473805329036
 10
-223.2578326267084
 20
748.9760305329037
 10
-223.2961646267084
 20
748.6848805329039
 10
-223.2578316267084
 20
748.3937305329037
 10
-223.1454426267085
 20
748.1223805329037
 10
-222.9666596267084
 20
747.8893555329037
 10
-222.7336646267084
 20
747.7106305329036
 10
-222.4623366267084
 20
747.5982055329037
 10
-222.1711646267084
 20
747.5598805329036
 10
-221.8799916267084
 20
747.5982055329037
 10
-221.6086636267084
 20
747.7106305329036
 10
-221.3756686267084
 20
747.8893555329037
 10
-221.1968856267084
 20
748.1223805329037
 10
-221.0844966267084
 20
748.3937305329037
 10
-221.0461646267084
 20
748.6848805329039
  0
LWPOLYLINE
  5
194
330
1F
100
AcDbEntity
  8
0
100
AcDbPolyline
 90
        4
 70
     1
 43
0.0
 10
-149.0461646267085
 20
746.8098805329036
 10
-149.0461646267085
 20
749.8098805329036
 10
-164.0461646267085
 20
749.8098805329036
 10
-164.0461646267085
 20
746.8098805329036
  0
LWPOLYLINE
  5
195
330
1F
100
AcDbEntity
  8
0
100
AcDbPolyline
 90
        4
 70
     1
 43
0.0
 10
-213.5461646267084
 20
749.8098805329036
 10
-213.5461646267084
 20
746.8098805329036
 10
-198.5461646267084
 20
746.8098805329036
 10
-198.5461646267084
 20
749.8098805329036
  0
LWPOLYLINE
  5
196
330
1F
100
AcDbEntity
  8
0
100
AcDbPolyline
 90
        4
 70
     1
 43
0.0
 10
-149.0461646267085
 20
602.8098805329038
 10
-164.0461646267085
 20
602.8098805329038
 10
-164.0461646267085
 20
599.8098805329038
 10
-149.0461646267085
 20
599.8098805329038
  0
LWPOLYLINE
  5
197
330
1F
100
AcDbEntity
  8
0
100
AcDbPolyline
 90
        4
 70
     1
 43
0.0
 10
-213.5461646267084
 20
602.8098805329038
 10
-213.5461646267084
 20
599.8098805329038
 10
-198.5461646267084
 20
599.8098805329038
 10
-198.5461646267084
 20
602.8098805329038
  0
LWPOLYLINE
  5
198
330
1F
100
AcDbEntity
  8
0
100
AcDbPolyline
 90
        4
 70
     1
 43
0.0
 10
-131.7961646267085
 20
752.0598805329036
 10
-131.7961646267085
 20
597.5598805329038
 10
-230.7961646267084
 20
597.5598805329038
 10
-230.7961646267084
 20
752.0598805329036
  0
LWPOLYLINE
  5
199
330
1F
100
AcDbEntity
  8
0
100
AcDbPolyline
 90
       15
 70
     1
 43
0.0
 10
-78.29689464898365
 20
817.9777573500942
 10
-80.54689464898364
 20
817.9777573500942
 10
-80.54689464898364
 20
820.2277573500941
 10
-78.29689464898365
 20
820.2277573500941
 10
-78.29689464898365
 20
825.4777573500941
 10
-80.54689464898364
 20
825.4777573500941
 10
-80.54689464898364
 20
827.7277573500942
 10
-74.54689464898365
 20
827.7277573500942
 10
-74.54689464898365
 20
835.2277573500941
 10
-72.82189464898369
 20
835.2277573500941
 10
-72.82189464898369
 20
832.9777573500942
 10
-64.79689464898365
 20
832.9777573500942
 10
-64.79689464898365
 20
835.2277573500941
 10
-62.54689464898365
 20
835.2277573500941
 10
-62.54689464898365
 20
832.9777573500942
  0
LWPOLYLINE
  5
200
330
1F
100
AcDbEntity
  8
0
100
AcDbPolyline
 90
       24
 70
     1
 43
0.0
 10
-209.2267047352973
 20
688.2078669361858
 10
-209.4054877352974
 20
687.9748419361858
 10
-209.5178767352974
 20
687.7034919361858
 10
-209.5562087352973
 20
687.4123419361858
 10
-209.5178757352974
 20
687.1211919361858
 10
-209.4054867352974
 20
686.8498419361858
 10
-209.2267037352973
 20
686.6168169361858
 10
-208.9937087352973
 20
686.4380919361858
 10
-208.7223807352973
 20
686.3256669361858
 10
-208.4312087352973
 20
686.2873419361858
 10
-208.1400357352973
 20
686.3256669361858
 10
-207.8687077352973
 20
686.4380919361858
 10
-207.6357127352974
 20
686.6168169361858
 10
-207.4569297352974
 20
686.8498419361858
 10
-207.3445407352973
 20
687.1211919361858
 10
-207.3062087352973
 20
687.4123419361858
 10
-207.3445417352973
 20
687.7035669361857
 10
-207.4569307352973
 20
687.9749169361858
 10
-207.6357137352974
 20
688.2079419361858
 10
-207.8687087352973
 20
688.3866669361857
 10
-208.1400367352974
 20
688.4990919361857
 10
-208.4312087352973
 20
688.5373419361858
 10
-208.7223807352973
 20
688.4990169361856
 10
-208.9937097352973
 20
688.3865919361858
  0
LWPOLYLINE
  5
201
330
1F
100
AcDbEntity
  8
0
100
AcDbPolyline
 90
       18
 70
     1
 43
0.0
 10
-199.8062087352973
 20
694.5373419361858
 10
-199.8062087352973
 20
693.5623419361856
 10
-198.1562087352973
 20
693.5623419361856
 10
-198.1562087352973
 20
694.5373419361858
 10
-195.9062087352973
 20
694.5373419361858
 10
-195.9062087352973
 20
696.7873419361858
 10
-198.1562087352973
 20
696.7873419361858
 10
-198.1562087352973
 20
697.7623409361858
 10
-199.8062087352973
 20
697.7623409361858
 10
-199.8062087352973
 20
696.7873419361858
 10
-201.3062087352973
 20
696.7873419361858
 10
-201.3062087352973
 20
699.7873419361858
 10
-193.8062087352973
 20
699.7873419361858
 10
-193.8062087352973
 20
684.7873419361858
 10
-213.3062087352973
 20
684.7873419361858
 10
-213.3062087352973
 20
692.2873419361858
 10
-201.3062087352973
 20
692.2873419361858
 10
-201.3062087352973
 20
694.5373419361858
  0
LWPOLYLINE
  5
202
330
1F
100
AcDbEntity
  8
0
100
AcDbPolyline
 90
       24
 70
     1
 43
0.0
 10
-185.3514701702282
 20
694.8322198307453
 10
-185.1184751702283
 20
695.0109448307452
 10
-184.9396921702283
 20
695.2439698307452
 10
-184.8273031702282
 20
695.5153198307453
 10
-184.7889711702282
 20
695.8064698307452
 10
-184.8273041702282
 20
696.0976948307452
 10
-184.9396931702282
 20
696.3690448307452
 10
-185.1184761702283
 20
696.6020698307452
 10
-185.3514711702282
 20
696.7807948307453
 10
-185.6227991702283
 20
696.8932198307452
 10
-185.9139711702282
 20
696.9314698307453
 10
-186.2051431702282
 20
696.8931448307452
 10
-186.4764721702282
 20
696.7807198307452
 10
-186.7094671702282
 20
696.6019948307453
 10
-186.8882501702282
 20
696.3689698307453
 10
-187.0006391702283
 20
696.0976198307453
 10
-187.0389711702282
 20
695.8064698307452
 10
-187.0006381702283
 20
695.5153198307453
 10
-186.8882491702283
 20
695.2439698307452
 10
-186.7094661702282
 20
695.0109448307452
 10
-186.4764711702282
 20
694.8322198307453
 10
-186.2051431702282
 20
694.7197948307453
 10
-185.9139711702282
 20
694.6814698307453
 10
-185.6227981702282
 20
694.7197948307453
  0
LWPOLYLINE
  5
203
330
1F
100
AcDbEntity
  8
0
100
AcDbPolyline
 90
       28
 70
     1
 43
0.0
 10
-190.7889711702282
 20
681.1814698307452
 10
-190.7889711702282
 20
700.6814698307453
 10
-185.9139711702282
 20
700.6814698307453
 10
-184.6522281702282
 20
700.5153438307453
 10
-183.4764711702282
 20
700.0283688307452
 10
-182.4668251702282
 20
699.2536188307454
 10
-181.6920971702282
 20
698.2439698307453
 10
-181.2050821702282
 20
697.0681938307453
 10
-181.0389711702282
 20
695.8064698307452
 10
-181.0389711702282
 20
690.9314698307452
 10
-183.2889711702282
 20
690.9314698307452
 10
-183.2889711702282
 20
688.6814698307452
 10
-176.9139711702282
 20
688.6814698307452
 10
-176.9139711702282
 20
687.1814698307453
 10
-177.8889711702282
 20
687.1814698307453
 10
-177.8889711702282
 20
685.5314688307453
 10
-176.9139711702282
 20
685.5314688307453
 10
-176.9139711702282
 20
683.2814688307453
 10
-174.6639711702282
 20
683.2814688307453
 10
-174.6639711702282
 20
685.5314688307453
 10
-173.6889711702283
 20
685.5314688307453
 10
-173.6889711702283
 20
687.1814698307453
 10
-174.6639711702282
 20
687.1814698307453
 10
-174.6639711702282
 20
688.6814698307452
 10
-172.0389711702282
 20
688.6814698307452
 10
-172.0389711702282
 20
690.9314698307452
 10
-168.2889711702282
 20
690.9314698307452
 10
-168.2889711702282
 20
681.1814698307452
  0
LWPOLYLINE
  5
204
330
1F
100
AcDbEntity
  8
0
100
AcDbPolyline
 90
       24
 70
     1
 43
0.0
 10
-164.5260340191998
 20
690.3988031484223
 10
-164.8172070191999
 20
690.3604771484224
 10
-165.0885350191998
 20
690.2480531484222
 10
-165.3215300191999
 20
690.0693281484223
 10
-165.5003130191999
 20
689.8363031484223
 10
-165.6127020191999
 20
689.5649531484223
 10
-165.6510340191998
 20
689.2738031484222
 10
-165.6127010191998
 20
688.9826531484223
 10
-165.5003120191999
 20
688.7113031484223
 10
-165.3215290191999
 20
688.4782781484223
 10
-165.0885340191998
 20
688.2995531484223
 10
-164.8172060191999
 20
688.1871281484222
 10
-164.5260340191998
 20
688.1488031484223
 10
-164.2348610191999
 20
688.1871281484222
 10
-163.9635330191999
 20
688.2995531484223
 10
-163.7305380191998
 20
688.4782781484223
 10
-163.5517550191999
 20
688.7113031484223
 10
-163.4393660191998
 20
688.9826531484223
 10
-163.4010340191998
 20
689.2738031484222
 10
-163.4393670191998
 20
689.5650281484222
 10
-163.5517560191998
 20
689.8363781484222
 10
-163.7305390191999
 20
690.0694031484222
 10
-163.9635340191999
 20
690.2481281484223
 10
-164.2348620191999
 20
690.3605531484222
  0
LWPOLYLINE
  5
205
330
1F
100
AcDbEntity
  8
0
100
AcDbPolyline
 90
       24
 70
     1
 43
0.0
 10
-165.5003120191999
 20
678.2112271484223
 10
-165.3215290191999
 20
677.9782021484223
 10
-165.0885340191998
 20
677.7994771484222
 10
-164.8172060191999
 20
677.6870521484222
 10
-164.5260340191998
 20
677.6488031484222
 10
-164.2348610191999
 20
677.6871281484223
 10
-163.9635330191999
 20
677.7995531484223
 10
-163.7305380191998
 20
677.9782781484223
 10
-163.5517550191999
 20
678.2113031484223
 10
-163.4393660191998
 20
678.4826531484222
 10
-163.4010340191998
 20
678.7738031484223
 10
-163.4393670191998
 20
679.0650281484222
 10
-163.5517560191998
 20
679.3363781484223
 10
-163.7305390191999
 20
679.5694031484223
 10
-163.9635340191999
 20
679.7481281484223
 10
-164.2348620191999
 20
679.8605531484222
 10
-164.5260340191998
 20
679.8988031484222
 10
-164.8172070191999
 20
679.8604771484224
 10
-165.0885350191998
 20
679.7480531484223
 10
-165.3215300191999
 20
679.5693281484223
 10
-165.5003130191999
 20
679.3363031484223
 10
-165.6127020191999
 20
679.0649531484223
 10
-165.6510340191998
 20
678.7738031484223
 10
-165.6127010191998
 20
678.4826531484222
  0
CIRCLE
  5
206
330
1F
100
AcDbEntity
  8
0
100
AcDbCircle
 10
-56.51712197900028
 20
887.9562875009124
 30
0.0
 40
1.25
  0
CIRCLE
  5
207
330
1F
100
AcDbEntity
  8
0
100
AcDbCircle
 10
-87.51712197900026
 20
887.9562875009124
 30
0.0
 40
1.250000000000009
  0
CIRCLE
  5
208
330
1F
100
AcDbEntity
  8
0
100
AcDbCircle
 10
-56.51712197900028
 20
812.9562875009121
 30
0.0
 40
1.25
  0
CIRCLE
  5
209
330
1F
100
AcDbEntity
  8
0
100
AcDbCircle
 10
-233.6517007125638
 20
877.2093740518524
 30
0.0
 40
1.454257877367233
  0
CIRCLE
  5
210
330
1F
100
AcDbEntity
  8
0
100
AcDbCircle
 10
-233.6517007125638
 20
822.5693740518524
 30
0.0
 40
1.5
  0
CIRCLE
  5
211
330
1F
100
AcDbEntity
  8
0
100
AcDbCircle
 10
-59.542122
 20
917.7762615309152
 30
0.0
 40
1.500000000000056
  0
CIRCLE
  5
212
330
1F
100
AcDbEntity
  8
0
100
AcDbCircle
 10
-59.542123
 20
907.2762615309152
 30
0.0
 40
1.5
  0
CIRCLE
  5
213
330
1F
100
AcDbEntity
  8
0
100
AcDbCircle
 10
-75.292122
 20
917.7762615309152
 30
0.0
 40
1.5
  0
CIRCLE
  5
214
330
1F
100
AcDbEntity
  8
0
100
AcDbCircle
 10
-75.292122
 20
907.2762615309152
 30
0.0
 40
1.500000000000039
  0
CIRCLE
  5
215
330
1F
100
AcDbEntity
  8
0
100
AcDbCircle
 10
-92.692122
 20
904.314261530915
 30
0.0
 40
1.500000000000056
  0
CIRCLE
  5
216
330
1F
100
AcDbEntity
  8
0
100
AcDbCircle
 10
-92.692122
 20
920.8142615309153
 30
0.0
 40
1.499999999999969
  0
CIRCLE
  5
217
330
1F
100
AcDbEntity
  8
0
100
AcDbCircle
 10
-87.51712197900026
 20
812.9562875009121
 30
0.0
 40
1.249999999999954
  0
CIRCLE
  5
218
330
1F
100
AcDbEntity
  8
0
100
AcDbCircle
 10
-68.75000000000025
 20
666.2500000000015
 30
0.0
 40
1.125
  0
CIRCLE
  5
222
330
1F
100
AcDbEntity
  8
0
100
AcDbCircle
 10
-57.75000000000024
 20
677.2500000000011
 30
0.0
 40
1.125
  0
CIRCLE
  5
223
330
1F
100
AcDbEntity
  8
0
100
AcDbCircle
 10
-68.75000000000023
 20
688.250000000001
 30
0.0
 40
1.125
  0
CIRCLE
  5
224
330
1F
100
AcDbEntity
  8
0
100
AcDbCircle
 10
-79.75000000000021
 20
677.2500000000011
 30
0.0
 40
1.125
  0
CIRCLE
  5
226
330
1F
100
AcDbEntity
  8
0
100
AcDbCircle
 10
-222.1711646267084
 20
600.9348805329039
 30
0.0
 40
1.125
  0
CIRCLE
  5
227
330
1F
100
AcDbEntity
  8
0
100
AcDbCircle
 10
-140.4461646267085
 20
600.9348805329039
 30
0.0
 40
1.125
  0
CIRCLE
  5
230
330
1F
100
AcDbEntity
  8
0
100
AcDbCircle
 10
-181.2961646267085
 20
674.8098805329038
 30
0.0
 40
41.25
  0
CIRCLE
  5
231
330
1F
100
AcDbEntity
  8
0
100
AcDbCircle
 10
-138.7458352522033
 20
437.0366600026719
 30
0.0
 40
1.125
  0
CIRCLE
  5
232
330
1F
100
AcDbEntity
  8
0
100
AcDbCircle
 10
-220.5708352522033
 20
437.0366600026719
 30
0.0
 40
1.125
  0
ARC
  5
234
330
1F
100
AcDbEntity
  8
0
100
AcDbCircle
 10
-179.696029946607
 20
510.7866600026718
 30
0.0
 40
44.99999999999989
100
AcDbArc
 50
224.9996576046153
 51
134.9996491517696
  0
LINE
  5
235
330
1F
100
AcDbEntity
  8
0
100
AcDbLine
 10
-229.1958352522032
 20
542.6066600026719
 30
0.0
 11
-229.1958352522032
 21
478.9670450026719
 31
0.0
  0
ENDSEC
  0
SECTION
  2
OBJECTS
  0
DICTIONARY
  5
C
330
0
100
AcDbDictionary
281
     1
  3
ACAD_CIP_PREVIOUS_PRODUCT_INFO
350
1005A
  3
ACAD_COLOR
350
10036
  3
ACAD_DETAILVIEWSTYLE
350
10051
  3
ACAD_GROUP
350
D
  3
ACAD_LAYOUT
350
10037
  3
ACAD_MATERIAL
350
10004
  3
ACAD_MLEADERSTYLE
350
1004D
  3
ACAD_MLINESTYLE
350
17
  3
ACAD_PLOTSETTINGS
350
10054
  3
ACAD_PLOTSTYLENAME
350
10002
  3
ACAD_SCALELIST
350
1003B
  3
ACAD_SECTIONVIEWSTYLE
350
1004F
  3
ACAD_TABLESTYLE
350
10038
  3
ACAD_VISUALSTYLE
350
1001D
  3
ACDB_RECOMPOSE_DATA
350
10084
  3
AcDbVariableDictionary
350
10078
  0
DICTIONARY
  5
10072
330
2
100
AcDbDictionary
280
     1
281
     1
  3
ACAD_LAYERSTATES
360
10073
  0
DICTIONARY
  5
1006D
330
50
100
AcDbDictionary
280
     1
281
     1
  3
ADSK_XREC_LAYER_RECONCILED
360
1006E
  0
XRECORD
  5
1005A
102
{ACAD_REACTORS
330
C
102
}
330
C
100
AcDbXrecord
280
     1
300
ACD
300
2018
300
ACD_F_S
  0
DICTIONARY
  5
10036
102
{ACAD_REACTORS
330
C
102
}
330
C
100
AcDbDictionary
281
     1
  0
DICTIONARY
  5
10051
102
{ACAD_REACTORS
330
C
102
}
330
C
100
AcDbDictionary
281
     1
  3
Imperial24
350
10052
  0
DICTIONARY
  5
D
330
C
100
AcDbDictionary
281
     1
  0
DICTIONARY
  5
10037
102
{ACAD_REACTORS
330
C
102
}
330
C
100
AcDbDictionary
281
     1
  3
Layout1
350
10056
  3
Model
350
10055
  0
DICTIONARY
  5
10004
102
{ACAD_REACTORS
330
C
102
}
330
C
100
AcDbDictionary
281
     1
  3
ByBlock
350
1000D
  3
ByLayer
350
10005
  3
Global
350
10015
  0
DICTIONARY
  5
1004D
102
{ACAD_REACTORS
330
C
102
}
330
C
100
AcDbDictionary
281
     1
  3
Standard
350
1004E
  0
DICTIONARY
  5
17
330
C
100
AcDbDictionary
281
     1
  3
Standard
350
1003A
  0
DICTIONARY
  5
10054
102
{ACAD_REACTORS
330
C
102
}
330
C
100
AcDbDictionary
281
     1
  0
ACDBDICTIONARYWDFLT
  5
10002
102
{ACAD_REACTORS
330
C
102
}
330
C
100
AcDbDictionary
281
     1
  3
Normal
350
10003
100
AcDbDictionaryWithDefault
340
10003
  0
DICTIONARY
  5
1003B
102
{ACAD_REACTORS
330
C
102
}
330
C
100
AcDbDictionary
281
     1
  3
A0
350
1003C
  3
A1
350
1003D
  3
A2
350
1003E
  3
A3
350
1003F
  3
A4
350
10040
  3
A5
350
10041
  3
A6
350
10042
  3
A7
350
10043
  3
A8
350
10044
  3
A9
350
10045
  3
B0
350
10046
  3
B1
350
10047
  3
B2
350
10048
  3
B3
350
10049
  3
B4
350
1004A
  3
B5
350
1004B
  3
B6
350
1004C
  0
DICTIONARY
  5
1004F
102
{ACAD_REACTORS
330
C
102
}
330
C
100
AcDbDictionary
281
     1
  3
Imperial24
350
10050
  0
DICTIONARY
  5
10038
102
{ACAD_REACTORS
330
C
102
}
330
C
100
AcDbDictionary
281
     1
  3
Standard
350
10039
  0
DICTIONARY
  5
1001D
102
{ACAD_REACTORS
330
C
102
}
330
C
100
AcDbDictionary
281
     1
  3
2dWireframe
350
10023
  3
Basic
350
10022
  3
Brighten
350
10029
  3
ColorChange
350
1002D
  3
Conceptual
350
10026
  3
Dim
350
10028
  3
EdgeColorOff
350
10035
  3
Facepattern
350
1002C
  3
Flat
350
1001E
  3
FlatWithEdges
350
1001F
  3
Gouraud
350
10020
  3
GouraudWithEdges
350
10021
  3
Hidden
350
10025
  3
JitterOff
350
10033
  3
Linepattern
350
1002B
  3
OverhangOff
350
10034
  3
Realistic
350
10027
  3
Shaded
350
10032
  3
Shaded with edges
350
10031
  3
Shades of Gray
350
1002E
  3
Sketchy
350
1002F
  3
Thicken
350
1002A
  3
Wireframe
350
10024
  3
X-Ray
350
10030
  0
XRECORD
  5
10084
102
{ACAD_REACTORS
330
C
102
}
330
C
100
AcDbXrecord
280
     1
 90
        1
330
10039
  0
DICTIONARY
  5
10078
102
{ACAD_REACTORS
330
C
102
}
330
C
100
AcDbDictionary
281
     1
  3
CANNOSCALE
350
1007E
  3
CMLEADERSTYLE
350
1007A
  3
CTABLESTYLE
350
10079
  3
CVIEWDETAILSTYLE
350
1007B
  3
CVIEWSECTIONSTYLE
350
1007C
  3
LAYEREVAL
350
10080
  3
LAYERNOTIFY
350
10081
  3
LIGHTINGUNITS
350
1007F
  3
MSLTSCALE
350
1007D
  0
DICTIONARY
  5
10073
102
{ACAD_REACTORS
330
10072
102
}
330
10072
100
AcDbDictionary
281
     1
  0
XRECORD
  5
1006E
102
{ACAD_REACTORS
330
1006D
102
}
330
1006D
100
AcDbXrecord
280
     1
290
     1
  0
ACDBDETAILVIEWSTYLE
  5
10052
102
{ACAD_REACTORS
330
10051
102
}
330
10051
100
AcDbModelDocViewStyle
 70
     0
  3
Imperial24
290
     0
300
Imperial24
 90
        0
100
AcDbDetailViewStyle
 70
     0
 71
     0
 90
        3
 71
     1
340
11
 62
   256
 40
0.24
340
0
 62
   256
 40
0.24
300

 40
0.36
280
     3
 71
     2
340
0
 90
       25
 62
   256
 71
     3
340
11
 62
   256
 40
0.24
 90
        1
 40
0.75
 90
        1
300
%<\AcVar ViewType \f "%tc1">% %<\AcVar ViewDetailId>%\PSCALE %<\AcVar ViewScale \f "%sn">%
 71
     4
340
0
 90
       25
 62
   256
340
0
 90
       25
 62
   256
280
     0
  0
LAYOUT
  5
10056
102
{ACAD_REACTORS
330
10037
102
}
330
10037
100
AcDbPlotSettings
  1

  2
PDFCreator
  4

  6

 40
0.0
 41
0.0
 42
0.0
 43
0.0
 44
0.0
 45
0.0
 46
0.0
 47
0.0
 48
0.0
 49
0.0
140
0.0
141
0.0
142
1.0
143
1.0
 70
   688
 72
     0
 73
     0
 74
     5
  7

 75
    16
147
1.0
 76
     0
 77
     2
 78
   300
148
0.0
149
0.0
100
AcDbLayout
  1
Layout1
 70
     1
 71
     1
 10
0.0
 20
0.0
 11
12.0
 21
9.0
 12
0.0
 22
0.0
 32
0.0
 14
1.000000000000000E+20
 24
1.000000000000000E+20
 34
1.000000000000000E+20
 15
-1.000000000000000E+20
 25
-1.000000000000000E+20
 35
-1.000000000000000E+20
146
0.0
 13
0.0
 23
0.0
 33
0.0
 16
1.0
 26
0.0
 36
0.0
 17
0.0
 27
1.0
 37
0.0
 76
     0
330
1B
  0
LAYOUT
  5
10055
102
{ACAD_REACTORS
330
10037
102
}
330
10037
100
AcDbPlotSettings
  1

  2
PDFCreator
  4

  6

 40
0.0
 41
0.0
 42
0.0
 43
0.0
 44
0.0
 45
0.0
 46
0.0
 47
0.0
 48
0.0
 49
0.0
140
0.0
141
0.0
142
1.0
143
1.0
 70
  1712
 72
     0
 73
     0
 74
     0
  7

 75
     0
147
1.0
 76
     0
 77
     2
 78
   300
148
0.0
149
0.0
100
AcDbLayout
  1
Model
 70
     1
 71
     0
 10
0.0
 20
0.0
 11
12.0
 21
9.0
 12
0.0
 22
0.0
 32
0.0
 14
0.0
 24
0.0
 34
0.0
 15
0.0
 25
0.0
 35
0.0
146
0.0
 13
0.0
 23
0.0
 33
0.0
 16
1.0
 26
0.0
 36
0.0
 17
0.0
 27
1.0
 37
0.0
 76
     0
330
1F
331
10059
  0
MATERIAL
  5
1000D
102
{ACAD_XDICTIONARY
360
1000E
102
}
102
{ACAD_REACTORS
330
10004
102
}
330
10004
100
AcDbMaterial
  1
ByBlock
 72
     0
 43
0.0008202099737533
 43
0.0
 43
0.0
 43
0.0
 43
0.0
 43
0.0008202099737533
 43
0.0
 43
0.0
 43
0.0
 43
0.0
 43
1.0
 43
0.0
 43
0.0
 43
0.0
 43
0.0
 43
1.0
 77
     0
 47
0.0008202099737533
 47
0.0
 47
0.0
 47
0.0
 47
0.0
 47
0.0008202099737533
 47
0.0
 47
0.0
 47
0.0
 47
0.0
 47
1.0
 47
0.0
 47
0.0
 47
0.0
 47
0.0
 47
1.0
171
     0
 49
0.0008202099737533
 49
0.0
 49
0.0
 49
0.0
 49
0.0
 49
0.0008202099737533
 49
0.0
 49
0.0
 49
0.0
 49
0.0
 49
1.0
 49
0.0
 49
0.0
 49
0.0
 49
0.0
 49
1.0
175
     0
142
0.0008202099737533
142
0.0
142
0.0
142
0.0
142
0.0
142
0.0008202099737533
142
0.0
142
0.0
142
0.0
142
0.0
142
1.0
142
0.0
142
0.0
142
0.0
142
0.0
142
1.0
179
     0
144
0.0008202099737533
144
0.0
144
0.0
144
0.0
144
0.0
144
0.0008202099737533
144
0.0
144
0.0
144
0.0
144
0.0
144
1.0
144
0.0
144
0.0
144
0.0
144
0.0
144
1.0
147
0.0008202099737533
147
0.0
147
0.0
147
0.0
147
0.0
147
0.0008202099737533
147
0.0
147
0.0
147
0.0
147
0.0
147
1.0
147
0.0
147
0.0
147
0.0
147
0.0
147
1.0
  0
MATERIAL
  5
10005
102
{ACAD_XDICTIONARY
360
10006
102
}
102
{ACAD_REACTORS
330
10004
102
}
330
10004
100
AcDbMaterial
  1
ByLayer
 72
     0
 43
0.0008202099737533
 43
0.0
 43
0.0
 43
0.0
 43
0.0
 43
0.0008202099737533
 43
0.0
 43
0.0
 43
0.0
 43
0.0
 43
1.0
 43
0.0
 43
0.0
 43
0.0
 43
0.0
 43
1.0
 77
     0
 47
0.0008202099737533
 47
0.0
 47
0.0
 47
0.0
 47
0.0
 47
0.0008202099737533
 47
0.0
 47
0.0
 47
0.0
 47
0.0
 47
1.0
 47
0.0
 47
0.0
 47
0.0
 47
0.0
 47
1.0
171
     0
 49
0.0008202099737533
 49
0.0
 49
0.0
 49
0.0
 49
0.0
 49
0.0008202099737533
 49
0.0
 49
0.0
 49
0.0
 49
0.0
 49
1.0
 49
0.0
 49
0.0
 49
0.0
 49
0.0
 49
1.0
175
     0
142
0.0008202099737533
142
0.0
142
0.0
142
0.0
142
0.0
142
0.0008202099737533
142
0.0
142
0.0
142
0.0
142
0.0
142
1.0
142
0.0
142
0.0
142
0.0
142
0.0
142
1.0
179
     0
144
0.0008202099737533
144
0.0
144
0.0
144
0.0
144
0.0
144
0.0008202099737533
144
0.0
144
0.0
144
0.0
144
0.0
144
1.0
144
0.0
144
0.0
144
0.0
144
0.0
144
1.0
147
0.0008202099737533
147
0.0
147
0.0
147
0.0
147
0.0
147
0.0008202099737533
147
0.0
147
0.0
147
0.0
147
0.0
147
1.0
147
0.0
147
0.0
147
0.0
147
0.0
147
1.0
  0
MATERIAL
  5
10015
102
{ACAD_XDICTIONARY
360
10016
102
}
102
{ACAD_REACTORS
330
10004
102
}
330
10004
100
AcDbMaterial
  1
Global
 72
     0
 43
0.0008202099737533
 43
0.0
 43
0.0
 43
0.0
 43
0.0
 43
0.0008202099737533
 43
0.0
 43
0.0
 43
0.0
 43
0.0
 43
1.0
 43
0.0
 43
0.0
 43
0.0
 43
0.0
 43
1.0
 77
     0
 47
0.0008202099737533
 47
0.0
 47
0.0
 47
0.0
 47
0.0
 47
0.0008202099737533
 47
0.0
 47
0.0
 47
0.0
 47
0.0
 47
1.0
 47
0.0
 47
0.0
 47
0.0
 47
0.0
 47
1.0
171
     0
 49
0.0008202099737533
 49
0.0
 49
0.0
 49
0.0
 49
0.0
 49
0.0008202099737533
 49
0.0
 49
0.0
 49
0.0
 49
0.0
 49
1.0
 49
0.0
 49
0.0
 49
0.0
 49
0.0
 49
1.0
175
     0
142
0.0008202099737533
142
0.0
142
0.0
142
0.0
142
0.0
142
0.0008202099737533
142
0.0
142
0.0
142
0.0
142
0.0
142
1.0
142
0.0
142
0.0
142
0.0
142
0.0
142
1.0
179
     0
144
0.0008202099737533
144
0.0
144
0.0
144
0.0
144
0.0
144
0.0008202099737533
144
0.0
144
0.0
144
0.0
144
0.0
144
1.0
144
0.0
144
0.0
144
0.0
144
0.0
144
1.0
147
0.0008202099737533
147
0.0
147
0.0
147
0.0
147
0.0
147
0.0008202099737533
147
0.0
147
0.0
147
0.0
147
0.0
147
1.0
147
0.0
147
0.0
147
0.0
147
0.0
147
1.0
  0
MLEADERSTYLE
  5
1004E
102
{ACAD_REACTORS
330
1004D
102
}
330
1004D
100
AcDbMLeaderStyle
179
     2
170
     2
171
     1
172
     0
 90
        2
 40
0.0
 41
0.0
173
     1
 91
-1056964608
340
14
 92
       -2
290
     1
 42
0.09
291
     1
 43
0.36
  3
Standard
 44
0.18
300

342
11
174
     1
178
     6
175
     1
176
     0
 93
-1056964608
 45
0.18
292
     0
297
     0
 46
0.18
 94
-1056964608
 47
1.0
 49
1.0
140
1.0
293
     1
141
0.0
294
     1
177
     0
142
1.0
295
     0
296
     0
143
0.125
271
     0
272
     9
273
     9
298
     0
  0
MLINESTYLE
  5
1003A
102
{ACAD_REACTORS
330
17
102
}
330
17
100
AcDbMlineStyle
  2
STANDARD
 70
     0
  3

 62
   256
 51
90.0
 52
90.0
 71
     2
 49
0.5
 62
   256
  6
BYLAYER
 49
-0.5
 62
   256
  6
BYLAYER
  0
ACDBPLACEHOLDER
  5
10003
102
{ACAD_REACTORS
330
10002
102
}
330
10002
  0
SCALE
  5
1003C
102
{ACAD_REACTORS
330
1003B
102
}
330
1003B
100
AcDbScale
 70
     0
300
1:1
140
1.0
141
1.0
290
     1
  0
SCALE
  5
1003D
102
{ACAD_REACTORS
330
1003B
102
}
330
1003B
100
AcDbScale
 70
     0
300
1/128" = 1'-0"
140
0.0078125
141
12.0
290
     0
  0
SCALE
  5
1003E
102
{ACAD_REACTORS
330
1003B
102
}
330
1003B
100
AcDbScale
 70
     0
300
1/64" = 1'-0"
140
0.015625
141
12.0
290
     0
  0
SCALE
  5
1003F
102
{ACAD_REACTORS
330
1003B
102
}
330
1003B
100
AcDbScale
 70
     0
300
1/32" = 1'-0"
140
0.03125
141
12.0
290
     0
  0
SCALE
  5
10040
102
{ACAD_REACTORS
330
1003B
102
}
330
1003B
100
AcDbScale
 70
     0
300
1/16" = 1'-0"
140
0.0625
141
12.0
290
     0
  0
SCALE
  5
10041
102
{ACAD_REACTORS
330
1003B
102
}
330
1003B
100
AcDbScale
 70
     0
300
3/32" = 1'-0"
140
0.09375
141
12.0
290
     0
  0
SCALE
  5
10042
102
{ACAD_REACTORS
330
1003B
102
}
330
1003B
100
AcDbScale
 70
     0
300
1/8" = 1'-0"
140
0.125
141
12.0
290
     0
  0
SCALE
  5
10043
102
{ACAD_REACTORS
330
1003B
102
}
330
1003B
100
AcDbScale
 70
     0
300
3/16" = 1'-0"
140
0.1875
141
12.0
290
     0
  0
SCALE
  5
10044
102
{ACAD_REACTORS
330
1003B
102
}
330
1003B
100
AcDbScale
 70
     0
300
1/4" = 1'-0"
140
0.25
141
12.0
290
     0
  0
SCALE
  5
10045
102
{ACAD_REACTORS
330
1003B
102
}
330
1003B
100
AcDbScale
 70
     0
300
3/8" = 1'-0"
140
0.375
141
12.0
290
     0
  0
SCALE
  5
10046
102
{ACAD_REACTORS
330
1003B
102
}
330
1003B
100
AcDbScale
 70
     0
300
1/2" = 1'-0"
140
0.5
141
12.0
290
     0
  0
SCALE
  5
10047
102
{ACAD_REACTORS
330
1003B
102
}
330
1003B
100
AcDbScale
 70
     0
300
3/4" = 1'-0"
140
0.75
141
12.0
290
     0
  0
SCALE
  5
10048
102
{ACAD_REACTORS
330
1003B
102
}
330
1003B
100
AcDbScale
 70
     0
300
1" = 1'-0"
140
1.0
141
12.0
290
     0
  0
SCALE
  5
10049
102
{ACAD_REACTORS
330
1003B
102
}
330
1003B
100
AcDbScale
 70
     0
300
1-1/2" = 1'-0"
140
1.5
141
12.0
290
     0
  0
SCALE
  5
1004A
102
{ACAD_REACTORS
330
1003B
102
}
330
1003B
100
AcDbScale
 70
     0
300
3" = 1'-0"
140
3.0
141
12.0
290
     0
  0
SCALE
  5
1004B
102
{ACAD_REACTORS
330
1003B
102
}
330
1003B
100
AcDbScale
 70
     0
300
6" = 1'-0"
140
6.0
141
12.0
290
     0
  0
SCALE
  5
1004C
102
{ACAD_REACTORS
330
1003B
102
}
330
1003B
100
AcDbScale
 70
     0
300
1'-0" = 1'-0"
140
12.0
141
12.0
290
     0
  0
ACDBSECTIONVIEWSTYLE
  5
10050
102
{ACAD_REACTORS
330
1004F
102
}
330
1004F
100
AcDbModelDocViewStyle
 70
     0
  3
Imperial24
290
     0
300
Imperial24
 90
        0
100
AcDbSectionViewStyle
 70
     0
 71
     0
 90
       78
 71
     1
340
11
 62
   256
 40
0.24
340
0
340
0
 62
   256
 40
0.24
300
I, O, Q, S, X, Z
 40
0.48
 90
        3
 40
0.18
 90
        1
 71
     2
340
0
 90
       25
 62
   256
340
0
 90
       50
 62
   256
 40
0.24
 40
0.0
 40
0.24
 71
     3
340
11
 62
   256
 40
0.24
 90
        1
 40
0.75
 90
        1
300
%<\AcVar ViewType \f "%tc1">% %<\AcVar ViewSectionStartId>%-%<\AcVar ViewSectionEndId>%\PSCALE %<\AcVar ViewScale \f "%sn">%
 71
     4
 62
   256
 62
   257
300
ANSI31
 40
1.0
 90
        0
290
     0
290
     0
 90
        6
 40
0.0
 40
1.570796326794896
 40
0.2617993877991494
 40
1.308996938995747
 40
-0.2617993877991494
 40
1.832595714594046
  0
TABLESTYLE
  5
10039
102
{ACAD_XDICTIONARY
360
10082
102
}
102
{ACAD_REACTORS
330
10038
102
}
330
10038
100
AcDbTableStyle
280
     0
  3
Standard
 70
     0
 71
     0
 40
0.06
 41
0.06
280
     0
281
     0
  7
STANDARD
140
0.18
170
     2
 62
     0
 63
     7
283
     0
 90
      512
 91
        0
  1

274
    -2
284
     1
 64
     0
275
    -2
285
     1
 65
     0
276
    -2
286
     1
 66
     0
277
    -2
287
     1
 67
     0
278
    -2
288
     1
 68
     0
279
    -2
289
     1
 69
     0
  7
STANDARD
140
0.25
170
     5
 62
     0
 63
     7
283
     0
 90
      512
 91
        0
  1

274
    -2
284
     1
 64
     0
275
    -2
285
     1
 65
     0
276
    -2
286
     1
 66
     0
277
    -2
287
     1
 67
     0
278
    -2
288
     1
 68
     0
279
    -2
289
     1
 69
     0
  7
STANDARD
140
0.18
170
     5
 62
     0
 63
     7
283
     0
 90
      512
 91
        0
  1

274
    -2
284
     1
 64
     0
275
    -2
285
     1
 65
     0
276
    -2
286
     1
 66
     0
277
    -2
287
     1
 67
     0
278
    -2
288
     1
 68
     0
279
    -2
289
     1
 69
     0
  0
VISUALSTYLE
  5
10023
102
{ACAD_REACTORS
330
1001D
102
}
330
1001D
100
AcDbVisualStyle
  2
2dWireframe
 70
     4
177
     3
291
     0
 70
    58
 90
        0
176
     1
 90
        2
176
     1
 90
        0
176
     1
 90
        0
176
     1
 40
0.6
176
     1
 40
30.0
176
     1
 62
     7
420
 16777215
176
     1
 90
        1
176
     1
 90
        4
176
     1
 62
     7
176
     1
 62
   257
176
     1
 90
        1
176
     1
 90
        1
176
     1
 40
1.0
176
     1
 90
        0
176
     1
 62
   257
176
     1
 40
1.0
176
     1
 90
        1
176
     1
 90
        6
176
     1
 90
        2
176
     1
 62
     7
176
     1
 90
        5
176
     1
 90
        0
176
     1
 90
        0
176
     1
290
     0
176
     1
 90
        1
176
     1
 40
0.0
176
     1
 90
        0
176
     1
290
     1
176
     1
290
     1
176
     1
290
     0
176
     1
290
     0
176
     1
290
     0
176
     1
290
     0
176
     1
290
     0
176
     1
290
     0
176
     1
290
     0
176
     1
 90
       50
176
     1
 40
0.0
176
     1
 40
1.0
176
     1
 90
        0
176
     1
 62
    18
420
        0
176
     1
 90
       50
176
     1
 90
        3
176
     1
 62
     5
420
      255
176
     1
290
     0
176
     1
 90
       50
176
     1
 90
       50
176
     1
 90
       50
176
     1
290
     0
176
     1
 90
       50
176
     1
 62
   256
176
     0
 40
1.0
176
     0
 90
        2
176
     1
  1
strokes_ogs.tif
176
     1
290
     0
176
     1
 40
1.0
176
     1
 40
1.0
176
     1
  0
VISUALSTYLE
  5
10022
102
{ACAD_REACTORS
330
1001D
102
}
330
1001D
100
AcDbVisualStyle
  2
Basic
 70
     7
177
     3
291
     1
 70
    58
 90
        1
176
     1
 90
        0
176
     1
 90
        1
176
     1
 90
        0
176
     1
 40
0.6
176
     1
 40
30.0
176
     1
 62
     7
420
 16777215
176
     1
 90
        0
176
     1
 90
        4
176
     1
 62
     7
176
     1
 62
   257
176
     1
 90
        1
176
     1
 90
        1
176
     1
 40
1.0
176
     1
 90
        8
176
     1
 62
     7
176
     1
 40
1.0
176
     1
 90
        1
176
     1
 90
        6
176
     1
 90
        2
176
     1
 62
     7
176
     1
 90
        5
176
     1
 90
        0
176
     1
 90
        0
176
     1
290
     0
176
     1
 90
        1
176
     1
 40
0.0
176
     1
 90
        0
176
     1
290
     0
176
     1
290
     1
176
     1
290
     1
176
     1
290
     0
176
     1
290
     0
176
     1
290
     0
176
     1
290
     0
176
     1
290
     0
176
     1
290
     0
176
     1
 90
       50
176
     1
 40
0.0
176
     1
 40
1.0
176
     1
 90
        0
176
     1
 62
    18
420
        0
176
     1
 90
       50
176
     1
 90
        3
176
     1
 62
     5
420
      255
176
     1
290
     0
176
     1
 90
       50
176
     1
 90
       50
176
     1
 90
       50
176
     1
290
     0
176
     1
 90
       50
176
     1
 62
   256
176
     0
 40
1.0
176
     0
 90
        2
176
     1
  1
strokes_ogs.tif
176
     1
290
     0
176
     1
 40
1.0
176
     1
 40
1.0
176
     1
  0
VISUALSTYLE
  5
10029
102
{ACAD_REACTORS
330
1001D
102
}
330
1001D
100
AcDbVisualStyle
  2
Brighten
 70
    12
177
     3
291
     1
 70
    58
 90
        2
176
     1
 90
        2
176
     1
 90
        0
176
     1
 90
        0
176
     1
 40
0.6
176
     1
 40
30.0
176
     1
 62
     7
420
 16777215
176
     1
 90
        1
176
     1
 90
        4
176
     1
 62
     7
176
     1
 62
   257
176
     1
 90
        1
176
     1
 90
        1
176
     1
 40
1.0
176
     1
 90
        8
176
     1
 62
     7
176
     1
 40
1.0
176
     1
 90
        1
176
     1
 90
        6
176
     1
 90
        2
176
     1
 62
     7
176
     1
 90
        5
176
     1
 90
        0
176
     1
 90
        0
176
     1
290
     0
176
     1
 90
        1
176
     1
 40
50.0
176
     1
 90
        0
176
     1
290
     0
176
     1
290
     1
176
     1
290
     1
176
     1
290
     0
176
     1
290
     0
176
     1
290
     0
176
     1
290
     0
176
     1
290
     0
176
     1
290
     0
176
     1
 90
       50
176
     1
 40
0.0
176
     1
 40
1.0
176
     1
 90
        0
176
     1
 62
    18
420
        0
176
     1
 90
       50
176
     1
 90
        3
176
     1
 62
     5
420
      255
176
     1
290
     0
176
     1
 90
       50
176
     1
 90
       50
176
     1
 90
       50
176
     1
290
     0
176
     1
 90
       50
176
     1
 62
   256
176
     0
 40
1.0
176
     0
 90
        2
176
     1
  1
strokes_ogs.tif
176
     1
290
     0
176
     1
 40
1.0
176
     1
 40
1.0
176
     1
  0
VISUALSTYLE
  5
1002D
102
{ACAD_REACTORS
330
1001D
102
}
330
1001D
100
AcDbVisualStyle
  2
ColorChange
 70
    16
177
     3
291
     1
 70
    58
 90
        2
176
     1
 90
        2
176
     1
 90
        3
176
     1
 90
        0
176
     1
 40
0.6
176
     1
 40
30.0
176
     1
 62
     8
420
  8421504
176
     1
 90
        1
176
     1
 90
        4
176
     1
 62
     7
176
     1
 62
   257
176
     1
 90
        1
176
     1
 90
        1
176
     1
 40
1.0
176
     1
 90
        8
176
     1
 62
     8
420
  8421504
176
     1
 40
1.0
176
     1
 90
        1
176
     1
 90
        6
176
     1
 90
        2
176
     1
 62
     7
176
     1
 90
        5
176
     1
 90
        0
176
     1
 90
        0
176
     1
290
     0
176
     1
 90
        1
176
     1
 40
0.0
176
     1
 90
        0
176
     1
290
     0
176
     1
290
     1
176
     1
290
     1
176
     1
290
     0
176
     1
290
     0
176
     1
290
     0
176
     1
290
     0
176
     1
290
     0
176
     1
290
     0
176
     1
 90
       50
176
     1
 40
0.0
176
     1
 40
1.0
176
     1
 90
        0
176
     1
 62
    18
420
        0
176
     1
 90
       50
176
     1
 90
        3
176
     1
 62
     5
420
      255
176
     1
290
     0
176
     1
 90
       50
176
     1
 90
       50
176
     1
 90
       50
176
     1
290
     0
176
     1
 90
       50
176
     1
 62
   256
176
     0
 40
1.0
176
     0
 90
        2
176
     1
  1
strokes_ogs.tif
176
     1
290
     0
176
     1
 40
1.0
176
     1
 40
1.0
176
     1
  0
VISUALSTYLE
  5
10026
102
{ACAD_REACTORS
330
1001D
102
}
330
1001D
100
AcDbVisualStyle
  2
Conceptual
 70
     9
177
     3
291
     0
 70
    58
 90
        3
176
     1
 90
        2
176
     1
 90
        0
176
     1
 90
        0
176
     1
 40
0.6
176
     1
 40
30.0
176
     1
 62
     7
420
 16777215
176
     1
 90
        2
176
     1
 90
        2
176
     1
 62
     7
176
     1
 62
   257
176
     1
 90
        1
176
     1
 90
        1
176
     1
 40
179.0
176
     1
 90
        8
176
     1
 62
     7
176
     1
 40
1.0
176
     1
 90
        1
176
     1
 90
        6
176
     1
 90
        2
176
     1
 62
     7
176
     1
 90
        3
176
     1
 90
        0
176
     1
 90
        0
176
     1
290
     0
176
     1
 90
        1
176
     1
 40
0.0
176
     1
 90
        0
176
     1
290
     0
176
     1
290
     1
176
     1
290
     1
176
     1
290
     0
176
     1
290
     0
176
     1
290
     0
176
     1
290
     0
176
     1
290
     0
176
     1
290
     0
176
     1
 90
       50
176
     1
 40
0.0
176
     1
 40
1.0
176
     1
 90
        0
176
     1
 62
    18
420
        0
176
     1
 90
       50
176
     1
 90
        3
176
     1
 62
     5
420
      255
176
     1
290
     0
176
     1
 90
       50
176
     1
 90
       50
176
     1
 90
       50
176
     1
290
     0
176
     1
 90
       50
176
     1
 62
   256
176
     0
 40
1.0
176
     0
 90
        2
176
     1
  1
strokes_ogs.tif
176
     1
290
     0
176
     1
 40
1.0
176
     1
 40
1.0
176
     1
  0
VISUALSTYLE
  5
10028
102
{ACAD_REACTORS
330
1001D
102
}
330
1001D
100
AcDbVisualStyle
  2
Dim
 70
    11
177
     3
291
     1
 70
    58
 90
        2
176
     1
 90
        2
176
     1
 90
        0
176
     1
 90
        0
176
     1
 40
0.6
176
     1
 40
30.0
176
     1
 62
     7
420
 16777215
176
     1
 90
        1
176
     1
 90
        4
176
     1
 62
     7
176
     1
 62
   257
176
     1
 90
        1
176
     1
 90
        1
176
     1
 40
1.0
176
     1
 90
        8
176
     1
 62
     7
176
     1
 40
1.0
176
     1
 90
        1
176
     1
 90
        6
176
     1
 90
        2
176
     1
 62
     7
176
     1
 90
        5
176
     1
 90
        0
176
     1
 90
        0
176
     1
290
     0
176
     1
 90
        1
176
     1
 40
-50.0
176
     1
 90
        0
176
     1
290
     0
176
     1
290
     1
176
     1
290
     1
176
     1
290
     0
176
     1
290
     0
176
     1
290
     0
176
     1
290
     0
176
     1
290
     0
176
     1
290
     0
176
     1
 90
       50
176
     1
 40
0.0
176
     1
 40
1.0
176
     1
 90
        0
176
     1
 62
    18
420
        0
176
     1
 90
       50
176
     1
 90
        3
176
     1
 62
     5
420
      255
176
     1
290
     0
176
     1
 90
       50
176
     1
 90
       50
176
     1
 90
       50
176
     1
290
     0
176
     1
 90
       50
176
     1
 62
   256
176
     0
 40
1.0
176
     0
 90
        2
176
     1
  1
strokes_ogs.tif
176
     1
290
     0
176
     1
 40
1.0
176
     1
 40
1.0
176
     1
  0
VISUALSTYLE
  5
10035
102
{ACAD_REACTORS
330
1001D
102
}
330
1001D
100
AcDbVisualStyle
  2
EdgeColorOff
 70
    22
177
     3
291
     1
 70
    58
 90
        2
176
     0
 90
        2
176
     0
 90
        0
176
     0
 90
        0
176
     0
 40
0.6
176
     0
 40
30.0
176
     0
 62
     7
420
 16777215
176
     0
 90
        1
176
     0
 90
        4
176
     0
 62
     7
176
     0
 62
   257
176
     0
 90
        1
176
     0
 90
        1
176
     0
 40
1.0
176
     0
 90
        8
176
     2
 62
     7
176
     0
 40
1.0
176
     0
 90
        1
176
     0
 90
        6
176
     0
 90
        2
176
     0
 62
     7
176
     0
 90
        5
176
     0
 90
        0
176
     0
 90
        0
176
     0
290
     0
176
     0
 90
        1
176
     0
 40
0.0
176
     0
 90
        0
176
     0
290
     0
176
     1
290
     1
176
     1
290
     1
176
     1
290
     0
176
     1
290
     0
176
     1
290
     0
176
     1
290
     0
176
     1
290
     0
176
     1
290
     0
176
     1
 90
       50
176
     0
 40
0.0
176
     0
 40
1.0
176
     0
 90
        0
176
     0
 62
    18
420
        0
176
     0
 90
       50
176
     0
 90
        3
176
     0
 62
     5
420
      255
176
     0
290
     0
176
     1
 90
       50
176
     0
 90
       50
176
     0
 90
       50
176
     0
290
     0
176
     1
 90
       50
176
     0
 62
   256
176
     0
 40
1.0
176
     0
 90
        2
176
     0
  1
strokes_ogs.tif
176
     0
290
     0
176
     1
 40
1.0
176
     0
 40
1.0
176
     0
  0
VISUALSTYLE
  5
1002C
102
{ACAD_REACTORS
330
1001D
102
}
330
1001D
100
AcDbVisualStyle
  2
Facepattern
 70
    15
177
     3
291
     1
 70
    58
 90
        2
176
     1
 90
        2
176
     1
 90
        0
176
     1
 90
        0
176
     1
 40
0.6
176
     1
 40
30.0
176
     1
 62
     7
420
 16777215
176
     1
 90
        1
176
     1
 90
        4
176
     1
 62
     7
176
     1
 62
   257
176
     1
 90
        1
176
     1
 90
        1
176
     1
 40
1.0
176
     1
 90
        8
176
     1
 62
     7
176
     1
 40
1.0
176
     1
 90
        1
176
     1
 90
        6
176
     1
 90
        2
176
     1
 62
     7
176
     1
 90
        5
176
     1
 90
        0
176
     1
 90
        0
176
     1
290
     0
176
     1
 90
        1
176
     1
 40
0.0
176
     1
 90
        0
176
     1
290
     0
176
     1
290
     1
176
     1
290
     1
176
     1
290
     0
176
     1
290
     0
176
     1
290
     0
176
     1
290
     0
176
     1
290
     0
176
     1
290
     0
176
     1
 90
       50
176
     1
 40
0.0
176
     1
 40
1.0
176
     1
 90
        0
176
     1
 62
    18
420
        0
176
     1
 90
       50
176
     1
 90
        3
176
     1
 62
     5
420
      255
176
     1
290
     0
176
     1
 90
       50
176
     1
 90
       50
176
     1
 90
       50
176
     1
290
     0
176
     1
 90
       50
176
     1
 62
   256
176
     0
 40
1.0
176
     0
 90
        2
176
     1
  1
strokes_ogs.tif
176
     1
290
     0
176
     1
 40
1.0
176
     1
 40
1.0
176
     1
  0
VISUALSTYLE
  5
1001E
102
{ACAD_REACTORS
330
1001D
102
}
330
1001D
100
AcDbVisualStyle
  2
Flat
 70
     0
177
     3
291
     1
 70
    58
 90
        2
176
     1
 90
        1
176
     1
 90
        1
176
     1
 90
        2
176
     1
 40
0.6
176
     1
 40
30.0
176
     1
 62
     7
420
 16777215
176
     1
 90
        0
176
     1
 90
        0
176
     1
 62
     7
176
     1
 62
   257
176
     1
 90
        1
176
     1
 90
        1
176
     1
 40
1.0
176
     1
 90
        8
176
     1
 62
     7
176
     1
 40
1.0
176
     1
 90
        1
176
     1
 90
        6
176
     1
 90
        2
176
     1
 62
     7
176
     1
 90
        5
176
     1
 90
        0
176
     1
 90
        0
176
     1
290
     0
176
     1
 90
       13
176
     1
 40
0.0
176
     1
 90
        0
176
     1
290
     0
176
     1
290
     1
176
     1
290
     1
176
     1
290
     0
176
     1
290
     0
176
     1
290
     0
176
     1
290
     0
176
     1
290
     0
176
     1
290
     0
176
     1
 90
       50
176
     1
 40
0.0
176
     1
 40
1.0
176
     1
 90
        0
176
     1
 62
    18
420
        0
176
     1
 90
       50
176
     1
 90
        3
176
     1
 62
     5
420
      255
176
     1
290
     0
176
     1
 90
       50
176
     1
 90
       50
176
     1
 90
       50
176
     1
290
     0
176
     1
 90
       50
176
     1
 62
   256
176
     0
 40
1.0
176
     0
 90
        2
176
     1
  1
strokes_ogs.tif
176
     1
290
     0
176
     1
 40
1.0
176
     1
 40
1.0
176
     1
  0
VISUALSTYLE
  5
1001F
102
{ACAD_REACTORS
330
1001D
102
}
330
1001D
100
AcDbVisualStyle
  2
FlatWithEdges
 70
     1
177
     3
291
     1
 70
    58
 90
        2
176
     1
 90
        1
176
     1
 90
        1
176
     1
 90
        2
176
     1
 40
0.6
176
     1
 40
30.0
176
     1
 62
     7
420
 16777215
176
     1
 90
        1
176
     1
 90
        0
176
     1
 62
     7
176
     1
 62
   257
176
     1
 90
        1
176
     1
 90
        1
176
     1
 40
1.0
176
     1
 90
        0
176
     1
 62
   257
176
     1
 40
1.0
176
     1
 90
        1
176
     1
 90
        6
176
     1
 90
        2
176
     1
 62
     7
176
     1
 90
        5
176
     1
 90
        0
176
     1
 90
        0
176
     1
290
     0
176
     1
 90
       13
176
     1
 40
0.0
176
     1
 90
        0
176
     1
290
     0
176
     1
290
     1
176
     1
290
     1
176
     1
290
     0
176
     1
290
     0
176
     1
290
     0
176
     1
290
     0
176
     1
290
     0
176
     1
290
     0
176
     1
 90
       50
176
     1
 40
0.0
176
     1
 40
1.0
176
     1
 90
        0
176
     1
 62
    18
420
        0
176
     1
 90
       50
176
     1
 90
        3
176
     1
 62
     5
420
      255
176
     1
290
     0
176
     1
 90
       50
176
     1
 90
       50
176
     1
 90
       50
176
     1
290
     0
176
     1
 90
       50
176
     1
 62
   256
176
     0
 40
1.0
176
     0
 90
        2
176
     1
  1
strokes_ogs.tif
176
     1
290
     0
176
     1
 40
1.0
176
     1
 40
1.0
176
     1
  0
VISUALSTYLE
  5
10020
102
{ACAD_REACTORS
330
1001D
102
}
330
1001D
100
AcDbVisualStyle
  2
Gouraud
 70
     2
177
     3
291
     1
 70
    58
 90
        2
176
     1
 90
        2
176
     1
 90
        1
176
     1
 90
        2
176
     1
 40
0.6
176
     1
 40
30.0
176
     1
 62
     7
420
 16777215
176
     1
 90
        0
176
     1
 90
        0
176
     1
 62
     7
176
     1
 62
   257
176
     1
 90
        1
176
     1
 90
        1
176
     1
 40
1.0
176
     1
 90
        0
176
     1
 62
     7
176
     1
 40
1.0
176
     1
 90
        1
176
     1
 90
        6
176
     1
 90
        2
176
     1
 62
     7
176
     1
 90
        5
176
     1
 90
        0
176
     1
 90
        0
176
     1
290
     0
176
     1
 90
       13
176
     1
 40
0.0
176
     1
 90
        0
176
     1
290
     0
176
     1
290
     1
176
     1
290
     1
176
     1
290
     0
176
     1
290
     0
176
     1
290
     0
176
     1
290
     0
176
     1
290
     0
176
     1
290
     0
176
     1
 90
       50
176
     1
 40
0.0
176
     1
 40
1.0
176
     1
 90
        0
176
     1
 62
    18
420
        0
176
     1
 90
       50
176
     1
 90
        3
176
     1
 62
     5
420
      255
176
     1
290
     0
176
     1
 90
       50
176
     1
 90
       50
176
     1
 90
       50
176
     1
290
     0
176
     1
 90
       50
176
     1
 62
   256
176
     0
 40
1.0
176
     0
 90
        2
176
     1
  1
strokes_ogs.tif
176
     1
290
     0
176
     1
 40
1.0
176
     1
 40
1.0
176
     1
  0
VISUALSTYLE
  5
10021
102
{ACAD_REACTORS
330
1001D
102
}
330
1001D
100
AcDbVisualStyle
  2
GouraudWithEdges
 70
     3
177
     3
291
     1
 70
    58
 90
        2
176
     1
 90
        2
176
     1
 90
        1
176
     1
 90
        2
176
     1
 40
0.6
176
     1
 40
30.0
176
     1
 62
     7
420
 16777215
176
     1
 90
        1
176
     1
 90
        0
176
     1
 62
     7
176
     1
 62
   257
176
     1
 90
        1
176
     1
 90
        1
176
     1
 40
1.0
176
     1
 90
        0
176
     1
 62
   257
176
     1
 40
1.0
176
     1
 90
        1
176
     1
 90
        6
176
     1
 90
        2
176
     1
 62
     7
176
     1
 90
        5
176
     1
 90
        0
176
     1
 90
        0
176
     1
290
     0
176
     1
 90
       13
176
     1
 40
0.0
176
     1
 90
        0
176
     1
290
     0
176
     1
290
     1
176
     1
290
     1
176
     1
290
     0
176
     1
290
     0
176
     1
290
     0
176
     1
290
     0
176
     1
290
     0
176
     1
290
     0
176
     1
 90
       50
176
     1
 40
0.0
176
     1
 40
1.0
176
     1
 90
        0
176
     1
 62
    18
420
        0
176
     1
 90
       50
176
     1
 90
        3
176
     1
 62
     5
420
      255
176
     1
290
     0
176
     1
 90
       50
176
     1
 90
       50
176
     1
 90
       50
176
     1
290
     0
176
     1
 90
       50
176
     1
 62
   256
176
     0
 40
1.0
176
     0
 90
        2
176
     1
  1
strokes_ogs.tif
176
     1
290
     0
176
     1
 40
1.0
176
     1
 40
1.0
176
     1
  0
VISUALSTYLE
  5
10025
102
{ACAD_REACTORS
330
1001D
102
}
330
1001D
100
AcDbVisualStyle
  2
Hidden
 70
     6
177
     3
291
     0
 70
    58
 90
        1
176
     1
 90
        2
176
     1
 90
        2
176
     1
 90
        0
176
     1
 40
0.6
176
     1
 40
30.0
176
     1
 62
     7
420
 16777215
176
     1
 90
        2
176
     1
 90
        2
176
     1
 62
     7
176
     1
 62
   257
176
     1
 90
        2
176
     1
 90
        1
176
     1
 40
40.0
176
     1
 90
        0
176
     1
 62
   257
176
     1
 40
1.0
176
     1
 90
        1
176
     1
 90
        6
176
     1
 90
        2
176
     1
 62
     7
176
     1
 90
        3
176
     1
 90
        0
176
     1
 90
        0
176
     1
290
     0
176
     1
 90
        1
176
     1
 40
0.0
176
     1
 90
        0
176
     1
290
     0
176
     1
290
     1
176
     1
290
     1
176
     1
290
     0
176
     1
290
     0
176
     1
290
     0
176
     1
290
     0
176
     1
290
     0
176
     1
290
     0
176
     1
 90
       50
176
     1
 40
0.0
176
     1
 40
1.0
176
     1
 90
        0
176
     1
 62
    18
420
        0
176
     1
 90
       50
176
     1
 90
        3
176
     1
 62
     5
420
      255
176
     1
290
     0
176
     1
 90
       50
176
     1
 90
       50
176
     1
 90
       50
176
     1
290
     0
176
     1
 90
       50
176
     1
 62
   256
176
     0
 40
1.0
176
     0
 90
        2
176
     1
  1
strokes_ogs.tif
176
     1
290
     0
176
     1
 40
1.0
176
     1
 40
1.0
176
     1
  0
VISUALSTYLE
  5
10033
102
{ACAD_REACTORS
330
1001D
102
}
330
1001D
100
AcDbVisualStyle
  2
JitterOff
 70
    20
177
     3
291
     1
 70
    58
 90
        2
176
     0
 90
        2
176
     0
 90
        0
176
     0
 90
        0
176
     0
 40
0.6
176
     0
 40
30.0
176
     0
 62
     7
420
 16777215
176
     0
 90
        1
176
     0
 90
        4
176
     0
 62
     7
176
     0
 62
   257
176
     0
 90
        1
176
     0
 90
        1
176
     0
 40
1.0
176
     0
 90
       10
176
     2
 62
     7
176
     0
 40
1.0
176
     0
 90
        1
176
     0
 90
        6
176
     0
 90
        2
176
     0
 62
     7
176
     0
 90
        5
176
     0
 90
        0
176
     0
 90
        0
176
     0
290
     0
176
     0
 90
        1
176
     0
 40
0.0
176
     0
 90
        0
176
     0
290
     0
176
     1
290
     1
176
     1
290
     1
176
     1
290
     0
176
     1
290
     0
176
     1
290
     0
176
     1
290
     0
176
     1
290
     0
176
     1
290
     0
176
     1
 90
       50
176
     0
 40
0.0
176
     0
 40
1.0
176
     0
 90
        0
176
     0
 62
    18
420
        0
176
     0
 90
       50
176
     0
 90
        3
176
     0
 62
     5
420
      255
176
     0
290
     0
176
     1
 90
       50
176
     0
 90
       50
176
     0
 90
       50
176
     0
290
     0
176
     1
 90
       50
176
     0
 62
   256
176
     0
 40
1.0
176
     0
 90
        2
176
     0
  1
strokes_ogs.tif
176
     0
290
     0
176
     1
 40
1.0
176
     0
 40
1.0
176
     0
  0
VISUALSTYLE
  5
1002B
102
{ACAD_REACTORS
330
1001D
102
}
330
1001D
100
AcDbVisualStyle
  2
Linepattern
 70
    14
177
     3
291
     1
 70
    58
 90
        2
176
     1
 90
        2
176
     1
 90
        0
176
     1
 90
        0
176
     1
 40
0.6
176
     1
 40
30.0
176
     1
 62
     7
420
 16777215
176
     1
 90
        1
176
     1
 90
        4
176
     1
 62
     7
176
     1
 62
   257
176
     1
 90
        7
176
     1
 90
        7
176
     1
 40
1.0
176
     1
 90
        8
176
     1
 62
     7
176
     1
 40
1.0
176
     1
 90
        1
176
     1
 90
        6
176
     1
 90
        2
176
     1
 62
     7
176
     1
 90
        5
176
     1
 90
        0
176
     1
 90
        0
176
     1
290
     0
176
     1
 90
        1
176
     1
 40
0.0
176
     1
 90
        0
176
     1
290
     0
176
     1
290
     1
176
     1
290
     1
176
     1
290
     0
176
     1
290
     0
176
     1
290
     0
176
     1
290
     0
176
     1
290
     0
176
     1
290
     0
176
     1
 90
       50
176
     1
 40
0.0
176
     1
 40
1.0
176
     1
 90
        0
176
     1
 62
    18
420
        0
176
     1
 90
       50
176
     1
 90
        3
176
     1
 62
     5
420
      255
176
     1
290
     0
176
     1
 90
       50
176
     1
 90
       50
176
     1
 90
       50
176
     1
290
     0
176
     1
 90
       50
176
     1
 62
   256
176
     0
 40
1.0
176
     0
 90
        2
176
     1
  1
strokes_ogs.tif
176
     1
290
     0
176
     1
 40
1.0
176
     1
 40
1.0
176
     1
  0
VISUALSTYLE
  5
10034
102
{ACAD_REACTORS
330
1001D
102
}
330
1001D
100
AcDbVisualStyle
  2
OverhangOff
 70
    21
177
     3
291
     1
 70
    58
 90
        2
176
     0
 90
        2
176
     0
 90
        0
176
     0
 90
        0
176
     0
 40
0.6
176
     0
 40
30.0
176
     0
 62
     7
420
 16777215
176
     0
 90
        1
176
     0
 90
        4
176
     0
 62
     7
176
     0
 62
   257
176
     0
 90
        1
176
     0
 90
        1
176
     0
 40
1.0
176
     0
 90
        9
176
     2
 62
     7
176
     0
 40
1.0
176
     0
 90
        1
176
     0
 90
        6
176
     0
 90
        2
176
     0
 62
     7
176
     0
 90
        5
176
     0
 90
        0
176
     0
 90
        0
176
     0
290
     0
176
     0
 90
        1
176
     0
 40
0.0
176
     0
 90
        0
176
     0
290
     0
176
     1
290
     1
176
     1
290
     1
176
     1
290
     0
176
     1
290
     0
176
     1
290
     0
176
     1
290
     0
176
     1
290
     0
176
     1
290
     0
176
     1
 90
       50
176
     0
 40
0.0
176
     0
 40
1.0
176
     0
 90
        0
176
     0
 62
    18
420
        0
176
     0
 90
       50
176
     0
 90
        3
176
     0
 62
     5
420
      255
176
     0
290
     0
176
     1
 90
       50
176
     0
 90
       50
176
     0
 90
       50
176
     0
290
     0
176
     1
 90
       50
176
     0
 62
   256
176
     0
 40
1.0
176
     0
 90
        2
176
     0
  1
strokes_ogs.tif
176
     0
290
     0
176
     1
 40
1.0
176
     0
 40
1.0
176
     0
  0
VISUALSTYLE
  5
10027
102
{ACAD_REACTORS
330
1001D
102
}
330
1001D
100
AcDbVisualStyle
  2
Realistic
 70
     8
177
     3
291
     0
 70
    58
 90
        2
176
     1
 90
        3
176
     1
 90
        0
176
     1
 90
        2
176
     1
 40
0.6
176
     1
 40
30.0
176
     1
 62
     7
420
 16777215
176
     1
 90
        0
176
     1
 90
        0
176
     1
 62
     7
176
     1
 62
   257
176
     1
 90
        1
176
     1
 90
        1
176
     1
 40
1.0
176
     1
 90
        8
176
     1
 62
   257
176
     1
 40
1.0
176
     1
 90
        1
176
     1
 90
        6
176
     1
 90
        2
176
     1
 62
     7
176
     1
 90
        3
176
     1
 90
        0
176
     1
 90
        0
176
     1
290
     0
176
     1
 90
       13
176
     1
 40
0.0
176
     1
 90
        0
176
     1
290
     0
176
     1
290
     1
176
     1
290
     1
176
     1
290
     0
176
     1
290
     0
176
     1
290
     0
176
     1
290
     0
176
     1
290
     0
176
     1
290
     0
176
     1
 90
       50
176
     1
 40
0.0
176
     1
 40
1.0
176
     1
 90
        0
176
     1
 62
    18
420
        0
176
     1
 90
       50
176
     1
 90
        3
176
     1
 62
     5
420
      255
176
     1
290
     0
176
     1
 90
       50
176
     1
 90
       50
176
     1
 90
       50
176
     1
290
     0
176
     1
 90
       50
176
     1
 62
   256
176
     0
 40
1.0
176
     0
 90
        2
176
     1
  1
strokes_ogs.tif
176
     1
290
     0
176
     1
 40
1.0
176
     1
 40
1.0
176
     1
  0
VISUALSTYLE
  5
10032
102
{ACAD_REACTORS
330
1001D
102
}
330
1001D
100
AcDbVisualStyle
  2
Shaded
 70
    27
177
     3
291
     0
 70
    58
 90
        2
176
     1
 90
        2
176
     1
 90
        1
176
     1
 90
        2
176
     1
 40
0.6
176
     1
 40
30.0
176
     1
 62
     7
420
 16777215
176
     1
 90
        0
176
     1
 90
        4
176
     1
 62
     7
176
     1
 62
   257
176
     1
 90
        1
176
     1
 90
        1
176
     1
 40
1.0
176
     1
 90
        8
176
     1
 62
   257
176
     1
 40
1.0
176
     1
 90
        1
176
     1
 90
        6
176
     1
 90
        2
176
     1
 62
     8
420
  7895160
176
     1
 90
        3
176
     1
 90
        0
176
     1
 90
        0
176
     1
290
     0
176
     1
 90
        5
176
     1
 40
0.0
176
     1
 90
        0
176
     1
290
     0
176
     1
290
     1
176
     1
290
     1
176
     1
290
     0
176
     1
290
     0
176
     1
290
     0
176
     1
290
     0
176
     1
290
     0
176
     1
290
     0
176
     1
 90
       50
176
     1
 40
0.0
176
     1
 40
1.0
176
     1
 90
        0
176
     1
 62
    18
420
        0
176
     1
 90
       50
176
     1
 90
        3
176
     1
 62
     5
420
      255
176
     1
290
     0
176
     1
 90
       50
176
     1
 90
       50
176
     1
 90
       50
176
     1
290
     0
176
     1
 90
       50
176
     1
 62
   256
176
     0
 40
1.0
176
     0
 90
        2
176
     1
  1
strokes_ogs.tif
176
     1
290
     0
176
     1
 40
1.0
176
     1
 40
1.0
176
     1
  0
VISUALSTYLE
  5
10031
102
{ACAD_REACTORS
330
1001D
102
}
330
1001D
100
AcDbVisualStyle
  2
Shaded with edges
 70
    26
177
     3
291
     0
 70
    58
 90
        2
176
     1
 90
        2
176
     1
 90
        1
176
     1
 90
        2
176
     1
 40
0.6
176
     1
 40
30.0
176
     1
 62
     7
420
 16777215
176
     1
 90
        1
176
     1
 90
        2
176
     1
 62
     7
176
     1
 62
   257
176
     1
 90
        2
176
     1
 90
        1
176
     1
 40
1.0
176
     1
 90
        8
176
     1
 62
   257
176
     1
 40
1.0
176
     1
 90
        1
176
     1
 90
        6
176
     1
 90
        2
176
     1
 62
     7
176
     1
 90
        3
176
     1
 90
        0
176
     1
 90
        0
176
     1
290
     0
176
     1
 90
        5
176
     1
 40
0.0
176
     1
 90
        0
176
     1
290
     0
176
     1
290
     1
176
     1
290
     1
176
     1
290
     0
176
     1
290
     0
176
     1
290
     0
176
     1
290
     0
176
     1
290
     0
176
     1
290
     0
176
     1
 90
       50
176
     1
 40
0.0
176
     1
 40
1.0
176
     1
 90
        0
176
     1
 62
    18
420
        0
176
     1
 90
       50
176
     1
 90
        3
176
     1
 62
     5
420
      255
176
     1
290
     0
176
     1
 90
       50
176
     1
 90
       50
176
     1
 90
       50
176
     1
290
     0
176
     1
 90
       50
176
     1
 62
   256
176
     0
 40
1.0
176
     0
 90
        2
176
     1
  1
strokes_ogs.tif
176
     1
290
     0
176
     1
 40
1.0
176
     1
 40
1.0
176
     1
  0
VISUALSTYLE
  5
1002E
102
{ACAD_REACTORS
330
1001D
102
}
330
1001D
100
AcDbVisualStyle
  2
Shades of Gray
 70
    23
177
     3
291
     0
 70
    58
 90
        2
176
     1
 90
        2
176
     1
 90
        3
176
     1
 90
        0
176
     1
 40
0.6
176
     1
 40
30.0
176
     1
 62
     7
420
 16777215
176
     1
 90
        2
176
     1
 90
        2
176
     1
 62
     7
176
     1
 62
     7
176
     1
 90
        1
176
     1
 90
        1
176
     1
 40
40.0
176
     1
 90
        8
176
     1
 62
     7
176
     1
 40
1.0
176
     1
 90
        1
176
     1
 90
        6
176
     1
 90
        2
176
     1
 62
     7
176
     1
 90
        3
176
     1
 90
        0
176
     1
 90
        0
176
     1
290
     0
176
     1
 90
        1
176
     1
 40
0.0
176
     1
 90
        0
176
     1
290
     0
176
     1
290
     1
176
     1
290
     1
176
     1
290
     0
176
     1
290
     0
176
     1
290
     0
176
     1
290
     0
176
     1
290
     0
176
     1
290
     0
176
     1
 90
       50
176
     1
 40
0.0
176
     1
 40
1.0
176
     1
 90
        0
176
     1
 62
    18
420
        0
176
     1
 90
       50
176
     1
 90
        3
176
     1
 62
     5
420
      255
176
     1
290
     0
176
     1
 90
       50
176
     1
 90
       50
176
     1
 90
       50
176
     1
290
     0
176
     1
 90
       50
176
     1
 62
   256
176
     0
 40
1.0
176
     0
 90
        2
176
     1
  1
strokes_ogs.tif
176
     1
290
     0
176
     1
 40
1.0
176
     1
 40
1.0
176
     1
  0
VISUALSTYLE
  5
1002F
102
{ACAD_REACTORS
330
1001D
102
}
330
1001D
100
AcDbVisualStyle
  2
Sketchy
 70
    24
177
     3
291
     0
 70
    58
 90
        1
176
     1
 90
        2
176
     1
 90
        2
176
     1
 90
        0
176
     1
 40
0.6
176
     1
 40
30.0
176
     1
 62
     7
420
 16777215
176
     1
 90
        2
176
     1
 90
        2
176
     1
 62
     7
176
     1
 62
     7
176
     1
 90
        1
176
     1
 90
        1
176
     1
 40
40.0
176
     1
 90
       11
176
     1
 62
     7
176
     1
 40
1.0
176
     1
 90
        1
176
     1
 90
        6
176
     1
 90
        2
176
     1
 62
     7
176
     1
 90
        6
176
     1
 90
        0
176
     1
 90
        0
176
     1
290
     0
176
     1
 90
        1
176
     1
 40
0.0
176
     1
 90
        0
176
     1
290
     0
176
     1
290
     1
176
     1
290
     1
176
     1
290
     0
176
     1
290
     0
176
     1
290
     0
176
     1
290
     0
176
     1
290
     0
176
     1
290
     0
176
     1
 90
       50
176
     1
 40
0.0
176
     1
 40
1.0
176
     1
 90
        0
176
     1
 62
    18
420
        0
176
     1
 90
       50
176
     1
 90
        3
176
     1
 62
     5
420
      255
176
     1
290
     0
176
     1
 90
       50
176
     1
 90
       50
176
     1
 90
       50
176
     1
290
     0
176
     1
 90
       50
176
     1
 62
   256
176
     0
 40
1.0
176
     0
 90
        2
176
     1
  1
strokes_ogs.tif
176
     1
290
     0
176
     1
 40
1.0
176
     1
 40
1.0
176
     1
  0
VISUALSTYLE
  5
1002A
102
{ACAD_REACTORS
330
1001D
102
}
330
1001D
100
AcDbVisualStyle
  2
Thicken
 70
    13
177
     3
291
     1
 70
    58
 90
        2
176
     1
 90
        2
176
     1
 90
        0
176
     1
 90
        0
176
     1
 40
0.6
176
     1
 40
30.0
176
     1
 62
     7
420
 16777215
176
     1
 90
        1
176
     1
 90
        4
176
     1
 62
     7
176
     1
 62
   257
176
     1
 90
        1
176
     1
 90
        1
176
     1
 40
1.0
176
     1
 90
       12
176
     1
 62
     7
176
     1
 40
1.0
176
     1
 90
        1
176
     1
 90
        6
176
     1
 90
        2
176
     1
 62
     7
176
     1
 90
        5
176
     1
 90
        0
176
     1
 90
        0
176
     1
290
     0
176
     1
 90
        1
176
     1
 40
0.0
176
     1
 90
        0
176
     1
290
     0
176
     1
290
     1
176
     1
290
     1
176
     1
290
     0
176
     1
290
     0
176
     1
290
     0
176
     1
290
     0
176
     1
290
     0
176
     1
290
     0
176
     1
 90
       50
176
     1
 40
0.0
176
     1
 40
1.0
176
     1
 90
        0
176
     1
 62
    18
420
        0
176
     1
 90
       50
176
     1
 90
        3
176
     1
 62
     5
420
      255
176
     1
290
     0
176
     1
 90
       50
176
     1
 90
       50
176
     1
 90
       50
176
     1
290
     0
176
     1
 90
       50
176
     1
 62
   256
176
     0
 40
1.0
176
     0
 90
        2
176
     1
  1
strokes_ogs.tif
176
     1
290
     0
176
     1
 40
1.0
176
     1
 40
1.0
176
     1
  0
VISUALSTYLE
  5
10024
102
{ACAD_REACTORS
330
1001D
102
}
330
1001D
100
AcDbVisualStyle
  2
Wireframe
 70
     5
177
     3
291
     0
 70
    58
 90
        0
176
     1
 90
        2
176
     1
 90
        0
176
     1
 90
        0
176
     1
 40
0.6
176
     1
 40
30.0
176
     1
 62
     7
420
 16777215
176
     1
 90
        1
176
     1
 90
        4
176
     1
 62
     7
176
     1
 62
   257
176
     1
 90
        1
176
     1
 90
        1
176
     1
 40
1.0
176
     1
 90
        0
176
     1
 62
   257
176
     1
 40
1.0
176
     1
 90
        1
176
     1
 90
        6
176
     1
 90
        2
176
     1
 62
     7
176
     1
 90
        3
176
     1
 90
        0
176
     1
 90
        0
176
     1
290
     0
176
     1
 90
        1
176
     1
 40
0.0
176
     1
 90
        0
176
     1
290
     0
176
     1
290
     1
176
     1
290
     1
176
     1
290
     0
176
     1
290
     0
176
     1
290
     0
176
     1
290
     0
176
     1
290
     0
176
     1
290
     0
176
     1
 90
       50
176
     1
 40
0.0
176
     1
 40
1.0
176
     1
 90
        0
176
     1
 62
    18
420
        0
176
     1
 90
       50
176
     1
 90
        3
176
     1
 62
     5
420
      255
176
     1
290
     0
176
     1
 90
       50
176
     1
 90
       50
176
     1
 90
       50
176
     1
290
     0
176
     1
 90
       50
176
     1
 62
   256
176
     0
 40
1.0
176
     0
 90
        2
176
     1
  1
strokes_ogs.tif
176
     1
290
     0
176
     1
 40
1.0
176
     1
 40
1.0
176
     1
  0
VISUALSTYLE
  5
10030
102
{ACAD_REACTORS
330
1001D
102
}
330
1001D
100
AcDbVisualStyle
  2
X-Ray
 70
    25
177
     3
291
     0
 70
    58
 90
        2
176
     1
 90
        2
176
     1
 90
        1
176
     1
 90
        1
176
     1
 40
0.5
176
     1
 40
30.0
176
     1
 62
     7
420
 16777215
176
     1
 90
        1
176
     1
 90
        0
176
     1
 62
     7
176
     1
 62
   257
176
     1
 90
        1
176
     1
 90
        1
176
     1
 40
1.0
176
     1
 90
        8
176
     1
 62
     7
176
     1
 40
1.0
176
     1
 90
        1
176
     1
 90
        6
176
     1
 90
        2
176
     1
 62
     7
176
     1
 90
        3
176
     1
 90
        0
176
     1
 90
        0
176
     1
290
     0
176
     1
 90
       13
176
     1
 40
0.0
176
     1
 90
        0
176
     1
290
     0
176
     1
290
     1
176
     1
290
     1
176
     1
290
     0
176
     1
290
     0
176
     1
290
     0
176
     1
290
     0
176
     1
290
     0
176
     1
290
     0
176
     1
 90
       50
176
     1
 40
0.0
176
     1
 40
1.0
176
     1
 90
        0
176
     1
 62
    18
420
        0
176
     1
 90
       50
176
     1
 90
        3
176
     1
 62
     5
420
      255
176
     1
290
     0
176
     1
 90
       50
176
     1
 90
       50
176
     1
 90
       50
176
     1
290
     0
176
     1
 90
       50
176
     1
 62
   256
176
     0
 40
1.0
176
     0
 90
        2
176
     1
  1
strokes_ogs.tif
176
     1
290
     0
176
     1
 40
1.0
176
     1
 40
1.0
176
     1
  0
DICTIONARYVAR
  5
1007E
102
{ACAD_REACTORS
330
10078
102
}
330
10078
100
DictionaryVariables
280
     0
  1
1:1
  0
DICTIONARYVAR
  5
1007A
102
{ACAD_REACTORS
330
10078
102
}
330
10078
100
DictionaryVariables
280
     0
  1
STANDARD
  0
DICTIONARYVAR
  5
10079
102
{ACAD_REACTORS
330
10078
102
}
330
10078
100
DictionaryVariables
280
     0
  1
STANDARD
  0
DICTIONARYVAR
  5
1007B
102
{ACAD_REACTORS
330
10078
102
}
330
10078
100
DictionaryVariables
280
     0
  1
Imperial24
  0
DICTIONARYVAR
  5
1007C
102
{ACAD_REACTORS
330
10078
102
}
330
10078
100
DictionaryVariables
280
     0
  1
Imperial24
  0
DICTIONARYVAR
  5
10080
102
{ACAD_REACTORS
330
10078
102
}
330
10078
100
DictionaryVariables
280
     0
  1
1
  0
DICTIONARYVAR
  5
10081
102
{ACAD_REACTORS
330
10078
102
}
330
10078
100
DictionaryVariables
280
     0
  1
15
  0
DICTIONARYVAR
  5
1007F
102
{ACAD_REACTORS
330
10078
102
}
330
10078
100
DictionaryVariables
280
     0
  1
0
  0
DICTIONARYVAR
  5
1007D
102
{ACAD_REACTORS
330
10078
102
}
330
10078
100
DictionaryVariables
280
     0
  1
0
  0
DICTIONARY
  5
1000E
330
1000D
100
AcDbDictionary
280
     1
281
     1
  3
BUMPTILE
360
10010
  3
DIFFUSETILE
360
1000F
  3
OPACITYTILE
360
10013
  3
REFLECTIONTILE
360
10012
  3
REFRACTIONTILE
360
10014
  3
SPECULARTILE
360
10011
  0
DICTIONARY
  5
10006
330
10005
100
AcDbDictionary
280
     1
281
     1
  3
BUMPTILE
360
10008
  3
DIFFUSETILE
360
10007
  3
OPACITYTILE
360
1000B
  3
REFLECTIONTILE
360
1000A
  3
REFRACTIONTILE
360
1000C
  3
SPECULARTILE
360
10009
  0
DICTIONARY
  5
10016
330
10015
100
AcDbDictionary
280
     1
281
     1
  3
BUMPTILE
360
10018
  3
DIFFUSETILE
360
10017
  3
OPACITYTILE
360
1001B
  3
REFLECTIONTILE
360
1001A
  3
REFRACTIONTILE
360
1001C
  3
SPECULARTILE
360
10019
  0
DICTIONARY
  5
10082
330
10039
100
AcDbDictionary
280
     1
281
     1
  3
ACAD_ROUNDTRIP_2008_TABLESTYLE_CELLSTYLEMAP
360
10083
  0
XRECORD
  5
10010
102
{ACAD_REACTORS
330
1000E
102
}
330
1000E
100
AcDbXrecord
280
     1
270
     1
271
     1
  0
XRECORD
  5
1000F
102
{ACAD_REACTORS
330
1000E
102
}
330
1000E
100
AcDbXrecord
280
     1
270
     1
271
     1
  0
XRECORD
  5
10013
102
{ACAD_REACTORS
330
1000E
102
}
330
1000E
100
AcDbXrecord
280
     1
270
     1
271
     1
  0
XRECORD
  5
10012
102
{ACAD_REACTORS
330
1000E
102
}
330
1000E
100
AcDbXrecord
280
     1
270
     1
271
     1
  0
XRECORD
  5
10014
102
{ACAD_REACTORS
330
1000E
102
}
330
1000E
100
AcDbXrecord
280
     1
270
     1
271
     1
  0
XRECORD
  5
10011
102
{ACAD_REACTORS
330
1000E
102
}
330
1000E
100
AcDbXrecord
280
     1
270
     1
271
     1
  0
XRECORD
  5
10008
102
{ACAD_REACTORS
330
10006
102
}
330
10006
100
AcDbXrecord
280
     1
270
     1
271
     1
  0
XRECORD
  5
10007
102
{ACAD_REACTORS
330
10006
102
}
330
10006
100
AcDbXrecord
280
     1
270
     1
271
     1
  0
XRECORD
  5
1000B
102
{ACAD_REACTORS
330
10006
102
}
330
10006
100
AcDbXrecord
280
     1
270
     1
271
     1
  0
XRECORD
  5
1000A
102
{ACAD_REACTORS
330
10006
102
}
330
10006
100
AcDbXrecord
280
     1
270
     1
271
     1
  0
XRECORD
  5
1000C
102
{ACAD_REACTORS
330
10006
102
}
330
10006
100
AcDbXrecord
280
     1
270
     1
271
     1
  0
XRECORD
  5
10009
102
{ACAD_REACTORS
330
10006
102
}
330
10006
100
AcDbXrecord
280
     1
270
     1
271
     1
  0
XRECORD
  5
10018
102
{ACAD_REACTORS
330
10016
102
}
330
10016
100
AcDbXrecord
280
     1
270
     1
271
     1
  0
XRECORD
  5
10017
102
{ACAD_REACTORS
330
10016
102
}
330
10016
100
AcDbXrecord
280
     1
270
     1
271
     1
  0
XRECORD
  5
1001B
102
{ACAD_REACTORS
330
10016
102
}
330
10016
100
AcDbXrecord
280
     1
270
     1
271
     1
  0
XRECORD
  5
1001A
102
{ACAD_REACTORS
330
10016
102
}
330
10016
100
AcDbXrecord
280
     1
270
     1
271
     1
  0
XRECORD
  5
1001C
102
{ACAD_REACTORS
330
10016
102
}
330
10016
100
AcDbXrecord
280
     1
270
     1
271
     1
  0
XRECORD
  5
10019
102
{ACAD_REACTORS
330
10016
102
}
330
10016
100
AcDbXrecord
280
     1
270
     1
271
     1
  0
CELLSTYLEMAP
  5
10083
102
{ACAD_REACTORS
330
10082
102
}
330
10082
100
AcDbCellStyleMap
 90
        3
300
CELLSTYLE
  1
TABLEFORMAT_BEGIN
 90
        5
170
     1
 91
        0
 92
    32768
 62
   257
 93
        1
300
CONTENTFORMAT
  1
CONTENTFORMAT_BEGIN
 90
        0
 91
        0
 92
      512
 93
        0
300

 40
0.0
140
1.0
 94
        5
 62
     0
340
11
144
0.25
309
CONTENTFORMAT_END
171
     0
 94
        0
309
TABLEFORMAT_END
  1
CELLSTYLE_BEGIN
 90
        1
 91
        1
300
_TITLE
309
CELLSTYLE_END
300
CELLSTYLE
  1
TABLEFORMAT_BEGIN
 90
        5
170
     1
 91
        0
 92
        0
 62
   257
 93
        1
300
CONTENTFORMAT
  1
CONTENTFORMAT_BEGIN
 90
        0
 91
        0
 92
      512
 93
        0
300

 40
0.0
140
1.0
 94
        5
 62
     0
340
11
144
0.18
309
CONTENTFORMAT_END
171
     0
 94
        0
309
TABLEFORMAT_END
  1
CELLSTYLE_BEGIN
 90
        2
 91
        1
300
_HEADER
309
CELLSTYLE_END
300
CELLSTYLE
  1
TABLEFORMAT_BEGIN
 90
        5
170
     1
 91
        0
 92
        0
 62
   257
 93
        1
300
CONTENTFORMAT
  1
CONTENTFORMAT_BEGIN
 90
        0
 91
        0
 92
      512
 93
        0
300

 40
0.0
140
1.0
 94
        2
 62
     0
340
11
144
0.18
309
CONTENTFORMAT_END
171
     0
 94
        0
309
TABLEFORMAT_END
  1
CELLSTYLE_BEGIN
 90
        3
 91
        2
300
_DATA
309
CELLSTYLE_END
  0
ENDSEC
  0
SECTION
  2
ACDSDATA
 70
     2
 71
     8
  0
ACDSSCHEMA
 90
        0
  1
AcDb_Thumbnail_Schema
  2
AcDbDs::ID
280
    10
 91
        8
  2
Thumbnail_Data
280
    15
 91
        0
101
ACDSRECORD
 95
        0
 90
        1
  2
AcDbDs::TreatedAsObjectData
280
     1
291
     1
101
ACDSRECORD
 95
        0
 90
        2
  2
AcDbDs::Legacy
280
     1
291
     1
101
ACDSRECORD
  1
AcDbDs::ID
 90
        3
  2
AcDs:Indexable
280
     1
291
     1
101
ACDSRECORD
  1
AcDbDs::ID
 90
        4
  2
AcDbDs::HandleAttribute
280
     7
282
     1
  0
ACDSSCHEMA
 90
        1
  1
AcDbDs::TreatedAsObjectDataSchema
  2
AcDbDs::TreatedAsObjectData
280
     1
 91
        0
  0
ACDSSCHEMA
 90
        2
  1
AcDbDs::LegacySchema
  2
AcDbDs::Legacy
280
     1
 91
        0
  0
ACDSSCHEMA
 90
        3
  1
AcDbDs::IndexedPropertySchema
  2
AcDs:Indexable
280
     1
 91
        0
  0
ACDSSCHEMA
 90
        4
  1
AcDbDs::HandleAttributeSchema
  2
AcDbDs::HandleAttribute
280
     7
 91
        1
284
     1
  0
ACDSRECORD
 90
        0
  2
AcDbDs::ID
280
    10
320
10055
  2
Thumbnail_Data
280
    15
 94
     1134
310
89504E470D0A1A0A0000000D4948445200000100000000700803000000C6F95E2100000300504C5445212830FFFFFF2128300000000000000000000000000000000000000000000000000000330000660000990000CC0000FF0033000033330033660033990033CC0033FF0066000066330066660066990066CC0066FF0099
310
000099330099660099990099CC0099FF00CC0000CC3300CC6600CC9900CCCC00CCFF00FF0000FF3300FF6600FF9900FFCC00FFFF3300003300333300663300993300CC3300FF3333003333333333663333993333CC3333FF3366003366333366663366993366CC3366FF3399003399333399663399993399CC3399FF33CC00
310
33CC3333CC6633CC9933CCCC33CCFF33FF0033FF3333FF6633FF9933FFCC33FFFF6600006600336600666600996600CC6600FF6633006633336633666633996633CC6633FF6666006666336666666666996666CC6666FF6699006699336699666699996699CC6699FF66CC0066CC3366CC6666CC9966CCCC66CCFF66FF0066
310
FF3366FF6666FF9966FFCC66FFFF9900009900339900669900999900CC9900FF9933009933339933669933999933CC9933FF9966009966339966669966999966CC9966FF9999009999339999669999999999CC9999FF99CC0099CC3399CC6699CC9999CCCC99CCFF99FF0099FF3399FF6699FF9999FFCC99FFFFCC0000CC00
310
33CC0066CC0099CC00CCCC00FFCC3300CC3333CC3366CC3399CC33CCCC33FFCC6600CC6633CC6666CC6699CC66CCCC66FFCC9900CC9933CC9966CC9999CC99CCCC99FFCCCC00CCCC33CCCC66CCCC99CCCCCCCCCCFFCCFF00CCFF33CCFF66CCFF99CCFFCCCCFFFFFF0000FF0033FF0066FF0099FF00CCFF00FFFF3300FF3333
310
FF3366FF3399FF33CCFF33FFFF6600FF6633FF6666FF6699FF66CCFF66FFFF9900FF9933FF9966FF9999FF99CCFF99FFFFCC00FFCC33FFCC66FFCC99FFCCCCFFCCFFFFFF00FFFF33FFFF66FFFF99FFFFCCFFFFFF0000000D0D0D1A1A1A2828283535354343435050505D5D5D6B6B6B787878868686939393A1A1A1AEAEAEBB
310
BBBBC9C9C9D6D6D6E4E4E4F1F1F1FFFFFF0000000000000000000000000000000000000000000000000000000000002E4550F1000001294944415478DAED9A4B0E83300C057DFFFB7A5F4112274129AB4A5DCC8C2A54BAF3E3F947132122222222222222222222222222222222F227B25DB3DFB52FE39610FF376006B89EF9
310
FD19A1C304A834C8C3EF0001661D280B700448BA008F14C0D700A600D9832F01706D90EC80192FB80B845D60DB07E8028402B06A007C1B94C503C17CFC2DE02600AD00ECD12A40599F9503791A0A5902649501A603962E30D6A2E00AD02F3A805703C873C02882816D8378019C042B17A85D207AECD86D10FD3AE410B7CB10
310
5980240A30FF10C41D118A193D58805508700D987D20932A00DE01A6007310AA5D003C098E3980B90BBC2C053801A835E05103695DE0607CE8F108E824A800BBF133C92980EC02AB03EAC8343805D85D809E021E9314111111111111111111F9091F6AC8F960EEFEC8320000000049454E44AE426082
  0
ENDSEC
  0
EOF
